<svg width="18" height="18" viewBox="0 0 18 18" fill="none" xmlns="http://www.w3.org/2000/svg">
<path d="M12 12C12.6975 12 13.0463 12 13.3324 11.9234C14.1088 11.7153 14.7153 11.1088 14.9234 10.3324C15 10.0462 15 9.6975 15 9V6.6C15 5.33988 15 4.70982 14.7548 4.22852C14.5391 3.80516 14.1949 3.46095 13.7715 3.24524C13.2901 3 12.6601 3 11.4 3H9C8.3025 3 7.95375 3 7.66763 3.07667C6.8912 3.28472 6.28471 3.8912 6.07666 4.66765C6 4.95378 6 5.30252 6 6M12 9.6V11.4C12 12.6601 12 13.2901 11.7548 13.7715C11.5391 14.1949 11.1949 14.5391 10.7715 14.7548C10.2902 15 9.66015 15 8.4 15H6.6C5.33988 15 4.70982 15 4.22852 14.7548C3.80516 14.5391 3.46095 14.1949 3.24524 13.7715C3 13.2901 3 12.6601 3 11.4V9.6C3 8.33985 3 7.70985 3.24524 7.22852C3.46095 6.80516 3.80516 6.46095 4.22852 6.24523C4.70982 6 5.33988 6 6.6 6H8.4C9.66015 6 10.2902 6 10.7715 6.24523C11.1949 6.46095 11.5391 6.80516 11.7548 7.22852C12 7.70985 12 8.33985 12 9.6Z" stroke="black" stroke-width="1.5" stroke-linecap="round"/>
</svg>
