<svg preserveAspectRatio="none" width="100%" height="100%" overflow="visible" style="display: block;" viewBox="0 0 279 42" fill="none" xmlns="http://www.w3.org/2000/svg">
<g id="Vector 4" filter="url(#filter0_gf_0_8)">
<path d="M14.6368 15.0625L6.814 17.4375L2 15.0625L4.407 9.71875L14.6368 8.53125H40.512L47.1313 13.875L96.4748 5.5625L101.289 9.71875L113.926 7.34375L129.571 10.9062L144.615 7.34375L174.101 8.53125L181.923 2L224.046 7.34375H251.726H270.982L275.195 15.0625V22.7812L277 30.5V37.0312L267.974 38.2188L224.046 34.0625H201.781L185.534 31.6875L178.915 38.2188L161.464 40L144.615 37.0312L129.571 40L116.934 38.2188L102.492 40L94.6696 30.5L88.0503 19.2188L73.0066 22.7812L62.7768 25.1562L59.1663 28.7188H53.1488L44.1225 25.1562L38.7068 21L30.884 13.875L22.4595 15.0625H14.6368Z" fill="var(--fill-0, #16A34A)" fill-opacity="1"/>
</g>
<defs>
<filter id="filter0_gf_0_8" x="0" y="0" width="279" height="42" filterUnits="userSpaceOnUse" color-interpolation-filters="sRGB">
<feFlood flood-opacity="0" result="BackgroundImageFix"/>
<feBlend mode="normal" in="SourceGraphic" in2="BackgroundImageFix" result="shape"/>
<feTurbulence type="fractalNoise" baseFrequency="0.27027025818824768 0.27027025818824768" numOctaves="3" seed="8693" />
<feDisplacementMap in="shape" scale="4" xChannelSelector="R" yChannelSelector="G" result="displacedImage" width="100%" height="100%" />
<feMerge result="effect1_texture_0_8">
<feMergeNode in="displacedImage"/>
</feMerge>
<feGaussianBlur stdDeviation="1" result="effect2_foregroundBlur_0_8"/>
</filter>
</defs>
</svg>
