<svg width="14" height="14" viewBox="0 0 14 14" fill="none" xmlns="http://www.w3.org/2000/svg">
<g id="IconNumber1Circle">
<path id="Vector" d="M7 12.25C9.8995 12.25 12.25 9.8995 12.25 7C12.25 4.1005 9.8995 1.75 7 1.75C4.1005 1.75 1.75 4.1005 1.75 7C1.75 9.8995 4.1005 12.25 7 12.25Z" stroke="currentColor" stroke-width="1.16667"/>
<path id="Vector_2" d="M7.26886 9.54467C6.89634 9.54467 6.64341 9.30201 6.64341 8.92605V5.64136H6.61949L6.00425 6.06859C5.89144 6.14722 5.81624 6.17458 5.69661 6.17458C5.45394 6.17458 5.27279 5.9934 5.27279 5.74048C5.27279 5.55932 5.34457 5.41919 5.5223 5.29614L6.4554 4.6604C6.7186 4.48266 6.93053 4.45532 7.17658 4.45532C7.62779 4.45532 7.89093 4.72534 7.89093 5.156V8.92605C7.89093 9.30201 7.64144 9.54467 7.26886 9.54467Z" fill="currentColor"/>
</g>
</svg>
