<svg width="14" height="14" viewBox="0 0 14 14" fill="none" xmlns="http://www.w3.org/2000/svg">
  <g clip-path="url(#clip0_4_156)">
    <path d="M0 7C0 4.19108 0 2.78661 0.674122 1.77772C0.965956 1.34096 1.34096 0.965956 1.77772 0.674122C2.78661 0 4.19108 0 7 0V0C9.80892 0 11.2134 0 12.2223 0.674122C12.659 0.965956 13.034 1.34096 13.3259 1.77772C14 2.78661 14 4.19108 14 7V7C14 9.80892 14 11.2134 13.3259 12.2223C13.034 12.659 12.659 13.034 12.2223 13.3259C11.2134 14 9.80892 14 7 14V14C4.19108 14 2.78661 14 1.77772 13.3259C1.34096 13.034 0.965956 12.659 0.674122 12.2223C0 11.2134 0 9.80892 0 7V7Z" fill="#000000"/>
    <path fill-rule="evenodd" clip-rule="evenodd" d="M11.2439 3.43558C11.5556 3.70834 11.5872 4.18216 11.3145 4.49389L6.06445 10.4939C5.92773 10.6501 5.73243 10.7427 5.52498 10.7496C5.3175 10.7565 5.11645 10.6771 4.96967 10.5303L2.71967 8.28033C2.42678 7.98745 2.42678 7.51255 2.71967 7.21968C3.01257 6.9268 3.48743 6.9268 3.78033 7.21968L5.46347 8.90283L10.1856 3.50613C10.4583 3.1944 10.9322 3.16281 11.2439 3.43558Z" fill="white"/>
  </g>
  <defs>
    <clipPath id="clip0_4_156">
      <path d="M0 7C0 4.19108 0 2.78661 0.674122 1.77772C0.965956 1.34096 1.34096 0.965956 1.77772 0.674122C2.78661 0 4.19108 0 7 0V0C9.80892 0 11.2134 0 12.2223 0.674122C12.659 0.965956 13.034 1.34096 13.3259 1.77772C14 2.78661 14 4.19108 14 7V7C14 9.80892 14 11.2134 13.3259 12.2223C13.034 12.659 12.659 13.034 12.2223 13.3259C11.2134 14 9.80892 14 7 14V14C4.19108 14 2.78661 14 1.77772 13.3259C1.34096 13.034 0.965956 12.659 0.674122 12.2223C0 11.2134 0 9.80892 0 7V7Z" fill="white"/>
    </clipPath>
  </defs>
</svg>
