<svg width="18" height="18" viewBox="0 0 18 18" fill="none" xmlns="http://www.w3.org/2000/svg">
<path d="M9.00022 15.75V14.25M9.00022 14.25C6.24157 14.25 4.61035 12.5588 3.76099 11.25M9.00022 14.25C11.7589 14.25 13.3901 12.5588 14.2395 11.25" stroke="currentColor" stroke-width="1.5" stroke-linecap="round" stroke-linejoin="round"/>
<path d="M12.9304 3.88889L12.4077 2.53C12.3428 2.36131 12.1807 2.25 12 2.25C11.8193 2.25 11.6572 2.36131 11.5923 2.53L11.0696 3.88889C10.9935 4.08695 10.837 4.24348 10.6389 4.31966L9.27997 4.84231C9.1113 4.90719 9 5.06926 9 5.25C9 5.43074 9.1113 5.59281 9.27997 5.65769L10.6389 6.18034C10.837 6.25652 10.9935 6.41305 11.0696 6.61112L11.5923 7.97003C11.6572 8.1387 11.8193 8.25 12 8.25C12.1807 8.25 12.3428 8.1387 12.4077 7.97003L12.9304 6.61112C13.0065 6.41305 13.163 6.25652 13.3611 6.18034L14.72 5.65769C14.8887 5.59281 15 5.43074 15 5.25C15 5.06926 14.8887 4.90719 14.72 4.84231L13.3611 4.31966C13.163 4.24348 13.0065 4.08695 12.9304 3.88889Z" fill="currentColor"/>
<path d="M10.9843 10.5C10.4555 10.9667 9.7608 11.25 9 11.25C7.34314 11.25 6 9.90682 6 8.25V5.24997C6 3.85209 6.95608 2.67751 8.25 2.34448" stroke="currentColor" stroke-width="1.5" stroke-linecap="round"/>
</svg>
