<svg width="18" height="18" viewBox="0 0 18 18" fill="none" xmlns="http://www.w3.org/2000/svg">
<path d="M3.75 7.5H14.25V14.25C14.25 15.0784 13.5784 15.75 12.75 15.75H5.25C4.42157 15.75 3.75 15.0784 3.75 14.25V7.5Z" stroke="currentColor" stroke-width="1.5" stroke-linecap="round" stroke-linejoin="round"/>
<path d="M7.5 10.5H10.5" stroke="currentColor" stroke-width="1.5" stroke-linecap="round" stroke-linejoin="round"/>
<path d="M14.2498 3.75L12.2249 7.125" stroke="currentColor" stroke-width="1.5" stroke-linecap="round" stroke-linejoin="round"/>
<path d="M4.94019 3.55657C4.99055 3.53139 5.03139 3.49055 5.05657 3.44019L5.39224 2.76886C5.48814 2.57704 5.76186 2.57704 5.85776 2.76886L6.19343 3.44019C6.21861 3.49055 6.25945 3.53139 6.30981 3.55657L6.98114 3.89224C7.17296 3.98814 7.17296 4.26186 6.98114 4.35776L6.30981 4.69343C6.25945 4.71861 6.21861 4.75945 6.19343 4.80981L5.85776 5.48114C5.76186 5.67295 5.48814 5.67295 5.39224 5.48114L5.05657 4.80981C5.03139 4.75945 4.99055 4.71861 4.94019 4.69343L4.26886 4.35776C4.07704 4.26186 4.07704 3.98814 4.26886 3.89224L4.94019 3.55657Z" fill="currentColor"/>
<path d="M8.89395 2.28946C8.95695 2.25799 9.00795 2.20693 9.03945 2.14399L9.45907 1.30482C9.57892 1.06506 9.92108 1.06506 10.0409 1.30482L10.4606 2.14399C10.4921 2.20693 10.5431 2.25799 10.6061 2.28946L11.4451 2.70905C11.6849 2.82893 11.6849 3.17107 11.4451 3.29095L10.6061 3.71054C10.5431 3.74201 10.4921 3.79306 10.4606 3.85601L10.0409 4.69518C9.92108 4.93494 9.57892 4.93494 9.45907 4.69518L9.03945 3.85601C9.00795 3.79306 8.95695 3.74201 8.89395 3.71054L8.05485 3.29095C7.81508 3.17107 7.81508 2.82893 8.05485 2.70905L8.89395 2.28946Z" fill="currentColor"/>
</svg>
