<svg width="18" height="18" viewBox="0 0 18 18" fill="none" xmlns="http://www.w3.org/2000/svg">
<path d="M11.2044 4.42214C10.8635 4.52155 10.508 4.65097 10.1431 4.80904C9.41528 5.12428 8.5842 5.12428 7.8564 4.80904C7.4915 4.65097 7.13597 4.52155 6.7951 4.42214M11.2044 4.42214C12.5904 4.01794 13.7338 4.11005 14.2772 4.79158C14.8207 5.4731 14.6561 6.60825 13.9535 7.86952M11.2044 4.42214C10.6563 3.08648 9.87142 2.25 8.99977 2.25C8.12805 2.25 7.34321 3.08648 6.7951 4.42214M11.2044 4.42214C11.3392 4.75063 11.4597 5.1093 11.5636 5.49314C11.7709 6.25872 12.2891 6.90848 12.9893 7.28097C13.3403 7.46773 13.6632 7.665 13.9535 7.86952M6.7951 4.42214C5.40908 4.01794 4.26575 4.11005 3.72228 4.79158C3.17881 5.4731 3.34348 6.60825 4.04603 7.86952M6.7951 4.42214C6.6603 4.75063 6.53982 5.1093 6.43588 5.49315C6.2286 6.25872 5.71046 6.90848 5.01022 7.28097C4.65914 7.46773 4.33627 7.665 4.04603 7.86952M13.9535 7.86952C15.1337 8.7012 15.7744 9.6525 15.5804 10.5023C15.3864 11.3522 14.3963 11.9312 12.9721 12.1682M13.9535 7.86952C13.7807 8.17972 13.5754 8.49757 13.34 8.81812C12.8707 9.4575 12.6858 10.2677 12.8312 11.0474C12.904 11.4384 12.9511 11.8138 12.9721 12.1682M4.04603 7.86952C2.86586 8.7012 2.22505 9.6525 2.41906 10.5023C2.61307 11.3522 3.60325 11.9312 5.02741 12.1682M4.04603 7.86952C4.21881 8.17972 4.42412 8.49757 4.65944 8.81812C5.12876 9.4575 5.31373 10.2677 5.16838 11.0474C5.0955 11.4384 5.04845 11.8138 5.02741 12.1682M12.9721 12.1682C13.0577 13.6094 12.7134 14.7036 11.928 15.0817C11.1428 15.4598 10.0729 15.0469 8.99977 14.0815M12.9721 12.1682C12.622 12.2265 12.2457 12.2641 11.8486 12.28C11.056 12.3118 10.3071 12.6724 9.7881 13.2723C9.52793 13.5731 9.2637 13.844 8.99977 14.0815M8.99977 14.0815C7.9266 15.0469 6.85677 15.4598 6.07149 15.0817C5.2861 14.7036 4.94182 13.6094 5.02741 12.1682M8.99977 14.0815C8.73577 13.844 8.47155 13.5731 8.21137 13.2723C7.69238 12.6724 6.94356 12.3118 6.15095 12.28C5.7538 12.2641 5.37749 12.2265 5.02741 12.1682" stroke="currentColor" stroke-width="1.5" stroke-linejoin="round"/>
</svg>
