<svg width="18" height="18" viewBox="0 0 18 18" fill="none" xmlns="http://www.w3.org/2000/svg">
<g id="IconBulletList">
<path id="Vector" d="M6 5.25C6 6.07843 5.32843 6.75 4.5 6.75C3.67157 6.75 3 6.07843 3 5.25C3 4.42157 3.67157 3.75 4.5 3.75C5.32843 3.75 6 4.42157 6 5.25Z" stroke="currentColor" stroke-width="1.5" stroke-linecap="round"/>
<path id="Vector_2" d="M6 12.75C6 13.5784 5.32843 14.25 4.5 14.25C3.67157 14.25 3 13.5784 3 12.75C3 11.9216 3.67157 11.25 4.5 11.25C5.32843 11.25 6 11.9216 6 12.75Z" stroke="currentColor" stroke-width="1.5" stroke-linecap="round"/>
<path id="Vector_3" d="M9.75 12.75H15" stroke="currentColor" stroke-width="1.5" stroke-linecap="round"/>
<path id="Vector_4" d="M9.75 5.25H15" stroke="currentColor" stroke-width="1.5" stroke-linecap="round"/>
</g>
</svg>
