<svg width="18" height="18" viewBox="0 0 18 18" fill="none" xmlns="http://www.w3.org/2000/svg">
<path d="M8.25 9.75H9.57938C10.1771 9.75 10.7502 9.51218 11.1724 9.08903L14.627 5.6257C15.2474 5.00377 15.2468 3.99686 14.6257 3.3757C14.0039 2.75399 12.9959 2.754 12.3743 3.37571L8.90903 6.841C8.48708 7.26296 8.25 7.83525 8.25 8.43195V9.75Z" stroke="currentColor" stroke-width="1.5" stroke-linecap="round" stroke-linejoin="round"/>
<path d="M9.00023 15.7501C8.62523 15.7501 6.70299 15.0971 5.03837 13.4325C2.25588 10.65 1.54357 6.85099 3.44737 4.94719C5.01163 3.38293 7.85535 3.58483 10.3634 5.25005" stroke="currentColor" stroke-width="1.5" stroke-linecap="round" stroke-linejoin="round"/>
<path d="M12.8299 7.5C14.9944 9.9984 15.9109 12.5465 14.2501 13.875C13.006 14.8703 11.4317 13.7193 10.5132 12.832" stroke="currentColor" stroke-width="1.5" stroke-linecap="round" stroke-linejoin="round"/>
</svg>
