<svg preserveAspectRatio="none" width="100%" height="100%" overflow="visible" style="display: block;" viewBox="0 0 15 15" fill="none" xmlns="http://www.w3.org/2000/svg">
<g id="IconPeopleIdCard">
<path id="Vector" d="M10.3125 1.875H4.6875C3.65197 1.875 2.8125 2.71447 2.8125 3.75V11.25C2.8125 12.2856 3.65197 13.125 4.6875 13.125H10.3125C11.3481 13.125 12.1875 12.2856 12.1875 11.25V3.75C12.1875 2.71447 11.3481 1.875 10.3125 1.875Z" stroke="var(--stroke-0, #A8A29E)" stroke-width="1.25" stroke-linecap="round" stroke-linejoin="round"/>
<path id="Vector_2" d="M7.50003 8.75012C8.19039 8.75012 8.75003 8.19048 8.75003 7.50012C8.75003 6.80977 8.19039 6.25012 7.50003 6.25012C6.80967 6.25012 6.25003 6.80977 6.25003 7.50012C6.25003 8.19048 6.80967 8.75012 7.50003 8.75012Z" stroke="var(--stroke-0, #A8A29E)" stroke-width="1.25" stroke-linecap="round" stroke-linejoin="round"/>
<path id="Vector_3" d="M9.99997 13.1249C9.99997 11.7442 8.88066 10.6249 7.49997 10.6249C6.11926 10.6249 4.99997 11.7442 4.99997 13.1249" stroke="var(--stroke-0, #A8A29E)" stroke-width="1.25" stroke-linecap="round" stroke-linejoin="round"/>
<path id="Vector_4" d="M6.25003 4.06238H8.75003" stroke="var(--stroke-0, #A8A29E)" stroke-width="1.25" stroke-linecap="round" stroke-linejoin="round"/>
</g>
</svg>
