<svg width="18" height="18" viewBox="0 0 18 18" fill="none" xmlns="http://www.w3.org/2000/svg">
<path d="M5.25 7.5H6.75M5.25 10.5H6.75M12 10.5H10.5C10.0858 10.5 9.75 10.1642 9.75 9.75V8.25C9.75 7.83578 10.0858 7.5 10.5 7.5H12C12.4142 7.5 12.75 7.83578 12.75 8.25V9.75C12.75 10.1642 12.4142 10.5 12 10.5ZM4.5 14.25H13.5C14.7427 14.25 15.75 13.2427 15.75 12V6C15.75 4.75736 14.7427 3.75 13.5 3.75H4.5C3.25736 3.75 2.25 4.75736 2.25 6V12C2.25 13.2427 3.25736 14.25 4.5 14.25Z" stroke="black" stroke-width="1.5" stroke-linecap="round" stroke-linejoin="round"/>
</svg>
