<svg width="16" height="16" viewBox="0 0 16 16" fill="none" xmlns="http://www.w3.org/2000/svg">
<path fill-rule="evenodd" clip-rule="evenodd" d="M13.6627 1.42047C13.9828 1.60236 14.0949 2.00932 13.913 2.32945L10.8073 7.7956L10.9826 7.8594C11.9964 8.2284 12.8071 9.23407 12.6385 10.4353C12.4145 12.0307 11.7331 13.1821 10.4755 14.4665C10.2841 14.6621 9.9926 14.7207 9.7404 14.6145L3.40794 11.9479C3.18177 11.8526 3.02621 11.6408 3.003 11.3965C2.97979 11.1522 3.09268 10.9149 3.29687 10.7787C4.2684 10.1311 5.04519 9.49687 5.62872 8.57893C6.33303 7.47093 7.7316 6.67613 9.14933 7.19213L9.5366 7.33307L12.7537 1.67079C12.9356 1.35066 13.3425 1.23859 13.6627 1.42047ZM8.69327 8.44507C8.03767 8.2064 7.23327 8.54013 6.75393 9.2942C6.26232 10.0676 5.66827 10.6637 5.01917 11.1796L6.15781 11.6591C6.19608 11.6753 6.23968 11.6726 6.27573 11.652L7.69647 10.8398C7.80273 10.7791 7.9278 10.8816 7.88913 10.9977L7.52173 12.0999C7.49967 12.166 7.53227 12.2379 7.59647 12.2649L9.83213 13.2065C10.7378 12.2105 11.1614 11.3661 11.3181 10.2499C11.3813 9.80007 11.0795 9.31353 10.5266 9.11233L8.69327 8.44507Z" fill="currentColor"/>
<path d="M6.47937 2.37343C6.45633 2.41951 6.41897 2.45687 6.37289 2.47991L5.75869 2.78701C5.5832 2.87475 5.5832 3.12519 5.75869 3.21293L6.37289 3.52003C6.41897 3.54307 6.45633 3.58043 6.47937 3.62651L6.78647 4.24072C6.8742 4.41621 7.12467 4.41621 7.2124 4.24072L7.51947 3.62651C7.54253 3.58043 7.57993 3.54307 7.626 3.52003L8.2402 3.21293C8.41567 3.12519 8.41567 2.87475 8.2402 2.78701L7.626 2.47991C7.57993 2.45687 7.54253 2.41951 7.51947 2.37343L7.2124 1.75922C7.12467 1.58373 6.8742 1.58373 6.78647 1.75922L6.47937 2.37343Z" fill="currentColor"/>
<path d="M2.93801 4.78948C2.90576 4.85399 2.85345 4.90629 2.78895 4.93855L1.92905 5.36849C1.68337 5.49133 1.68337 5.84193 1.92905 5.96478L2.78895 6.39472C2.85345 6.42698 2.90576 6.47929 2.93801 6.54379L3.36796 7.40367C3.4908 7.6494 3.8414 7.6494 3.96425 7.40367L4.39419 6.54379C4.42645 6.47929 4.47875 6.42698 4.54326 6.39472L5.40315 5.96478C5.64883 5.84193 5.64883 5.49133 5.40315 5.36849L4.54326 4.93855C4.47875 4.90629 4.42645 4.85399 4.39419 4.78948L3.96425 3.92959C3.8414 3.68391 3.4908 3.68391 3.36796 3.92959L2.93801 4.78948Z" fill="currentColor"/>
</svg>
