<svg width="18" height="18" viewBox="0 0 18 18" fill="none" xmlns="http://www.w3.org/2000/svg">
<path fill-rule="evenodd" clip-rule="evenodd" d="M15.37054 1.59803C15.73065 1.80266 15.85676 2.26049 15.65212 2.62063L12.15821 8.77005L12.35543 8.84183C13.49595 9.25695 14.40799 10.38833 14.21831 11.73971C13.96631 13.53454 13.19974 14.82986 11.78494 16.27481C11.56961 16.49486 11.24167 16.56079 10.95795 16.44131L3.83393 13.44139C3.57949 13.33418 3.40449 13.0959 3.37838 12.82106C3.35226 12.54622 3.47927 12.27926 3.70898 12.12604C4.80195 11.39749 5.67584 10.68398 6.33231 9.6513C7.12466 8.4048 8.69805 7.51065 10.293 8.09115L10.72867 8.2497L14.34791 1.87964C14.55255 1.51949 15.01031 1.39341 15.37054 1.59803ZM9.77993 9.5007C9.04238 9.2322 8.13743 9.60765 7.59817 10.45598C7.04511 11.32605 6.3768 11.99666 5.64657 12.57705L6.92754 13.11649C6.97059 13.13471 7.01964 13.13167 7.0602 13.1085L8.65853 12.19477C8.77807 12.12649 8.91878 12.2418 8.87527 12.37241L8.46195 13.61239C8.43713 13.68675 8.4738 13.76764 8.54603 13.79801L11.06115 14.85731C12.08002 13.73681 12.55658 12.78686 12.73286 11.53114C12.80396 11.02508 12.46444 10.47772 11.84243 10.25137L9.77993 9.5007Z" fill="currentColor"/>
<path d="M7.28929 2.67011C7.26337 2.72195 7.22134 2.76398 7.1695 2.7899L6.47853 3.13539C6.2811 3.23409 6.2811 3.51584 6.47853 3.61455L7.1695 3.96003C7.22134 3.98595 7.26337 4.02798 7.28929 4.07982L7.63478 4.77081C7.73348 4.96824 8.01525 4.96824 8.11395 4.77081L8.4594 4.07982C8.48535 4.02798 8.52742 3.98595 8.57925 3.96003L9.27022 3.61455C9.46763 3.51584 9.46763 3.23409 9.27022 3.13539L8.57925 2.7899C8.52742 2.76398 8.48535 2.72195 8.4594 2.67011L8.11395 1.97912C8.01525 1.7817 7.73348 1.7817 7.63478 1.97912L7.28929 2.67011Z" fill="currentColor"/>
<path d="M3.30526 5.38816C3.26898 5.46074 3.21013 5.51958 3.13757 5.55587L2.17018 6.03955C1.89379 6.17775 1.89379 6.57217 2.17018 6.71038L3.13757 7.19406C3.21013 7.23035 3.26898 7.2892 3.30526 7.36176L3.78896 8.32913C3.92715 8.60557 4.32158 8.60557 4.45978 8.32913L4.94346 7.36176C4.97976 7.2892 5.03859 7.23035 5.11117 7.19406L6.07854 6.71038C6.35493 6.57217 6.35493 6.17775 6.07854 6.03955L5.11117 5.55587C5.03859 5.51958 4.97976 5.46074 4.94346 5.38816L4.45978 4.42079C4.32158 4.1444 3.92715 4.1444 3.78896 4.42079L3.30526 5.38816Z" fill="currentColor"/>
</svg>
