<svg width="18" height="18" viewBox="0 0 18 18" fill="none" xmlns="http://www.w3.org/2000/svg">
<path d="M14.25 6.6V11.4H15.75V6.6H14.25ZM11.4 14.25H6.6V15.75H11.4V14.25ZM3.75 11.4V6.6H2.25V11.4H3.75ZM6.6 3.75H11.4V2.25H6.6V3.75ZM6.6 14.25C5.95757 14.25 5.52085 14.2494 5.18328 14.2218C4.85447 14.195 4.68632 14.1463 4.56902 14.0865L3.88803 15.423C4.25203 15.6085 4.63956 15.6824 5.06113 15.7168C5.47395 15.7506 5.98232 15.75 6.6 15.75V14.25ZM2.25 11.4C2.25 12.0177 2.24942 12.5261 2.28314 12.9389C2.31759 13.3604 2.39151 13.748 2.57698 14.112L3.91349 13.431C3.85373 13.3137 3.80503 13.1456 3.77816 12.8168C3.75059 12.4792 3.75 12.0425 3.75 11.4H2.25ZM4.56902 14.0865C4.28678 13.9427 4.0573 13.7132 3.91349 13.431L2.57698 14.112C2.8646 14.6765 3.32354 15.1354 3.88803 15.423L4.56902 14.0865ZM14.25 11.4C14.25 12.0425 14.2494 12.4792 14.2218 12.8168C14.195 13.1456 14.1463 13.3137 14.0865 13.431L15.423 14.112C15.6085 13.748 15.6824 13.3604 15.7168 12.9389C15.7506 12.5261 15.75 12.0177 15.75 11.4H14.25ZM11.4 15.75C12.0177 15.75 12.5261 15.7506 12.9389 15.7168C13.3604 15.6824 13.748 15.6085 14.112 15.423L13.431 14.0865C13.3137 14.1463 13.1456 14.195 12.8168 14.2218C12.4792 14.2494 12.0425 14.25 11.4 14.25V15.75ZM14.0865 13.431C13.9427 13.7132 13.7132 13.9427 13.431 14.0865L14.112 15.423C14.6765 15.1354 15.1354 14.6765 15.423 14.112L14.0865 13.431ZM15.75 6.6C15.75 5.98232 15.7506 5.47395 15.7168 5.06113C15.6824 4.63956 15.6085 4.25203 15.423 3.88803L14.0865 4.56902C14.1463 4.68632 14.195 4.85447 14.2218 5.18328C14.2494 5.52085 14.25 5.95757 14.25 6.6H15.75ZM11.4 3.75C12.0425 3.75 12.4792 3.75059 12.8168 3.77816C13.1456 3.80503 13.3137 3.85373 13.431 3.91349L14.112 2.57698C13.748 2.39151 13.3604 2.31759 12.9389 2.28314C12.5261 2.24942 12.0177 2.25 11.4 2.25V3.75ZM15.423 3.88803C15.1354 3.32354 14.6765 2.8646 14.112 2.57698L13.431 3.91349C13.7132 4.0573 13.9427 4.28678 14.0865 4.56902L15.423 3.88803ZM3.75 6.6C3.75 5.95757 3.75059 5.52085 3.77816 5.18328C3.80503 4.85447 3.85373 4.68632 3.91349 4.56902L2.57698 3.88803C2.39151 4.25203 2.31759 4.63956 2.28314 5.06113C2.24942 5.47395 2.25 5.98232 2.25 6.6H3.75ZM6.6 2.25C5.98232 2.25 5.47395 2.24942 5.06113 2.28314C4.63956 2.31759 4.25203 2.39151 3.88803 2.57698L4.56902 3.91349C4.68632 3.85373 4.85447 3.80503 5.18328 3.77816C5.52085 3.75059 5.95757 3.75 6.6 3.75V2.25ZM3.91349 4.56902C4.0573 4.28677 4.28677 4.0573 4.56902 3.91349L3.88803 2.57698C3.32354 2.8646 2.8646 3.32354 2.57698 3.88803L3.91349 4.56902Z" fill="currentColor"/>
<path d="M8.25 3V2.25H6.75V3H8.25ZM6.75 15V15.75H8.25V15H6.75ZM6.75 3V15H8.25V3H6.75Z" fill="currentColor"/>
</svg>
