<svg width="18" height="18" viewBox="0 0 18 18" fill="none" xmlns="http://www.w3.org/2000/svg">
<path d="M7.49991 14.2503L7.37123 14.3789C6.19966 15.5505 4.30017 15.5505 3.1286 14.3789L2.87123 14.1216C1.69966 12.95 1.69966 11.0505 2.87123 9.87894L5.3786 7.3766C6.55017 6.20503 8.44966 6.20503 9.62123 7.3766L9.87861 7.62894C10.3688 8.11922 10.6539 8.73682 10.7339 9.37532" stroke="currentColor" stroke-width="1.5" stroke-linecap="round" stroke-linejoin="round"/>
<path d="M7.26599 9.37532C7.34597 10.0137 7.63111 10.6314 8.12131 11.1216L8.37861 11.3789C9.55021 12.5505 11.4497 12.5505 12.6213 11.3789L15.1286 8.87894C16.3002 7.70734 16.3002 5.80053 15.1286 4.62894L14.8713 4.3716C13.6997 3.20003 11.8002 3.20003 10.6286 4.3716L10.5 4.50028" stroke="currentColor" stroke-width="1.5" stroke-linecap="round" stroke-linejoin="round"/>
</svg>
