<svg width="18" height="18" viewBox="0 0 18 18" fill="none" xmlns="http://www.w3.org/2000/svg">
<path d="M3.75 6V4.5C3.75 3.25736 4.75736 2.25 6 2.25H9.1287C9.5265 2.25 9.90803 2.40803 10.1894 2.68934L13.8106 6.31066C14.092 6.59197 14.25 6.97349 14.25 7.37132V13.5C14.25 14.7427 13.2427 15.75 12 15.75H9.375" stroke="currentColor" stroke-width="1.5" stroke-linecap="round"/>
<path d="M9.75 2.625V5.25C9.75 6.07843 10.4216 6.75 11.25 6.75H13.875" stroke="currentColor" stroke-width="1.5" stroke-linecap="round"/>
<path d="M2.25 11.25C2.25 10.0073 3.25736 9 4.5 9C5.74264 9 6.75 10.0073 6.75 11.25" stroke="currentColor" stroke-width="1.5" stroke-linecap="round"/>
<path d="M2.25 13.5C2.25 14.7427 3.25736 15.75 4.5 15.75C5.74264 15.75 6.75 14.7427 6.75 13.5" stroke="currentColor" stroke-width="1.5" stroke-linecap="round"/>
<path d="M4.5 12V12.75" stroke="currentColor" stroke-width="1.5" stroke-linecap="round"/>
</svg>
