<svg preserveAspectRatio="none" width="100%" height="100%" overflow="visible" style="display: block;" viewBox="0 0 20 20" fill="none" xmlns="http://www.w3.org/2000/svg">
<g id="IconArrowUpCircle">
<path id="Vector" fill-rule="evenodd" clip-rule="evenodd" d="M1.66667 10C1.66667 5.39762 5.39762 1.66667 10 1.66667C14.6023 1.66667 18.3333 5.39762 18.3333 10C18.3333 14.6023 14.6023 18.3333 10 18.3333C5.39762 18.3333 1.66667 14.6023 1.66667 10ZM6.84973 8.72475L9.55808 6.01639C9.80217 5.77232 10.1978 5.77232 10.4419 6.01639L13.1502 8.72475C13.3943 8.96883 13.3943 9.3645 13.1502 9.60858C12.9062 9.85267 12.5105 9.85267 12.2664 9.60858L10.625 7.96722V13.5417C10.625 13.8868 10.3452 14.1667 10 14.1667C9.65483 14.1667 9.375 13.8868 9.375 13.5417V7.96722L7.73361 9.60858C7.48953 9.85267 7.0938 9.85267 6.84973 9.60858C6.60565 9.3645 6.60565 8.96883 6.84973 8.72475Z" fill="var(--fill-0, white)"/>
</g>
</svg>
