<svg width="16" height="16" viewBox="0 0 16 16" fill="none" xmlns="http://www.w3.org/2000/svg">
<g clip-path="url(#clip0_1813_102016)">
<path d="M2.66666 4.66667V12" stroke="#57534E" stroke-width="1.33333" stroke-linecap="round" stroke-linejoin="round"/>
<path d="M13.3333 4V11.3333" stroke="#57534E" stroke-width="1.33333" stroke-linecap="round" stroke-linejoin="round"/>
<path d="M2.66667 4.66667C3.40305 4.66667 4 4.06971 4 3.33333C4 2.59695 3.40305 2 2.66667 2C1.93029 2 1.33334 2.59695 1.33334 3.33333C1.33334 4.06971 1.93029 4.66667 2.66667 4.66667Z" stroke="#57534E" stroke-width="1.33333" stroke-linecap="round" stroke-linejoin="round"/>
<path d="M13.3333 14C14.0697 14 14.6667 13.403 14.6667 12.6667C14.6667 11.9303 14.0697 11.3333 13.3333 11.3333C12.597 11.3333 12 11.9303 12 12.6667C12 13.403 12.597 14 13.3333 14Z" stroke="#57534E" stroke-width="1.33333" stroke-linecap="round" stroke-linejoin="round"/>
<path d="M5.33334 12H6" stroke="#57534E" stroke-width="1.33333" stroke-linecap="round" stroke-linejoin="round"/>
<path d="M8.66666 12H9.33333" stroke="#57534E" stroke-width="1.33333" stroke-linecap="round" stroke-linejoin="round"/>
<path d="M6.66666 4H7.33333" stroke="#57534E" stroke-width="1.33333" stroke-linecap="round" stroke-linejoin="round"/>
<path d="M10 4H10.6667" stroke="#57534E" stroke-width="1.33333" stroke-linecap="round" stroke-linejoin="round"/>
</g>
<defs>
<clipPath id="clip0_1813_102016">
<rect width="16" height="16" fill="white"/>
</clipPath>
</defs>
</svg>
