<svg viewBox="0 0 30.0613 35.0012" fill="none" xmlns="http://www.w3.org/2000/svg">
<path d="M1.00007 1.70643C2.60066 1.86574 7.1405 2.24119 9.3866 2.37813C10.6131 2.45291 12.0467 1.98022 12.976 1.71255C13.9037 1.44534 14.9131 1.24645 17.5874 1.06872C18.5955 1.00172 19.6878 0.965988 20.9063 1.04538C22.3014 1.13629 22.7197 2.56567 23.4488 3.35742C24.2496 4.13137 24.8613 4.63494 25.229 4.90397C25.4186 5.03067 25.6144 5.13743 26.0859 5.35524M26.3019 5.40913C26.3019 6.79197 26.3896 10.2078 26.6558 11.8054C27.0003 13.8731 27.1305 15.24 27.4519 16.6308C27.791 18.0978 27.9605 19.6232 28.1362 20.9646C28.3873 22.8811 28.5617 23.8189 28.6879 24.8878C28.8612 26.3544 28.9642 27.238 28.9919 29.3256C28.9828 29.8142 28.9648 30.0811 28.9643 30.3372C28.9639 30.5934 28.9817 30.8307 29.0001 31.0752C27.2336 31.4874 23.3281 32.4667 21.1698 32.7933C19.6069 33.0297 16.0738 33.6523 12.0585 33.9451C10.5299 34.0566 9.34336 33.9303 7.92806 33.8103C6.89916 33.723 6.0204 33.8808 5.4266 33.9874L5.38386 33.9951C4.27666 34.1936 4.47487 28.3436 4.16473 25.2372C3.98709 23.4579 3.13727 20.8538 2.54755 17.9422C2.25694 16.5073 2.21709 15.1678 2.14379 14.1923C2.05423 13.0004 1.98587 9.459 1.71189 7.1671C1.56609 5.94748 1.30017 5.10208 1.17254 4.22401C1.09969 3.76211 1.06244 3.29846 1.0534 2.84344C1.04437 2.61123 1.02629 2.37638 1.00767 2.1344M20.725 1.20908C21.2581 2.6882 21.311 3.71227 21.2062 4.76478C21.0907 5.92587 21.598 6.53789 21.7659 6.90723C21.8505 7.09329 22.1261 7.15476 22.3451 7.14862C23.3055 7.12171 25.1769 6.03595 25.9914 5.46989M13.6933 10.7332C13.8724 12.1223 14.1509 13.931 14.4616 16.0471C14.7452 17.978 14.7695 19.2952 14.9096 19.9696C15.1159 20.9629 15.4694 21.8872 15.6149 22.5372C15.7019 22.9255 14.804 21.7197 14.251 21.0903C13.4805 20.2134 12.8669 19.7845 12.2045 19.386C11.9901 19.257 11.8182 19.1243 11.7556 19.0642C11.3817 18.705 12.8702 20.1244 14.0604 21.4845C15.0804 22.65 15.2786 23.2857 15.5235 23.677C15.5934 23.7887 15.6893 23.9174 15.7304 23.5623C15.8685 22.3685 15.787 21.2137 15.9024 20.5789C16.3755 18.9773 17.1798 17.5588 17.9395 16.4489C18.2335 16.0316 18.3415 15.9107 18.4528 15.7861" stroke="currentColor" stroke-width="2" stroke-linecap="round"/>
</svg>
