<svg preserveAspectRatio="none" width="100%" height="100%" overflow="visible" style="display: block;" viewBox="0 0 20 20" fill="none" xmlns="http://www.w3.org/2000/svg">
<g id="IconPeopleIdCard">
<path id="Vector" d="M13.75 2.5H6.25C4.86929 2.5 3.75 3.61929 3.75 5V15C3.75 16.3807 4.86929 17.5 6.25 17.5H13.75C15.1307 17.5 16.25 16.3807 16.25 15V5C16.25 3.61929 15.1307 2.5 13.75 2.5Z" stroke="#A8A29E" stroke-width="1.66667" stroke-linecap="round" stroke-linejoin="round"/>
<path id="Vector_2" d="M10 11.6667C10.9205 11.6667 11.6667 10.9205 11.6667 10C11.6667 9.07953 10.9205 8.33333 10 8.33333C9.07957 8.33333 8.33337 9.07953 8.33337 10C8.33337 10.9205 9.07957 11.6667 10 11.6667Z" stroke="#A8A29E" stroke-width="1.66667" stroke-linecap="round" stroke-linejoin="round"/>
<path id="Vector_3" d="M13.3333 17.5C13.3333 15.6591 11.8409 14.1667 9.99996 14.1667C8.15901 14.1667 6.66663 15.6591 6.66663 17.5" stroke="#A8A29E" stroke-width="1.66667" stroke-linecap="round" stroke-linejoin="round"/>
<path id="Vector_4" d="M8.33337 5.41667H11.6667" stroke="#A8A29E" stroke-width="1.66667" stroke-linecap="round" stroke-linejoin="round"/>
</g>
</svg>
