<svg preserveAspectRatio="none" width="100%" height="100%" overflow="visible" style="display: block;" viewBox="0 0 279 42" fill="none" xmlns="http://www.w3.org/2000/svg">
<g id="Vector 7" filter="url(#filter0_gf_0_5)">
<path d="M6.52055 40L3.50685 26.359L2 14.1795L10.2877 10.2821H21.589L42.6849 6.87179H60.7671L81.1096 6.38462H90.9041H109.74L125.562 6.87179L138.37 7.35897L157.205 8.33333L171.521 7.35897L187.342 6.38462L200.904 5.41026L212.959 6.38462L238.575 3.94872L274.74 2L277 6.38462L274.74 11.7436L273.986 15.641V18.0769L272.479 26.359L253.644 27.3333L241.589 30.2564L229.534 31.2308H203.918L182.822 32.2051L167 34.1538L148.164 32.6923H133.096H115.014H102.959H88.6438H75.0822H63.0274H52.4795L41.9315 34.1538L33.6438 32.6923L19.3288 37.5641L6.52055 40Z" fill="var(--fill-0, #16A34A)" fill-opacity="1"/>
</g>
<defs>
<filter id="filter0_gf_0_5" x="0" y="0" width="279" height="42" filterUnits="userSpaceOnUse" color-interpolation-filters="sRGB">
<feFlood flood-opacity="0" result="BackgroundImageFix"/>
<feBlend mode="normal" in="SourceGraphic" in2="BackgroundImageFix" result="shape"/>
<feTurbulence type="fractalNoise" baseFrequency="0.27027025818824768 0.27027025818824768" numOctaves="3" seed="8693" />
<feDisplacementMap in="shape" scale="4" xChannelSelector="R" yChannelSelector="G" result="displacedImage" width="100%" height="100%" />
<feMerge result="effect1_texture_0_5">
<feMergeNode in="displacedImage"/>
</feMerge>
<feGaussianBlur stdDeviation="1" result="effect2_foregroundBlur_0_5"/>
</filter>
</defs>
</svg>
