<svg preserveAspectRatio="none" width="100%" height="100%" overflow="visible" style="display: block;" viewBox="0 0 16 16" fill="none" xmlns="http://www.w3.org/2000/svg">
<g id="IconFolderOpen">
<path id="Vector" d="M4 2.66667H5.5963C6.26501 2.66667 6.88947 3.00087 7.2604 3.55727L7.6042 4.07293C7.85147 4.44387 8.2678 4.66667 8.7136 4.66667H12C12.7364 4.66667 13.3333 5.26362 13.3333 6V7.33333H13.7599C14.2096 7.33333 14.5303 7.76953 14.3962 8.19887L13.2924 11.731C13.1185 12.2877 12.6029 12.6667 12.0197 12.6667H2.96051C2.43003 12.6667 2 12.2366 2 11.7061V4.66667C2 3.5621 2.89543 2.66667 4 2.66667Z" stroke="var(--stroke-0, #A8A29E)" stroke-width="1.33333" stroke-linecap="round" stroke-linejoin="round"/>
<path id="Vector_2" d="M2.96094 12.6667C3.38105 12.6667 3.75241 12.3937 3.87773 11.9927L5.04138 8.26893C5.21533 7.71233 5.73083 7.33333 6.31401 7.33333H13.3337" stroke="var(--stroke-0, #A8A29E)" stroke-width="1.33333" stroke-linecap="round" stroke-linejoin="round"/>
</g>
</svg>
