<svg preserveAspectRatio="none" width="100%" height="100%" overflow="visible" style="display: block;" viewBox="0 0 16 16" fill="none" xmlns="http://www.w3.org/2000/svg">
<g id="IconFolder2">
<path id="Vector" d="M5.83824 2.66667H4C2.89543 2.66667 2 3.5621 2 4.66667V10.6667C2 11.7713 2.89543 12.6667 4 12.6667H12C13.1046 12.6667 14 11.7713 14 10.6667V6C14 4.89543 13.1046 4 12 4H8.8284C8.298 4 7.78927 3.78929 7.4142 3.41421L7.25247 3.25245C6.8774 2.87738 6.36867 2.66667 5.83824 2.66667Z" stroke="var(--stroke-0, #A8A29E)" stroke-width="1.33333" stroke-linecap="round" stroke-linejoin="round"/>
<path id="Vector_2" d="M14 8.66667C14 7.56207 13.1046 6.66667 12 6.66667H4C2.89543 6.66667 2 7.56207 2 8.66667" stroke="var(--stroke-0, #A8A29E)" stroke-width="1.33333" stroke-linecap="round" stroke-linejoin="round"/>
</g>
</svg>
