<svg width="16" height="16" viewBox="0 0 16 16" fill="none" xmlns="http://www.w3.org/2000/svg">
<path d="M13 2.99997C12.4477 2.44771 11.5523 2.44771 11 2.99999L8.5858 5.41421C8.21073 5.78929 8 6.29799 8 6.8284V8H9.17153C9.702 8 10.2107 7.78933 10.5858 7.4142L13 4.99997C13.5523 4.44768 13.5523 3.55225 13 2.99997Z" stroke="#000000" stroke-width="1.33333" stroke-linecap="round" stroke-linejoin="round"/>
<path d="M5.33333 8H4C3.26362 8 2.66667 8.59693 2.66667 9.33333C2.66667 10.0697 3.26362 10.6667 4 10.6667H10.6667C11.4031 10.6667 12 11.2636 12 12C12 12.7364 11.4031 13.3333 10.6667 13.3333H8" stroke="#000000" stroke-width="1.33333" stroke-linecap="round" stroke-linejoin="round"/>
</svg>
