<svg width="14" height="14" viewBox="0 0 14 14" fill="none" xmlns="http://www.w3.org/2000/svg">
<g id="IconNumber3Circle">
<path id="Vector" d="M7 12.25C9.8995 12.25 12.25 9.8995 12.25 7C12.25 4.1005 9.8995 1.75 7 1.75C4.1005 1.75 1.75 4.1005 1.75 7C1.75 9.8995 4.1005 12.25 7 12.25Z" stroke="currentColor" stroke-width="1.16667"/>
<path id="Vector_2" d="M6.96926 9.58913C5.9199 9.58913 5.31836 9.11062 5.12011 8.63211C5.0791 8.53639 5.05859 8.43384 5.05859 8.34499C5.05859 8.03052 5.26709 7.8323 5.60888 7.8323C5.84815 7.8323 6.00197 7.9177 6.125 8.11598C6.30612 8.42357 6.52831 8.60475 6.99656 8.60475C7.42723 8.60475 7.728 8.35182 7.728 7.99634C7.728 7.58275 7.42041 7.36062 6.87353 7.36062H6.75389C6.45656 7.36062 6.2993 7.1897 6.2993 6.93333C6.2993 6.68384 6.45656 6.50954 6.75389 6.50954H6.86671C7.34866 6.50954 7.6426 6.27369 7.6426 5.91477C7.6426 5.56616 7.39649 5.34399 6.96926 5.34399C6.61721 5.34399 6.3882 5.48755 6.23781 5.78149C6.09764 6.04468 5.94726 6.14379 5.67041 6.14379C5.32861 6.14379 5.1543 5.93874 5.1543 5.65162C5.1543 5.54566 5.17138 5.46021 5.21582 5.35425C5.41064 4.87574 5.99171 4.41089 6.96237 4.41089C8.03565 4.41089 8.8081 4.89966 8.8081 5.73706C8.8081 6.36936 8.35012 6.77274 7.78616 6.88549V6.90941C8.53125 6.9846 9.00293 7.40501 9.00293 8.07153C9.00293 8.99436 8.20656 9.58913 6.96926 9.58913Z" fill="currentColor"/>
</g>
</svg>
