<svg viewBox="0 0 15 15" fill="none" xmlns="http://www.w3.org/2000/svg">
<g id="IconCmdBox">
<path id="Vector" d="M11.875 5.5V9.5H13.125V5.5H11.875ZM9.5 11.875H5.5V13.125H9.5V11.875ZM3.125 9.5V5.5H1.875V9.5H3.125ZM5.5 3.125H9.5V1.875H5.5V3.125ZM5.5 11.875C4.96464 11.875 4.60071 11.8745 4.3194 11.8515C4.04539 11.8291 3.90526 11.7886 3.80751 11.7387L3.24003 12.8525C3.54336 13.0071 3.8663 13.0687 4.21761 13.0974C4.56162 13.1255 4.98526 13.125 5.5 13.125V11.875ZM1.875 9.5C1.875 10.0147 1.87451 10.4384 1.90262 10.7824C1.93132 11.1337 1.99292 11.4566 2.14748 11.76L3.26124 11.1925C3.21144 11.0948 3.17086 10.9546 3.14847 10.6806C3.12549 10.3993 3.125 10.0354 3.125 9.5H1.875ZM3.80751 11.7387C3.57231 11.6189 3.38108 11.4277 3.26124 11.1925L2.14748 11.76C2.38717 12.2304 2.76962 12.6128 3.24003 12.8525L3.80751 11.7387ZM11.875 9.5C11.875 10.0354 11.8745 10.3993 11.8515 10.6806C11.8291 10.9546 11.7886 11.0948 11.7387 11.1925L12.8525 11.76C13.0071 11.4566 13.0687 11.1337 13.0974 10.7824C13.1255 10.4384 13.125 10.0147 13.125 9.5H11.875ZM9.5 13.125C10.0147 13.125 10.4384 13.1255 10.7824 13.0974C11.1337 13.0687 11.4566 13.0071 11.76 12.8525L11.1925 11.7387C11.0948 11.7886 10.9546 11.8291 10.6806 11.8515C10.3993 11.8745 10.0354 11.875 9.5 11.875V13.125ZM11.7387 11.1925C11.6189 11.4277 11.4277 11.6189 11.1925 11.7387L11.76 12.8525C12.2304 12.6128 12.6128 12.2304 12.8525 11.76L11.7387 11.1925ZM13.125 5.5C13.125 4.98526 13.1255 4.56162 13.0974 4.21761C13.0687 3.8663 13.0071 3.54336 12.8525 3.24003L11.7387 3.80751C11.7886 3.90526 11.8291 4.04539 11.8515 4.3194C11.8745 4.60071 11.875 4.96464 11.875 5.5H13.125ZM9.5 3.125C10.0354 3.125 10.3993 3.12549 10.6806 3.14847C10.9546 3.17086 11.0948 3.21144 11.1925 3.26124L11.76 2.14748C11.4566 1.99292 11.1337 1.93132 10.7824 1.90262C10.4384 1.87451 10.0147 1.875 9.5 1.875V3.125ZM12.8525 3.24003C12.6128 2.76962 12.2304 2.38717 11.76 2.14748L11.1925 3.26124C11.4277 3.38108 11.6189 3.57231 11.7387 3.80751L12.8525 3.24003ZM3.125 5.5C3.125 4.96464 3.12549 4.60071 3.14847 4.3194C3.17086 4.04539 3.21144 3.90526 3.26124 3.80751L2.14748 3.24003C1.99292 3.54336 1.93132 3.8663 1.90262 4.21761C1.87451 4.56162 1.875 4.98526 1.875 5.5H3.125ZM5.5 1.875C4.98526 1.875 4.56162 1.87451 4.21761 1.90262C3.8663 1.93132 3.54336 1.99292 3.24003 2.14748L3.80751 3.26124C3.90526 3.21144 4.04539 3.17086 4.3194 3.14847C4.60071 3.12549 4.96464 3.125 5.5 3.125V1.875ZM3.26124 3.80751C3.38108 3.57231 3.57231 3.38108 3.80751 3.26124L3.24003 2.14748C2.76962 2.38717 2.38717 2.76962 2.14748 3.24003L3.26124 3.80751ZM6.875 6.25V5.3125H5.625V6.25H6.875ZM5.3125 6.875H6.25V5.625H5.3125V6.875ZM9.375 6.25V5.3125H8.125V6.25H9.375ZM9.6875 5.625H8.75V6.875H9.6875V5.625ZM6.25 6.875H8.75V5.625H6.25V6.875ZM8.75 8.125H6.25V9.375H8.75V8.125ZM6.875 8.75V6.25H5.625V8.75H6.875ZM8.125 6.25V8.75H9.375V6.25H8.125ZM9.375 9.6875V8.75H8.125V9.6875H9.375ZM6.875 9.6875V8.75H5.625V9.6875H6.875ZM6.25 8.125H5.3125V9.375H6.25V8.125ZM8.75 9.375H9.6875V8.125H8.75V9.375ZM5 9.6875C5 9.51494 5.13991 9.375 5.3125 9.375V8.125C4.44956 8.125 3.75 8.82456 3.75 9.6875H5ZM11.25 9.6875C11.25 8.82456 10.5504 8.125 9.6875 8.125V9.375C9.86006 9.375 10 9.51494 10 9.6875H11.25ZM8.125 9.6875C8.125 10.5504 8.82456 11.25 9.6875 11.25V10C9.51494 10 9.375 9.86006 9.375 9.6875H8.125ZM10 5.3125C10 5.48509 9.86006 5.625 9.6875 5.625V6.875C10.5504 6.875 11.25 6.17544 11.25 5.3125H10ZM9.375 5.3125C9.375 5.13991 9.51494 5 9.6875 5V3.75C8.82456 3.75 8.125 4.44956 8.125 5.3125H9.375ZM5.3125 11.25C6.17544 11.25 6.875 10.5504 6.875 9.6875H5.625C5.625 9.86006 5.48509 10 5.3125 10V11.25ZM3.75 5.3125C3.75 6.17544 4.44956 6.875 5.3125 6.875V5.625C5.13991 5.625 5 5.48509 5 5.3125H3.75ZM5.3125 10C5.13991 10 5 9.86006 5 9.6875H3.75C3.75 10.5504 4.44956 11.25 5.3125 11.25V10ZM5.3125 3.75C4.44956 3.75 3.75 4.44956 3.75 5.3125H5C5 5.13991 5.13991 5 5.3125 5V3.75ZM9.6875 5C9.86006 5 10 5.13991 10 5.3125H11.25C11.25 4.44956 10.5504 3.75 9.6875 3.75V5ZM10 9.6875C10 9.86006 9.86006 10 9.6875 10V11.25C10.5504 11.25 11.25 10.5504 11.25 9.6875H10ZM6.875 5.3125C6.875 4.44956 6.17544 3.75 5.3125 3.75V5C5.48509 5 5.625 5.13991 5.625 5.3125H6.875Z" fill="black"/>
</g>
</svg>
