<svg width="16" height="16" viewBox="0 0 16 16" fill="none" xmlns="http://www.w3.org/2000/svg">
<path d="M6 2H4C2.89543 2 2 2.89543 2 4V11C2 12.6569 3.34315 14 5 14C6.65685 14 8 12.6569 8 11V4C8 2.89543 7.1046 2 6 2Z" stroke="#57534E" stroke-width="1.5" stroke-linecap="round" stroke-linejoin="round"/>
<path d="M7.59766 12.5001L11.0977 6.43791C11.6499 5.48133 11.3222 4.25815 10.3656 3.70586L8.33332 2.53253" stroke="#57534E" stroke-width="1.5" stroke-linecap="round" stroke-linejoin="round"/>
<path d="M6.66675 13.5L12.5603 10.0979C13.5169 9.54571 13.8447 8.32245 13.2925 7.36578L12.119 5.33331" stroke="#57534E" stroke-width="1.5" stroke-linecap="round" stroke-linejoin="round"/>
<path d="M6 11C6 11.5523 5.55229 12 5 12C4.44771 12 4 11.5523 4 11C4 10.4477 4.44771 10 5 10C5.55229 10 6 10.4477 6 11Z" fill="#57534E"/>
</svg>
