<svg width="18" height="18" viewBox="0 0 18 18" fill="none" xmlns="http://www.w3.org/2000/svg">
<g id="IconLetterACircle">
<path id="Vector" d="M9 15.75C12.7279 15.75 15.75 12.7279 15.75 9C15.75 5.27208 12.7279 2.25 9 2.25C5.27208 2.25 2.25 5.27208 2.25 9C2.25 12.7279 5.27208 15.75 9 15.75Z" stroke="currentColor" stroke-width="1.5"/>
<path id="Vector_2" d="M6.86279 12.0967C6.35302 12.0967 6.04102 11.8066 6.04102 11.3276C6.04102 11.1914 6.08496 10.9936 6.15527 10.8003L7.71975 6.50244C7.95262 5.85644 8.34375 5.56201 8.97217 5.56201C9.63577 5.56201 10.0225 5.84326 10.2641 6.50244L11.8418 10.8003C11.9165 11.0068 11.9473 11.1562 11.9473 11.3233C11.9473 11.7759 11.6089 12.0967 11.1387 12.0967C10.6729 12.0967 10.4311 11.8858 10.2905 11.3671L10.0752 10.6641H7.90432L7.689 11.3408C7.53517 11.8769 7.29346 12.0967 6.86279 12.0967ZM8.2251 9.44677H9.7236L8.98095 7.00341H8.94577L8.2251 9.44677Z" fill="currentColor"/>
</g>
</svg>
