<svg width="16" height="16" viewBox="0 0 16 16" fill="none" xmlns="http://www.w3.org/2000/svg">
<path d="M7.02 2.55153C7.6288 2.20907 8.3722 2.20907 8.981 2.55153L12.3144 4.42651C12.9441 4.78075 13.3339 5.44711 13.3339 6.16967V9.83027C13.3339 10.5528 12.9441 11.2192 12.3143 11.5734L8.981 13.4484C8.3722 13.7909 7.6288 13.7909 7.02 13.4484L3.68672 11.5736C3.05693 11.2194 2.66718 10.553 2.66718 9.8304V6.16965C2.66718 5.4471 3.05691 4.78073 3.68667 4.42649L7.02 2.55153Z" stroke="currentColor" stroke-width="1.33333" stroke-linecap="square" stroke-linejoin="round"/>
<path d="M12.3139 4.4265L8.98053 2.55152C8.37167 2.20907 7.62833 2.20907 7.01947 2.55152L3.68616 4.42649C3.05639 4.78072 2.66667 5.44709 2.66667 6.16965V9.8304C2.66667 10.553 3.05642 11.2194 3.68621 11.5736L7.01953 13.4484C7.62833 13.7909 8.37167 13.7909 8.98047 13.4484L12.3139 11.5734C12.9436 11.2192 13.3333 10.5528 13.3333 9.83027V6.16966C13.3333 5.44711 12.9436 4.78074 12.3139 4.4265Z" stroke="currentColor" stroke-width="1.33333" stroke-linecap="square" stroke-linejoin="round"/>
<path d="M8 10C9.1046 10 10 9.1046 10 8C10 6.8954 9.1046 6 8 6C6.8954 6 6 6.8954 6 8C6 9.1046 6.8954 10 8 10Z" stroke="currentColor" stroke-width="1.33333" stroke-linecap="square" stroke-linejoin="round"/>
</svg>
