<svg width="18" height="18" viewBox="0 0 18 18" fill="none" xmlns="http://www.w3.org/2000/svg">
<path fill-rule="evenodd" clip-rule="evenodd" d="M1.5 9C1.5 4.85786 4.85786 1.5 9 1.5C13.1421 1.5 16.5 4.85786 16.5 9C16.5 13.1421 13.1421 16.5 9 16.5C4.85786 16.5 1.5 13.1421 1.5 9ZM6.16475 7.85227L8.60227 5.41475C8.82195 5.19508 9.17805 5.19508 9.39772 5.41475L11.8352 7.85227C12.0549 8.07195 12.0549 8.42805 11.8352 8.64772C11.6155 8.8674 11.2594 8.8674 11.0398 8.64772L9.5625 7.1705V12.1875C9.5625 12.4981 9.31065 12.75 9 12.75C8.68935 12.75 8.4375 12.4981 8.4375 12.1875V7.1705L6.96025 8.64772C6.74058 8.8674 6.38442 8.8674 6.16475 8.64772C5.94509 8.42805 5.94509 8.07195 6.16475 7.85227Z" fill="#3B82F6"/>
</svg>
