<svg width="267" height="4" viewBox="0 0 267.222 3.93709" fill="none" xmlns="http://www.w3.org/2000/svg">
<path id="Line 1" d="M0.159202 1.94548L0.318403 1.63378L0.24341 1.59548H0.159202V1.94548ZM6.22949 3.41223L6.20127 3.06337L6.22949 3.41223ZM7.52491 2.8895L7.31926 2.6063L7.52491 2.8895ZM24.5699 2.05683L24.4673 1.7222L24.5699 2.05683ZM27.9789 1.55274L27.8154 1.8622L27.9789 1.55274ZM34.7969 1.44821L34.6951 1.78309L34.7969 1.44821ZM36.9105 2.0905L37.0123 1.75562L36.9105 2.0905ZM38.2059 1.99947L38.0638 1.67963L38.2059 1.99947ZM40.3195 1.06015L40.4616 1.37998L40.3195 1.06015ZM41.6149 0.805705L41.5969 1.15524L41.6149 0.805705ZM43.7285 0.914739L43.7105 1.26427L43.7285 0.914739ZM47.1375 0.972364L47.1344 1.32235L47.1375 0.972364ZM50.5465 1.78937L50.4478 2.12517L50.5465 1.78937ZM53.9555 3.20324L53.8137 3.52323V3.52323L53.9555 3.20324ZM57.3645 3.55497L57.3563 3.90487L57.3645 3.55497ZM60.7735 3.03461L60.7069 2.69101L60.7735 3.03461ZM62.0689 2.45544L61.8682 2.16874L62.0689 2.45544ZM64.1825 0.975428L64.3832 1.26213L64.1825 0.975428ZM65.4779 0.643746L65.5426 0.299781L65.4779 0.643746ZM67.5915 1.04142L67.5268 1.38539L67.5915 1.04142ZM74.4095 2.42926L74.2663 2.74862L74.4095 2.42926ZM79.1139 2.18913L79.0915 2.53842L79.1139 2.18913ZM82.5229 2.01965L82.6881 2.3282L82.5229 2.01965ZM84.6365 0.88794L84.4713 0.579387L84.6365 0.88794ZM85.9319 0.673642L85.8618 1.01654L85.9319 0.673642ZM88.0455 1.10606L88.1156 0.763163L88.0455 1.10606ZM89.3409 1.63646L89.5241 1.33824L89.3409 1.63646ZM90.3977 2.28564L90.2145 2.58387L90.3977 2.28564ZM91.4545 2.93483L91.2713 3.23305L91.4545 2.93483ZM92.7499 3.25608L92.7088 2.90851L92.7499 3.25608ZM94.8635 3.00603L94.9046 3.35361L94.8635 3.00603ZM96.1589 2.56697L96.3298 2.87241L96.1589 2.56697ZM98.2725 1.3843L98.1016 1.07887L98.2725 1.3843ZM99.5679 1.40327L99.3903 1.70487L99.5679 1.40327ZM101.681 2.64784L101.859 2.34624L101.681 2.64784ZM105.09 3.11617L105.079 3.466L105.09 3.11617ZM106.386 2.79785L106.224 2.4877V2.4877L106.386 2.79785ZM107.443 2.24521L107.605 2.55536L107.443 2.24521ZM108.499 1.69257L108.337 1.38242L108.499 1.69257ZM116.613 1.79712L116.428 2.09442L116.613 1.79712ZM126.84 0.716467L126.637 1.00148L126.84 0.716467ZM128.953 2.2229L129.157 1.93788L128.953 2.2229ZM130.249 2.64273L130.271 2.992L130.249 2.64273ZM132.363 2.50628L132.34 2.157L132.363 2.50628ZM133.658 2.41524L133.631 2.06624L133.658 2.41524ZM135.771 2.25461L135.798 2.6036L135.771 2.25461ZM143.885 1.42029L143.805 1.07945L143.885 1.42029ZM145.998 0.927033L146.078 1.26787L145.998 0.927033ZM147.294 0.706069L147.331 1.05405L147.294 0.706069ZM148.351 0.592181L148.313 0.244196L148.351 0.592181ZM149.407 0.478293L149.37 0.130308L149.407 0.478293ZM154.112 0.885396L154.064 0.538669L154.112 0.885396ZM156.225 0.594267L156.178 0.247541L156.225 0.594267ZM157.521 0.745299L157.399 1.07345L157.521 0.745299ZM158.578 1.13728L158.456 1.46544L158.578 1.13728ZM159.634 1.52927L159.756 1.20111L159.634 1.52927ZM161.987 1.97056L162.028 1.62297L161.987 1.97056ZM163.043 2.09521L163.084 1.74762L163.043 2.09521ZM164.339 2.11217L164.371 2.46071L164.339 2.11217ZM166.452 1.9182L166.42 1.56966L166.452 1.9182ZM171.157 2.19042L170.994 2.50021L171.157 2.19042ZM173.27 3.30158L173.433 2.99179L173.27 3.30158ZM177.975 1.04466L178.185 0.764676L177.975 1.04466ZM180.088 2.63004L179.878 2.91002L180.088 2.63004ZM184.793 1.42596L184.586 1.70833L184.793 1.42596ZM185.85 2.19994L185.643 2.48231L185.85 2.19994ZM186.906 2.97392L187.113 2.69155L186.906 2.97392ZM193.724 0.706917L193.56 0.397894L193.724 0.706917ZM195.02 0.900194L195.243 0.630899L195.02 0.900194ZM196.077 1.77752L195.853 2.04682L196.077 1.77752ZM197.133 2.65485L196.91 2.92414L197.133 2.65485ZM198.429 3.20987L198.42 3.55974L198.429 3.20987ZM201.838 2.87646L202.024 3.17277L201.838 2.87646ZM203.951 1.54781L203.765 1.25149L203.951 1.54781ZM208.656 1.70836L208.551 2.04228V2.04228L208.656 1.70836ZM209.713 2.04022L209.818 1.70629L209.713 2.04022ZM210.769 2.37207L210.665 2.706L210.769 2.37207ZM212.065 2.47006L212.009 2.12461L212.065 2.47006ZM213.122 2.29809L213.178 2.64354L213.122 2.29809ZM214.178 2.12611L214.122 1.78065L214.178 2.12611ZM235.928 1.46565L235.72 1.74727L235.928 1.46565ZM240.394 3.21257L240.335 2.86756L240.394 3.21257ZM242.746 2.57346L242.58 2.2652L242.746 2.57346ZM250.621 1.75671L250.563 2.10199L250.621 1.75671ZM252.973 1.87205L252.885 1.53321L252.973 1.87205ZM255.086 1.32511L255.174 1.66395L255.086 1.32511ZM259.791 0.687487L259.685 1.02098L259.791 0.687487ZM261.904 1.36058L261.798 1.69407L261.904 1.36058ZM263.2 1.44432L263.265 1.78822L263.2 1.44432ZM265.314 1.0445L265.248 0.700601L265.314 1.0445ZM266.17 1.11644L266.408 0.860422L266.17 1.11644ZM266.51 1.43373L266.773 1.2029L266.762 1.18969L266.749 1.17771L266.51 1.43373ZM266.959 1.94548L266.696 2.1763L266.801 2.29548H266.959V1.94548ZM0.0592016 1.94548V2.29548H0.159202V1.94548V1.59548H0.0592016V1.94548ZM0.159202 1.94548L0 2.25717L2.05158 3.30503L2.21078 2.99334L2.36998 2.68164L0.318403 1.63378L0.159202 1.94548ZM2.21078 2.99334L2.05158 3.30503C2.89431 3.73546 3.60647 3.97553 4.14413 3.93205L4.11591 3.58318L4.08769 3.23432C3.76174 3.26069 3.20381 3.10752 2.36998 2.68164L2.21078 2.99334ZM4.11591 3.58318L4.14413 3.93205L5.20092 3.84657L5.1727 3.49771L5.14448 3.14885L4.08769 3.23432L4.11591 3.58318ZM5.1727 3.49771L5.20092 3.84657L6.25771 3.76109L6.22949 3.41223L6.20127 3.06337L5.14448 3.14885L5.1727 3.49771ZM6.22949 3.41223L6.25771 3.76109C6.76692 3.71991 7.25879 3.5153 7.73056 3.17271L7.52491 2.8895L7.31926 2.6063C6.92742 2.89083 6.55568 3.03471 6.20127 3.06337L6.22949 3.41223ZM7.52491 2.8895L7.73056 3.17271L8.78735 2.40532L8.5817 2.12211L8.37605 1.8389L7.31926 2.6063L7.52491 2.8895ZM8.5817 2.12211L8.78735 2.40532L9.84414 1.63793L9.63849 1.35472L9.43284 1.07151L8.37605 1.8389L8.5817 2.12211ZM9.63849 1.35472L9.84414 1.63793C10.0127 1.51553 10.1547 1.47476 10.277 1.47799C10.4002 1.48125 10.546 1.53044 10.7188 1.66507L10.9339 1.38896L11.149 1.11285C10.89 0.911094 10.604 0.786386 10.2954 0.778231C9.98585 0.770048 9.69609 0.880349 9.43284 1.07151L9.63849 1.35472ZM10.9339 1.38896L10.7188 1.66507L11.7756 2.48832L11.9907 2.21222L12.2058 1.93611L11.149 1.11285L10.9339 1.38896ZM11.9907 2.21222L11.7756 2.48832L12.8324 3.31158L13.0475 3.03548L13.2626 2.75937L12.2058 1.93611L11.9907 2.21222ZM13.0475 3.03548L12.8324 3.31158C13.3117 3.68494 13.8225 3.88514 14.3572 3.86328L14.3429 3.51357L14.3286 3.16386C13.9997 3.17731 13.6469 3.05878 13.2626 2.75937L13.0475 3.03548ZM14.3429 3.51357L14.3572 3.86328L15.414 3.82007L15.3997 3.47037L15.3854 3.12066L14.3286 3.16386L14.3429 3.51357ZM15.3997 3.47037L15.414 3.82007L16.4708 3.77687L16.4565 3.42716L16.4422 3.07745L15.3854 3.12066L15.3997 3.47037ZM16.4565 3.42716L16.4708 3.77687C16.9004 3.7593 17.3301 3.74571 17.7597 3.73609L17.7519 3.38618L17.7441 3.03627C17.3101 3.04598 16.8762 3.05971 16.4422 3.07745L16.4565 3.42716ZM17.7519 3.38618L17.7597 3.73609L18.8165 3.71243L18.8087 3.36252L18.8009 3.01261L17.7441 3.03627L17.7519 3.38618ZM18.8087 3.36252L18.8165 3.71243L19.8733 3.68877L19.8655 3.33886L19.8577 2.98895L18.8009 3.01261L18.8087 3.36252ZM19.8655 3.33886L19.8733 3.68877C20.3396 3.67833 20.8039 3.59999 21.2656 3.45521L21.1609 3.12125L21.0562 2.78728C20.6543 2.91332 20.255 2.98005 19.8577 2.98895L19.8655 3.33886ZM21.1609 3.12125L21.2656 3.45521L22.3224 3.12382L22.2177 2.78986L22.113 2.45589L21.0562 2.78728L21.1609 3.12125ZM22.2177 2.78986L22.3224 3.12382L23.3792 2.79243L23.2745 2.45846L23.1698 2.1245L22.113 2.45589L22.2177 2.78986ZM23.2745 2.45846L23.3792 2.79243C23.8103 2.65725 24.2414 2.52359 24.6725 2.39147L24.5699 2.05683L24.4673 1.7222C24.0348 1.85476 23.6023 1.98887 23.1698 2.1245L23.2745 2.45846ZM24.5699 2.05683L24.6725 2.39147L25.7293 2.06756L25.6267 1.73293L25.5241 1.39829L24.4673 1.7222L24.5699 2.05683ZM25.6267 1.73293L25.7293 2.06756L26.7861 1.74366L26.6835 1.40903L26.5809 1.07439L25.5241 1.39829L25.6267 1.73293ZM26.6835 1.40903L26.7861 1.74366C27.1217 1.64079 27.4581 1.67342 27.8154 1.8622L27.9789 1.55274L28.1424 1.24328C27.6361 0.97575 27.1089 0.912566 26.5809 1.07439L26.6835 1.40903ZM27.9789 1.55274L27.8154 1.8622L28.8722 2.42059L29.0357 2.11113L29.1992 1.80167L28.1424 1.24328L27.9789 1.55274ZM29.0357 2.11113L28.8722 2.42059L29.929 2.97898L30.0925 2.66952L30.256 2.36006L29.1992 1.80167L29.0357 2.11113ZM30.0925 2.66952L29.929 2.97898C30.4615 3.26033 31.0143 3.26412 31.5485 2.98827L31.3879 2.67728L31.2273 2.3663C30.8979 2.53642 30.5871 2.53502 30.256 2.36006L30.0925 2.66952ZM31.3879 2.67728L31.5485 2.98827L32.6053 2.44255L32.4447 2.13157L32.2841 1.82058L31.2273 2.3663L31.3879 2.67728ZM32.4447 2.13157L32.6053 2.44255L33.6621 1.89684L33.5015 1.58585L33.3409 1.27487L32.2841 1.82058L32.4447 2.13157ZM33.5015 1.58585L33.6621 1.89684C34.0197 1.71215 34.3577 1.68054 34.6951 1.78309L34.7969 1.44821L34.8987 1.11333C34.3725 0.953445 33.8469 1.0136 33.3409 1.27487L33.5015 1.58585ZM34.7969 1.44821L34.6951 1.78309L35.7519 2.10423L35.8537 1.76935L35.9555 1.43447L34.8987 1.11333L34.7969 1.44821ZM35.8537 1.76935L35.7519 2.10423L36.8087 2.42538L36.9105 2.0905L37.0123 1.75562L35.9555 1.43447L35.8537 1.76935ZM36.9105 2.0905L36.8087 2.42538C37.325 2.58227 37.8433 2.54362 38.3481 2.31931L38.2059 1.99947L38.0638 1.67963C37.7049 1.83913 37.3596 1.86116 37.0123 1.75562L36.9105 2.0905ZM38.2059 1.99947L38.3481 2.31931L39.4048 1.84965L39.2627 1.52981L39.1206 1.20997L38.0638 1.67963L38.2059 1.99947ZM39.2627 1.52981L39.4048 1.84965L40.4616 1.37998L40.3195 1.06015L40.1773 0.740312L39.1206 1.20997L39.2627 1.52981ZM40.3195 1.06015L40.4616 1.37998C40.8479 1.20833 41.225 1.13606 41.5969 1.15524L41.6149 0.805705L41.6329 0.45617C41.1412 0.430801 40.6547 0.528162 40.1773 0.740312L40.3195 1.06015ZM41.6149 0.805705L41.5969 1.15524L42.6537 1.20976L42.6717 0.860222L42.6897 0.510687L41.6329 0.45617L41.6149 0.805705ZM42.6717 0.860222L42.6537 1.20976L43.7105 1.26427L43.7285 0.914739L43.7465 0.565204L42.6897 0.510687L42.6717 0.860222ZM43.7285 0.914739L43.7105 1.26427C44.1472 1.28681 44.584 1.29999 45.0208 1.30382L45.0239 0.953832L45.027 0.603845C44.6002 0.600103 44.1733 0.587223 43.7465 0.565204L43.7285 0.914739ZM45.0239 0.953832L45.0208 1.30382L46.0776 1.31308L46.0807 0.963098L46.0838 0.613112L45.027 0.603845L45.0239 0.953832ZM46.0807 0.963098L46.0776 1.31308L47.1344 1.32235L47.1375 0.972364L47.1406 0.622378L46.0838 0.613112L46.0807 0.963098ZM47.1375 0.972364L47.1344 1.32235C47.5325 1.32584 47.9322 1.38602 48.3342 1.50416L48.4329 1.16835L48.5316 0.832549C48.07 0.696937 47.6061 0.62646 47.1406 0.622378L47.1375 0.972364ZM48.4329 1.16835L48.3342 1.50416L49.391 1.81467L49.4897 1.47886L49.5884 1.14306L48.5316 0.832549L48.4329 1.16835ZM49.4897 1.47886L49.391 1.81467L50.4478 2.12517L50.5465 1.78937L50.6452 1.45356L49.5884 1.14306L49.4897 1.47886ZM50.5465 1.78937L50.4478 2.12517C50.8642 2.24752 51.2816 2.40124 51.7001 2.58668L51.8419 2.26669L51.9837 1.94669C51.5386 1.74945 51.0924 1.58496 50.6452 1.45356L50.5465 1.78937ZM51.8419 2.26669L51.7001 2.58668L52.7569 3.05496L52.8987 2.73496L53.0405 2.41497L51.9837 1.94669L51.8419 2.26669ZM52.8987 2.73496L52.7569 3.05496L53.8137 3.52323L53.9555 3.20324L54.0973 2.88325L53.0405 2.41497L52.8987 2.73496ZM53.9555 3.20324L53.8137 3.52323C54.2837 3.73148 54.7607 3.84404 55.2427 3.85533L55.2509 3.50543L55.2591 3.15553C54.8775 3.14658 54.4909 3.05768 54.0973 2.88325L53.9555 3.20324ZM55.2509 3.50543L55.2427 3.85533L56.2995 3.8801L56.3077 3.5302L56.3159 3.18029L55.2591 3.15553L55.2509 3.50543ZM56.3077 3.5302L56.2995 3.8801L57.3563 3.90487L57.3645 3.55497L57.3727 3.20506L56.3159 3.18029L56.3077 3.5302ZM57.3645 3.55497L57.3563 3.90487C57.8137 3.91559 58.2705 3.87656 58.7265 3.78813L58.6599 3.44453L58.5933 3.10093C58.1857 3.17999 57.7789 3.21459 57.3727 3.20506L57.3645 3.55497ZM58.6599 3.44453L58.7265 3.78813L59.7833 3.58317L59.7167 3.23957L59.6501 2.89597L58.5933 3.10093L58.6599 3.44453ZM59.7167 3.23957L59.7833 3.58317L60.8401 3.37821L60.7735 3.03461L60.7069 2.69101L59.6501 2.89597L59.7167 3.23957ZM60.7735 3.03461L60.8401 3.37821C61.3287 3.28344 61.8055 3.06717 62.2697 2.74214L62.0689 2.45544L61.8682 2.16874C61.4687 2.44843 61.0819 2.61828 60.7069 2.69101L60.7735 3.03461ZM62.0689 2.45544L62.2697 2.74214L63.3265 2.00213L63.1257 1.71543L62.9249 1.42873L61.8682 2.16874L62.0689 2.45544ZM63.1257 1.71543L63.3265 2.00213L64.3832 1.26213L64.1825 0.975428L63.9817 0.688729L62.9249 1.42873L63.1257 1.71543ZM64.1825 0.975428L64.3832 1.26213C64.7544 1.00221 65.0921 0.9273 65.4132 0.98771L65.4779 0.643746L65.5426 0.299781C65.0001 0.1977 64.4742 0.343915 63.9817 0.688729L64.1825 0.975428ZM65.4779 0.643746L65.4132 0.98771L66.47 1.18655L66.5347 0.842585L66.5994 0.49862L65.5426 0.299781L65.4779 0.643746ZM66.5347 0.842585L66.47 1.18655L67.5268 1.38539L67.5915 1.04142L67.6562 0.697459L66.5994 0.49862L66.5347 0.842585ZM67.5915 1.04142L67.5268 1.38539C67.9786 1.47041 68.4311 1.51485 68.8841 1.51851L68.8869 1.16852L68.8897 0.818531C68.4791 0.815217 68.068 0.774932 67.6562 0.697459L67.5915 1.04142ZM68.8869 1.16852L68.8841 1.51851L69.9409 1.52704L69.9437 1.17705L69.9465 0.827059L68.8897 0.818531L68.8869 1.16852ZM69.9437 1.17705L69.9409 1.52704L70.9977 1.53556L71.0005 1.18558L71.0033 0.835587L69.9465 0.827059L69.9437 1.17705ZM71.0005 1.18558L70.9977 1.53556C71.3766 1.53862 71.7608 1.62489 72.1527 1.80066L72.2959 1.48131L72.4391 1.16196C71.9674 0.950388 71.488 0.839499 71.0033 0.835587L71.0005 1.18558ZM72.2959 1.48131L72.1527 1.80066L73.2095 2.27464L73.3527 1.95529L73.4959 1.63593L72.4391 1.16196L72.2959 1.48131ZM73.3527 1.95529L73.2095 2.27464L74.2663 2.74862L74.4095 2.42926L74.5527 2.10991L73.4959 1.63593L73.3527 1.95529ZM74.4095 2.42926L74.2663 2.74862C74.7558 2.96817 75.2574 3.04107 75.7629 2.95622L75.7049 2.61104L75.647 2.26587C75.2888 2.32599 74.9268 2.2777 74.5527 2.10991L74.4095 2.42926ZM75.7049 2.61104L75.7629 2.95622L76.8196 2.77883L76.7617 2.43365L76.7038 2.08848L75.647 2.26587L75.7049 2.61104ZM76.7617 2.43365L76.8196 2.77883L77.8764 2.60143L77.8185 2.25626L77.7606 1.91109L76.7038 2.08848L76.7617 2.43365ZM77.8185 2.25626L77.8764 2.60143C78.282 2.53335 78.6869 2.51243 79.0915 2.53842L79.1139 2.18913L79.1363 1.83985C78.6774 1.81038 78.2186 1.83421 77.7606 1.91109L77.8185 2.25626ZM79.1139 2.18913L79.0915 2.53842L80.1483 2.60628L80.1707 2.257L80.1931 1.90772L79.1363 1.83985L79.1139 2.18913ZM80.1707 2.257L80.1483 2.60628L81.2051 2.67414L81.2275 2.32486L81.2499 1.97558L80.1931 1.90772L80.1707 2.257ZM81.2275 2.32486L81.2051 2.67414C81.7103 2.70659 82.2066 2.58604 82.6881 2.3282L82.5229 2.01965L82.3577 1.71109C81.9756 1.91567 81.6083 1.9986 81.2499 1.97558L81.2275 2.32486ZM82.5229 2.01965L82.6881 2.3282L83.7449 1.76235L83.5797 1.45379L83.4145 1.14524L82.3577 1.71109L82.5229 2.01965ZM83.5797 1.45379L83.7449 1.76235L84.8017 1.19649L84.6365 0.88794L84.4713 0.579387L83.4145 1.14524L83.5797 1.45379ZM84.6365 0.88794L84.8017 1.19649C85.17 0.999279 85.519 0.946419 85.8618 1.01654L85.9319 0.673642L86.0021 0.330745C85.4812 0.224178 84.9666 0.314183 84.4713 0.579387L84.6365 0.88794ZM85.9319 0.673642L85.8618 1.01654L86.9185 1.23275L86.9887 0.889851L87.0589 0.546954L86.0021 0.330745L85.9319 0.673642ZM86.9887 0.889851L86.9185 1.23275L87.9753 1.44896L88.0455 1.10606L88.1156 0.763163L87.0589 0.546954L86.9887 0.889851ZM88.0455 1.10606L87.9753 1.44896C88.3616 1.52799 88.7556 1.68765 89.1577 1.93469L89.3409 1.63646L89.5241 1.33824C89.0626 1.05476 88.5929 0.860816 88.1156 0.763163L88.0455 1.10606ZM89.3409 1.63646L89.1577 1.93469L90.2145 2.58387L90.3977 2.28564L90.5809 1.98742L89.5241 1.33824L89.3409 1.63646ZM90.3977 2.28564L90.2145 2.58387L91.2713 3.23305L91.4545 2.93483L91.6377 2.6366L90.5809 1.98742L90.3977 2.28564ZM91.4545 2.93483L91.2713 3.23305C91.7586 3.5324 92.2685 3.66548 92.791 3.60366L92.7499 3.25608L92.7088 2.90851C92.3677 2.94886 92.014 2.86777 91.6377 2.6366L91.4545 2.93483ZM92.7499 3.25608L92.791 3.60366L93.8478 3.47864L93.8067 3.13106L93.7656 2.78348L92.7088 2.90851L92.7499 3.25608ZM93.8067 3.13106L93.8478 3.47864L94.9046 3.35361L94.8635 3.00603L94.8224 2.65846L93.7656 2.78348L93.8067 3.13106ZM94.8635 3.00603L94.9046 3.35361C95.3879 3.29643 95.8634 3.13338 96.3298 2.87241L96.1589 2.56697L95.988 2.26154C95.5908 2.48381 95.2027 2.61346 94.8224 2.65846L94.8635 3.00603ZM96.1589 2.56697L96.3298 2.87241L97.3866 2.28107L97.2157 1.97564L97.0448 1.6702L95.988 2.26154L96.1589 2.56697ZM97.2157 1.97564L97.3866 2.28107L98.4434 1.68974L98.2725 1.3843L98.1016 1.07887L97.0448 1.6702L97.2157 1.97564ZM98.2725 1.3843L98.4434 1.68974C98.7649 1.50983 99.0641 1.51275 99.3903 1.70487L99.5679 1.40327L99.7455 1.10167C99.2082 0.785263 98.6437 0.775535 98.1016 1.07887L98.2725 1.3843ZM99.5679 1.40327L99.3903 1.70487L100.447 2.32715L100.625 2.02556L100.802 1.72396L99.7455 1.10167L99.5679 1.40327ZM100.625 2.02556L100.447 2.32715L101.504 2.94944L101.681 2.64784L101.859 2.34624L100.802 1.72396L100.625 2.02556ZM101.681 2.64784L101.504 2.94944C101.978 3.2287 102.467 3.38374 102.966 3.39946L102.977 3.04963L102.988 2.6998C102.624 2.68833 102.248 2.57551 101.859 2.34624L101.681 2.64784ZM102.977 3.04963L102.966 3.39946L104.023 3.43273L104.034 3.0829L104.045 2.73307L102.988 2.6998L102.977 3.04963ZM104.034 3.0829L104.023 3.43273L105.079 3.466L105.09 3.11617L105.102 2.76635L104.045 2.73307L104.034 3.0829ZM105.09 3.11617L105.079 3.466C105.579 3.48172 106.07 3.35808 106.548 3.108L106.386 2.79785L106.224 2.4877C105.838 2.68924 105.466 2.77781 105.102 2.76635L105.09 3.11617ZM106.386 2.79785L106.548 3.108L107.605 2.55536L107.443 2.24521L107.281 1.93506L106.224 2.4877L106.386 2.79785ZM107.443 2.24521L107.605 2.55536L108.662 2.00272L108.499 1.69257L108.337 1.38242L107.281 1.93506L107.443 2.24521ZM108.499 1.69257L108.662 2.00272C108.994 1.82903 109.306 1.82734 109.636 1.99526L109.795 1.6833L109.954 1.37133C109.42 1.1 108.869 1.10449 108.337 1.38242L108.499 1.69257ZM109.795 1.6833L109.636 1.99526L110.693 2.53278L110.852 2.22081L111.01 1.90885L109.954 1.37133L109.795 1.6833ZM110.852 2.22081L110.693 2.53278L111.75 3.07029L111.908 2.75832L112.067 2.44636L111.01 1.90885L110.852 2.22081ZM111.908 2.75832L111.75 3.07029C112.28 3.33981 112.828 3.34352 113.36 3.07956L113.204 2.76609L113.048 2.45262C112.716 2.61756 112.401 2.6161 112.067 2.44636L111.908 2.75832ZM113.204 2.76609L113.36 3.07956L114.416 2.55473L114.261 2.24126L114.105 1.92779L113.048 2.45262L113.204 2.76609ZM114.261 2.24126L114.416 2.55473L115.473 2.02989L115.317 1.71642L115.162 1.40295L114.105 1.92779L114.261 2.24126ZM115.317 1.71642L115.473 2.02989C115.789 1.87283 116.093 1.88595 116.428 2.09442L116.613 1.79712L116.798 1.49982C116.27 1.1718 115.709 1.13111 115.162 1.40295L115.317 1.71642ZM116.613 1.79712L116.428 2.09442L117.485 2.75093L117.67 2.45362L117.854 2.15632L116.798 1.49982L116.613 1.79712ZM117.67 2.45362L117.485 2.75093L118.542 3.40743L118.726 3.11013L118.911 2.81282L117.854 2.15632L117.67 2.45362ZM118.726 3.11013L118.542 3.40743C118.809 3.57365 119.098 3.65872 119.4 3.63621C119.7 3.61386 119.979 3.4881 120.235 3.29084L120.022 3.01357L119.808 2.73629C119.633 2.87165 119.48 2.9283 119.348 2.93814C119.218 2.94781 119.075 2.91485 118.911 2.81282L118.726 3.11013ZM120.022 3.01357L120.235 3.29084L121.292 2.4768L121.079 2.19952L120.865 1.92225L119.808 2.73629L120.022 3.01357ZM121.079 2.19952L121.292 2.4768L122.349 1.66275L122.135 1.38548L121.922 1.1082L120.865 1.92225L121.079 2.19952ZM122.135 1.38548L122.349 1.66275C122.747 1.35597 123.129 1.17843 123.495 1.11066L123.431 0.766518L123.367 0.422377C122.869 0.514647 122.387 0.749744 121.922 1.1082L122.135 1.38548ZM123.431 0.766518L123.495 1.11066L124.551 0.914823L124.488 0.570682L124.424 0.226541L123.367 0.422377L123.431 0.766518ZM124.488 0.570682L124.551 0.914823L125.608 0.718988L125.544 0.374847L125.481 0.0307057L124.424 0.226541L124.488 0.570682ZM125.544 0.374847L125.608 0.718988C125.928 0.659767 126.265 0.736523 126.637 1.00148L126.84 0.716467L127.043 0.431452C126.551 0.0808792 126.025 -0.070111 125.481 0.0307057L125.544 0.374847ZM126.84 0.716467L126.637 1.00148L127.694 1.7547L127.897 1.46968L128.1 1.18467L127.043 0.431452L126.84 0.716467ZM127.897 1.46968L127.694 1.7547L128.75 2.50791L128.953 2.2229L129.157 1.93788L128.1 1.18467L127.897 1.46968ZM128.953 2.2229L128.75 2.50791C129.232 2.85155 129.742 3.02616 130.271 2.992L130.249 2.64273L130.226 2.29346C129.892 2.31505 129.538 2.20978 129.157 1.93788L128.953 2.2229ZM130.249 2.64273L130.271 2.992L131.328 2.92378L131.306 2.5745L131.283 2.22523L130.226 2.29346L130.249 2.64273ZM131.306 2.5745L131.328 2.92378L132.385 2.85555L132.363 2.50628L132.34 2.157L131.283 2.22523L131.306 2.5745ZM132.363 2.50628L132.385 2.85555C132.818 2.82759 133.251 2.79715 133.684 2.76423L133.658 2.41524L133.631 2.06624C133.201 2.09896 132.77 2.12921 132.34 2.157L132.363 2.50628ZM133.658 2.41524L133.684 2.76423L134.741 2.68392L134.715 2.33492L134.688 1.98593L133.631 2.06624L133.658 2.41524ZM134.715 2.33492L134.741 2.68392L135.798 2.6036L135.771 2.25461L135.745 1.90561L134.688 1.98593L134.715 2.33492ZM135.771 2.25461L135.798 2.6036C136.195 2.57346 136.592 2.60257 136.991 2.69167L137.067 2.35009L137.143 2.00851C136.678 1.90467 136.212 1.87012 135.745 1.90561L135.771 2.25461ZM137.067 2.35009L136.991 2.69167L138.047 2.92777L138.124 2.5862L138.2 2.24462L137.143 2.00851L137.067 2.35009ZM138.124 2.5862L138.047 2.92777L139.104 3.16388L139.18 2.8223L139.257 2.48072L138.2 2.24462L138.124 2.5862ZM139.18 2.8223L139.104 3.16388C139.61 3.27682 140.114 3.22807 140.609 3.02576L140.476 2.70185L140.343 2.37794C139.974 2.52918 139.615 2.56072 139.257 2.48072L139.18 2.8223ZM140.476 2.70185L140.609 3.02576L141.665 2.59314L141.533 2.26923L141.4 1.94532L140.343 2.37794L140.476 2.70185ZM141.533 2.26923L141.665 2.59314L142.722 2.16052L142.589 1.83661L142.457 1.5127L141.4 1.94532L141.533 2.26923ZM142.589 1.83661L142.722 2.16052C143.138 1.99043 143.552 1.85747 143.964 1.76113L143.885 1.42029L143.805 1.07945C143.355 1.18467 142.905 1.32925 142.457 1.5127L142.589 1.83661ZM143.885 1.42029L143.964 1.76113L145.021 1.5145L144.942 1.17366L144.862 0.832822L143.805 1.07945L143.885 1.42029ZM144.942 1.17366L145.021 1.5145L146.078 1.26787L145.998 0.927033L145.919 0.586192L144.862 0.832822L144.942 1.17366ZM145.998 0.927033L146.078 1.26787C146.496 1.17027 146.914 1.09903 147.331 1.05405L147.294 0.706069L147.256 0.358084C146.81 0.406175 146.364 0.482252 145.919 0.586192L145.998 0.927033ZM147.294 0.706069L147.331 1.05405L148.388 0.940166L148.351 0.592181L148.313 0.244196L147.256 0.358084L147.294 0.706069ZM148.351 0.592181L148.388 0.940166L149.445 0.826278L149.407 0.478293L149.37 0.130308L148.313 0.244196L148.351 0.592181ZM149.407 0.478293L149.445 0.826278C149.845 0.783174 150.245 0.79478 150.646 0.861325L150.703 0.516053L150.76 0.170782C150.297 0.0939095 149.834 0.0803413 149.37 0.130308L149.407 0.478293ZM150.703 0.516053L150.646 0.861325L151.702 1.03682L151.76 0.691551L151.817 0.34628L150.76 0.170782L150.703 0.516053ZM151.76 0.691551L151.702 1.03682L152.759 1.21232L152.816 0.867049L152.874 0.521778L151.817 0.34628L151.76 0.691551ZM152.816 0.867049L152.759 1.21232C153.226 1.28978 153.693 1.29643 154.16 1.23212L154.112 0.885396L154.064 0.538669C153.667 0.593319 153.271 0.587739 152.874 0.521778L152.816 0.867049ZM154.112 0.885396L154.16 1.23212L155.216 1.08656L155.169 0.739831L155.121 0.393105L154.064 0.538669L154.112 0.885396ZM155.169 0.739831L155.216 1.08656L156.273 0.940994L156.225 0.594267L156.178 0.247541L155.121 0.393105L155.169 0.739831ZM156.225 0.594267L156.273 0.940994C156.645 0.889837 157.018 0.932181 157.399 1.07345L157.521 0.745299L157.643 0.417146C157.16 0.238086 156.67 0.179743 156.178 0.247541L156.225 0.594267ZM157.521 0.745299L157.399 1.07345L158.456 1.46544L158.578 1.13728L158.699 0.809129L157.643 0.417146L157.521 0.745299ZM158.578 1.13728L158.456 1.46544L159.513 1.85742L159.634 1.52927L159.756 1.20111L158.699 0.809129L158.578 1.13728ZM159.634 1.52927L159.513 1.85742C159.969 2.02667 160.428 2.13913 160.889 2.1935L160.93 1.84591L160.971 1.49832C160.568 1.45083 160.163 1.35219 159.756 1.20111L159.634 1.52927ZM160.93 1.84591L160.889 2.1935L161.946 2.31815L161.987 1.97056L162.028 1.62297L160.971 1.49832L160.93 1.84591ZM161.987 1.97056L161.946 2.31815L163.002 2.4428L163.043 2.09521L163.084 1.74762L162.028 1.62297L161.987 1.97056ZM163.043 2.09521L163.002 2.4428C163.458 2.49659 163.915 2.50257 164.371 2.46071L164.339 2.11217L164.307 1.76363C163.899 1.80103 163.492 1.79571 163.084 1.74762L163.043 2.09521ZM164.339 2.11217L164.371 2.46071L165.428 2.36372L165.396 2.01518L165.364 1.66665L164.307 1.76363L164.339 2.11217ZM165.396 2.01518L165.428 2.36372L166.484 2.26673L166.452 1.9182L166.42 1.56966L165.364 1.66665L165.396 2.01518ZM166.452 1.9182L166.484 2.26673C166.906 2.22805 167.327 2.20817 167.749 2.20707L167.748 1.85707L167.747 1.50707C167.305 1.50822 166.863 1.52909 166.42 1.56966L166.452 1.9182ZM167.748 1.85707L167.749 2.20707L168.806 2.20433L168.805 1.85433L168.804 1.50433L167.747 1.50707L167.748 1.85707ZM168.805 1.85433L168.806 2.20433L169.862 2.20158L169.861 1.85158L169.861 1.50158L168.804 1.50433L168.805 1.85433ZM169.861 1.85158L169.862 2.20158C170.23 2.20062 170.606 2.29626 170.994 2.50021L171.157 2.19042L171.32 1.88062C170.844 1.63055 170.356 1.50029 169.861 1.50158L169.861 1.85158ZM171.157 2.19042L170.994 2.50021L172.051 3.0558L172.214 2.746L172.377 2.4362L171.32 1.88062L171.157 2.19042ZM172.214 2.746L172.051 3.0558L173.108 3.61138L173.27 3.30158L173.433 2.99179L172.377 2.4362L172.214 2.746ZM173.27 3.30158L173.108 3.61138C173.385 3.75738 173.681 3.81162 173.983 3.7544C174.28 3.69825 174.552 3.54064 174.801 3.31586L174.566 3.05628L174.331 2.7967C174.148 2.96246 173.988 3.04101 173.853 3.06663C173.723 3.09117 173.587 3.0728 173.433 2.99179L173.27 3.30158ZM174.566 3.05628L174.801 3.31586L175.857 2.36004L175.623 2.10046L175.388 1.84088L174.331 2.7967L174.566 3.05628ZM175.623 2.10046L175.857 2.36004L176.914 1.40422L176.679 1.14465L176.445 0.885069L175.388 1.84088L175.623 2.10046ZM176.679 1.14465L176.914 1.40422C177.092 1.24314 177.238 1.18464 177.354 1.1757C177.466 1.16708 177.6 1.20067 177.765 1.32465L177.975 1.04466L178.185 0.764676C177.918 0.564761 177.62 0.453077 177.3 0.477778C176.984 0.502167 176.698 0.655602 176.445 0.885069L176.679 1.14465ZM177.975 1.04466L177.765 1.32465L178.822 2.11734L179.032 1.83735L179.242 1.55736L178.185 0.764676L177.975 1.04466ZM179.032 1.83735L178.822 2.11734L179.878 2.91002L180.088 2.63004L180.299 2.35005L179.242 1.55736L179.032 1.83735ZM180.088 2.63004L179.878 2.91002C180.136 3.10303 180.416 3.22375 180.716 3.24103C181.018 3.25841 181.305 3.16913 181.572 3.00014L181.384 2.70466L181.196 2.40918C181.031 2.51434 180.886 2.54969 180.756 2.54219C180.624 2.5346 180.473 2.48094 180.299 2.35005L180.088 2.63004ZM181.384 2.70466L181.572 3.00014L182.628 2.32921L182.441 2.03373L182.253 1.73825L181.196 2.40918L181.384 2.70466ZM182.441 2.03373L182.628 2.32921L183.685 1.65828L183.497 1.3628L183.31 1.06732L182.253 1.73825L182.441 2.03373ZM183.497 1.3628L183.685 1.65828C183.851 1.55266 183.997 1.51617 184.128 1.52257C184.261 1.52904 184.412 1.58103 184.586 1.70833L184.793 1.42596L185 1.14359C184.742 0.95464 184.461 0.837979 184.162 0.823397C183.862 0.808744 183.575 0.898796 183.31 1.06732L183.497 1.3628ZM184.793 1.42596L184.586 1.70833L185.643 2.48231L185.85 2.19994L186.057 1.91757L185 1.14359L184.793 1.42596ZM185.85 2.19994L185.643 2.48231L186.7 3.25629L186.906 2.97392L187.113 2.69155L186.057 1.91757L185.85 2.19994ZM186.906 2.97392L186.7 3.25629C187.209 3.62911 187.763 3.74397 188.324 3.53432L188.202 3.20643L188.079 2.87855C187.777 2.99138 187.468 2.95123 187.113 2.69155L186.906 2.97392ZM188.202 3.20643L188.324 3.53432L189.381 3.13969L189.259 2.81181L189.136 2.48392L188.079 2.87855L188.202 3.20643ZM189.259 2.81181L189.381 3.13969L190.438 2.74507L190.315 2.41719L190.193 2.0893L189.136 2.48392L189.259 2.81181ZM190.315 2.41719L190.438 2.74507C190.885 2.57815 191.331 2.37629 191.775 2.1399L191.611 1.83088L191.447 1.52186C191.027 1.74472 190.61 1.93373 190.193 2.0893L190.315 2.41719ZM191.611 1.83088L191.775 2.1399L192.832 1.57792L192.668 1.2689L192.503 0.959876L191.447 1.52186L191.611 1.83088ZM192.668 1.2689L192.832 1.57792L193.889 1.01594L193.724 0.706917L193.56 0.397894L192.503 0.959876L192.668 1.2689ZM193.724 0.706917L193.889 1.01594C194.047 0.931876 194.188 0.909346 194.321 0.929184C194.458 0.949623 194.616 1.01963 194.796 1.16949L195.02 0.900194L195.243 0.630899C194.992 0.422276 194.719 0.280835 194.424 0.236848C194.125 0.192261 193.834 0.252331 193.56 0.397894L193.724 0.706917ZM195.02 0.900194L194.796 1.16949L195.853 2.04682L196.077 1.77752L196.3 1.50823L195.243 0.630899L195.02 0.900194ZM196.077 1.77752L195.853 2.04682L196.91 2.92414L197.133 2.65485L197.357 2.38555L196.3 1.50823L196.077 1.77752ZM197.133 2.65485L196.91 2.92414C197.384 3.31762 197.889 3.54556 198.42 3.55974L198.429 3.20987L198.438 2.85999C198.106 2.85111 197.747 2.70904 197.357 2.38555L197.133 2.65485ZM198.429 3.20987L198.42 3.55974L199.476 3.58797L199.486 3.2381L199.495 2.88822L198.438 2.85999L198.429 3.20987ZM199.486 3.2381L199.476 3.58797L200.533 3.6162L200.542 3.26632L200.552 2.91645L199.495 2.88822L199.486 3.2381ZM200.542 3.26632L200.533 3.6162C201.046 3.62989 201.545 3.47421 202.024 3.17277L201.838 2.87646L201.652 2.58014C201.268 2.8216 200.903 2.92583 200.552 2.91645L200.542 3.26632ZM201.838 2.87646L202.024 3.17277L203.081 2.50845L202.895 2.21213L202.708 1.91582L201.652 2.58014L201.838 2.87646ZM202.895 2.21213L203.081 2.50845L204.138 1.84412L203.951 1.54781L203.765 1.25149L202.708 1.91582L202.895 2.21213ZM203.951 1.54781L204.138 1.84412C204.515 1.60692 204.869 1.52149 205.21 1.55788L205.247 1.20986L205.284 0.861844C204.761 0.80594 204.251 0.945809 203.765 1.25149L203.951 1.54781ZM205.247 1.20986L205.21 1.55788L206.267 1.67082L206.304 1.3228L206.341 0.974784L205.284 0.861844L205.247 1.20986ZM206.304 1.3228L206.267 1.67082L207.323 1.78376L207.36 1.43574L207.398 1.08772L206.341 0.974784L206.304 1.3228ZM207.36 1.43574L207.323 1.78376C207.731 1.82735 208.14 1.91331 208.551 2.04228L208.656 1.70836L208.761 1.37444C208.308 1.23221 207.853 1.13643 207.398 1.08772L207.36 1.43574ZM208.656 1.70836L208.551 2.04228L209.608 2.37414L209.713 2.04022L209.818 1.70629L208.761 1.37444L208.656 1.70836ZM209.713 2.04022L209.608 2.37414L210.665 2.706L210.769 2.37207L210.874 2.03815L209.818 1.70629L209.713 2.04022ZM210.769 2.37207L210.665 2.706C211.147 2.85736 211.634 2.89486 212.121 2.81552L212.065 2.47006L212.009 2.12461C211.633 2.18581 211.256 2.15799 210.874 2.03815L210.769 2.37207ZM212.065 2.47006L212.121 2.81552L213.178 2.64354L213.122 2.29809L213.065 1.95263L212.009 2.12461L212.065 2.47006ZM213.122 2.29809L213.178 2.64354L214.235 2.47156L214.178 2.12611L214.122 1.78065L213.065 1.95263L213.122 2.29809ZM214.178 2.12611L214.235 2.47156C214.614 2.40979 214.994 2.43274 215.378 2.54247L215.474 2.20596L215.57 1.86946C215.09 1.73217 214.606 1.70188 214.122 1.78065L214.178 2.12611ZM215.474 2.20596L215.378 2.54247L216.434 2.84474L216.531 2.50824L216.627 2.17173L215.57 1.86946L215.474 2.20596ZM216.531 2.50824L216.434 2.84474L217.491 3.14702L217.587 2.81051L217.684 2.47401L216.627 2.17173L216.531 2.50824ZM217.587 2.81051L217.491 3.14702C217.966 3.28274 218.444 3.32414 218.923 3.26917L218.883 2.92145L218.843 2.57373C218.458 2.61787 218.073 2.5853 217.684 2.47401L217.587 2.81051ZM218.883 2.92145L218.923 3.26917L219.98 3.1479L219.94 2.80018L219.9 2.45246L218.843 2.57373L218.883 2.92145ZM219.94 2.80018L219.98 3.1479L221.036 3.02662L220.996 2.67891L220.957 2.33119L219.9 2.45246L219.94 2.80018ZM220.996 2.67891L221.036 3.02662C221.444 2.9798 221.852 2.97509 222.26 3.01245L222.292 2.66391L222.324 2.31537C221.868 2.27362 221.412 2.2789 220.957 2.33119L220.996 2.67891ZM222.292 2.66391L222.26 3.01245L223.317 3.10927L223.349 2.76073L223.381 2.41219L222.324 2.31537L222.292 2.66391ZM223.349 2.76073L223.317 3.10927L224.374 3.20608L224.405 2.85754L224.437 2.509L223.381 2.41219L223.349 2.76073ZM224.405 2.85754L224.374 3.20608C224.897 3.25407 225.406 3.105 225.891 2.79062L225.701 2.49694L225.511 2.20326C225.132 2.4488 224.777 2.54012 224.437 2.509L224.405 2.85754ZM225.701 2.49694L225.891 2.79062L226.948 2.10547L226.758 1.81179L226.567 1.51811L225.511 2.20326L225.701 2.49694ZM226.758 1.81179L226.948 2.10547L228.005 1.42031L227.814 1.12663L227.624 0.832954L226.567 1.51811L226.758 1.81179ZM227.814 1.12663L228.005 1.42031C228.346 1.19896 228.652 1.17837 228.964 1.32139L229.11 1.00314L229.256 0.684889C228.704 0.432655 228.146 0.494389 227.624 0.832954L227.814 1.12663ZM229.11 1.00314L228.964 1.32139L230.021 1.80506L230.167 1.48681L230.312 1.16856L229.256 0.684889L229.11 1.00314ZM230.167 1.48681L230.021 1.80506L231.078 2.28873L231.223 1.97048L231.369 1.65223L230.312 1.16856L230.167 1.48681ZM231.223 1.97048L231.078 2.28873C231.592 2.52385 232.12 2.54739 232.642 2.35155L232.519 2.02386L232.396 1.69618C232.054 1.82441 231.719 1.81237 231.369 1.65223L231.223 1.97048ZM232.519 2.02386L232.642 2.35155L233.699 1.95498L233.576 1.62729L233.453 1.2996L232.396 1.69618L232.519 2.02386ZM233.576 1.62729L233.699 1.95498L234.755 1.55841L234.632 1.23072L234.51 0.903032L233.453 1.2996L233.576 1.62729ZM234.632 1.23072L234.755 1.55841C235.057 1.44537 235.365 1.48555 235.72 1.74727L235.928 1.46565L236.136 1.18403C235.627 0.808423 235.072 0.691994 234.51 0.903032L234.632 1.23072ZM235.928 1.46565L235.72 1.74727L236.777 2.52714L236.985 2.24552L237.193 1.96391L236.136 1.18403L235.928 1.46565ZM236.985 2.24552L236.777 2.52714L237.834 3.30702L238.041 3.0254L238.249 2.74378L237.193 1.96391L236.985 2.24552ZM238.041 3.0254L237.834 3.30702C238.324 3.66858 238.85 3.83106 239.396 3.73789L239.337 3.39288L239.278 3.04786C238.96 3.10205 238.623 3.01954 238.249 2.74378L238.041 3.0254ZM239.337 3.39288L239.396 3.73789L240.453 3.55758L240.394 3.21257L240.335 2.86756L239.278 3.04786L239.337 3.39288ZM240.394 3.21257L240.453 3.55758L241.509 3.37728L241.45 3.03226L241.392 2.68725L240.335 2.86756L240.394 3.21257ZM241.45 3.03226L241.509 3.37728C241.983 3.29651 242.45 3.12976 242.912 2.88172L242.746 2.57346L242.58 2.2652C242.178 2.48155 241.782 2.62067 241.392 2.68725L241.45 3.03226ZM242.746 2.57346L242.912 2.88172L243.968 2.31346L243.803 2.0052L243.637 1.69694L242.58 2.2652L242.746 2.57346ZM243.803 2.0052L243.968 2.31346L245.025 1.74519L244.859 1.43693L244.694 1.12867L243.637 1.69694L243.803 2.0052ZM244.859 1.43693L245.025 1.74519C245.403 1.54224 245.763 1.46982 246.116 1.5096L246.155 1.16181L246.194 0.814025C245.683 0.756245 245.18 0.867235 244.694 1.12867L244.859 1.43693ZM246.155 1.16181L246.116 1.5096L247.172 1.62899L247.212 1.2812L247.251 0.933412L246.194 0.814025L246.155 1.16181ZM247.212 1.2812L247.172 1.62899L248.229 1.74837L248.268 1.40059L248.308 1.0528L247.251 0.933412L247.212 1.2812ZM248.268 1.40059L248.229 1.74837C248.655 1.79647 249.081 1.85586 249.507 1.92656L249.564 1.58128L249.621 1.23601C249.183 1.16334 248.746 1.10227 248.308 1.0528L248.268 1.40059ZM249.564 1.58128L249.507 1.92656L250.563 2.10199L250.621 1.75671L250.678 1.41144L249.621 1.23601L249.564 1.58128ZM250.621 1.75671L250.563 2.10199L251.62 2.27741L251.677 1.93214L251.735 1.58686L250.678 1.41144L250.621 1.75671ZM251.677 1.93214L251.62 2.27741C252.101 2.35726 252.582 2.33464 253.061 2.21089L252.973 1.87205L252.885 1.53321C252.5 1.63294 252.117 1.65038 251.735 1.58686L251.677 1.93214ZM252.973 1.87205L253.061 2.21089L254.117 1.93742L254.03 1.59858L253.942 1.25974L252.885 1.53321L252.973 1.87205ZM254.03 1.59858L254.117 1.93742L255.174 1.66395L255.086 1.32511L254.999 0.986272L253.942 1.25974L254.03 1.59858ZM255.086 1.32511L255.174 1.66395C255.6 1.55386 256.025 1.45666 256.45 1.37232L256.382 1.02901L256.314 0.685697C255.875 0.772679 255.437 0.872876 254.999 0.986272L255.086 1.32511ZM256.382 1.02901L256.45 1.37232L257.507 1.16267L257.439 0.819359L257.371 0.476049L256.314 0.685697L256.382 1.02901ZM257.439 0.819359L257.507 1.16267L258.564 0.953021L258.495 0.609711L258.427 0.266401L257.371 0.476049L257.439 0.819359ZM258.495 0.609711L258.564 0.953021C258.936 0.879212 259.307 0.900864 259.685 1.02098L259.791 0.687487L259.897 0.353989C259.411 0.199084 258.919 0.168885 258.427 0.266401L258.495 0.609711ZM259.791 0.687487L259.685 1.02098L260.741 1.35753L260.848 1.02403L260.954 0.690534L259.897 0.353989L259.791 0.687487ZM260.848 1.02403L260.741 1.35753L261.798 1.69407L261.904 1.36058L262.011 1.02708L260.954 0.690534L260.848 1.02403ZM261.904 1.36058L261.798 1.69407C262.284 1.84864 262.774 1.88104 263.265 1.78822L263.2 1.44432L263.135 1.10042C262.762 1.17096 262.389 1.14754 262.011 1.02708L261.904 1.36058ZM263.2 1.44432L263.265 1.78822L264.322 1.58831L264.257 1.24441L264.192 0.90051L263.135 1.10042L263.2 1.44432ZM264.257 1.24441L264.322 1.58831L265.379 1.3884L265.314 1.0445L265.248 0.700601L264.192 0.90051L264.257 1.24441ZM265.314 1.0445L265.379 1.3884C265.578 1.35066 265.723 1.34167 265.822 1.35C265.924 1.35859 265.942 1.38228 265.931 1.37246L266.17 1.11644L266.408 0.860422C266.259 0.720958 266.064 0.667837 265.881 0.652453C265.694 0.636802 265.481 0.656656 265.248 0.700601L265.314 1.0445ZM266.17 1.11644L265.931 1.37246L266.272 1.68975L266.51 1.43373L266.749 1.17771L266.408 0.860422L266.17 1.11644ZM266.51 1.43373L266.247 1.66456L266.696 2.1763L266.959 1.94548L267.222 1.71465L266.773 1.2029L266.51 1.43373ZM266.959 1.94548V2.29548H267.059V1.94548V1.59548H266.959V1.94548Z" fill="currentColor"/>
</svg>
