<svg preserveAspectRatio="xMidYMid meet" width="15" height="15" viewBox="0 0 15 15" fill="none" xmlns="http://www.w3.org/2000/svg">
<g id="IconFolderNewSmart">
<path id="Vector" d="M1.875 6.25V4.375C1.875 3.33947 2.71447 2.5 3.75 2.5H5.58102C5.99896 2.5 6.38925 2.70888 6.62106 3.05663L7.12894 3.81837C7.36075 4.16612 7.75106 4.375 8.169 4.375H11.25C12.2856 4.375 13.125 5.21447 13.125 6.25V10C13.125 11.0356 12.2856 11.875 11.25 11.875H7.5" stroke="black" stroke-width="1.25" stroke-linecap="round" stroke-linejoin="round"/>
<path id="Vector_2" d="M3.90028 9.49075L3.46474 8.35831C3.41068 8.21775 3.27562 8.125 3.125 8.125C2.97438 8.125 2.83932 8.21775 2.78526 8.35831L2.34972 9.49075C2.28623 9.65581 2.15579 9.78625 1.99074 9.84969L0.858338 10.2852C0.717763 10.3393 0.625 10.4744 0.625 10.625C0.625 10.7756 0.717763 10.9107 0.858338 10.9648L1.99074 11.4003C2.15579 11.4637 2.28623 11.5942 2.34972 11.7593L2.78526 12.8917C2.83932 13.0322 2.97438 13.125 3.125 13.125C3.27562 13.125 3.41068 13.0322 3.46474 12.8917L3.90028 11.7593C3.96377 11.5942 4.09421 11.4637 4.25926 11.4003L5.39166 10.9648C5.53224 10.9107 5.625 10.7756 5.625 10.625C5.625 10.4744 5.53224 10.3393 5.39166 10.2852L4.25926 9.84969C4.09421 9.78625 3.96377 9.65581 3.90028 9.49075Z" fill="black"/>
</g>
</svg>
