<svg preserveAspectRatio="none" width="100%" height="100%" overflow="visible" style="display: block;" viewBox="0 0 15 15" fill="none" xmlns="http://www.w3.org/2000/svg">
<g id="IconChainLink4">
<path id="Vector" d="M6.25 11.8753L6.14277 11.9824C5.16646 12.9588 3.58355 12.9588 2.60724 11.9824L2.39277 11.768C1.41646 10.7917 1.41646 9.20875 2.39277 8.23244L4.48224 6.143C5.45855 5.16669 7.04144 5.16669 8.01775 6.143L8.23225 6.35744C8.64075 6.766 8.87831 7.28069 8.945 7.81275" stroke="var(--stroke-0, #A8A29E)" stroke-width="1.25" stroke-linecap="round" stroke-linejoin="round"/>
<path id="Vector_2" d="M6.05499 7.81275C6.12164 8.34475 6.35925 8.8595 6.76775 9.268L6.98219 9.48244C7.9585 10.4587 9.54144 10.4587 10.5177 9.48244L12.6072 7.393C13.5835 6.41669 13.5835 4.83377 12.6072 3.85746L12.3927 3.643C11.4164 2.66669 9.8335 2.66669 8.85719 3.643L8.75 3.75023" stroke="var(--stroke-0, #A8A29E)" stroke-width="1.25" stroke-linecap="round" stroke-linejoin="round"/>
</g>
</svg>
