<svg width="24" height="24" viewBox="0 0 24 24" fill="none" xmlns="http://www.w3.org/2000/svg">
<path d="M17 4H7C5.34315 4 4 5.34315 4 7V17C4 18.6569 5.34315 20 7 20H17C18.6569 20 20 18.6569 20 17V7C20 5.34315 18.6569 4 17 4Z" stroke="#57534E" stroke-width="2" stroke-linecap="round" stroke-linejoin="round"/>
<path d="M12 9.5H16" stroke="#57534E" stroke-width="2" stroke-linecap="round" stroke-linejoin="round"/>
<path d="M12 14.5H16" stroke="#57534E" stroke-width="2" stroke-linecap="round" stroke-linejoin="round"/>
<path d="M8.25 10.75C8.94036 10.75 9.5 10.1904 9.5 9.5C9.5 8.80964 8.94036 8.25 8.25 8.25C7.55964 8.25 7 8.80964 7 9.5C7 10.1904 7.55964 10.75 8.25 10.75Z" fill="#57534E"/>
<path d="M8.25 15.75C8.94036 15.75 9.5 15.1904 9.5 14.5C9.5 13.8096 8.94036 13.25 8.25 13.25C7.55964 13.25 7 13.8096 7 14.5C7 15.1904 7.55964 15.75 8.25 15.75Z" fill="#57534E"/>
</svg>
