<svg width="18" height="18" viewBox="0 0 18 18" fill="none" xmlns="http://www.w3.org/2000/svg">
<path d="M10.5 3H7.5C6.25736 3 5.25 4.00736 5.25 5.25V12.75C5.25 13.9927 6.25736 15 7.5 15H10.5C11.7427 15 12.75 13.9927 12.75 12.75V5.25C12.75 4.00736 11.7427 3 10.5 3Z" stroke="black" stroke-width="1.5" stroke-linecap="round" stroke-linejoin="round"/>
<path d="M5.25 13.5H4.5C3.25736 13.5 2.25 12.4927 2.25 11.25V6.75C2.25 5.50736 3.25736 4.5 4.5 4.5H5.25" stroke="black" stroke-width="1.5" stroke-linecap="round" stroke-linejoin="round"/>
<path d="M12.75 4.5H13.5C14.7427 4.5 15.75 5.50736 15.75 6.75V11.25C15.75 12.4927 14.7427 13.5 13.5 13.5H12.75" stroke="black" stroke-width="1.5" stroke-linecap="round" stroke-linejoin="round"/>
</svg>
