<svg width="18" height="18" viewBox="0 0 18 18" fill="none" xmlns="http://www.w3.org/2000/svg">
<path d="M14.0039 9.18164C13.9921 9.57105 13.8056 9.87548 13.5674 10.1416C13.3386 10.3971 13.0084 10.6742 12.623 11L11.5488 11.9092C11.2995 12.12 11.0853 12.3097 10.8164 12.4082C10.6146 12.4821 10.4028 12.4974 10.1719 12.5L6 12.5C5.54273 12.5 5.14931 12.5011 4.83594 12.459C4.50824 12.4149 4.19424 12.3153 3.93945 12.0605C3.68466 11.8058 3.58509 11.4918 3.54102 11.1641C3.49888 10.8507 3.5 10.4573 3.5 10L3.5 8C3.5 7.54273 3.49888 7.14931 3.54102 6.83594C3.58509 6.50824 3.68466 6.19424 3.93945 5.93945C4.19424 5.68466 4.50824 5.58509 4.83594 5.54102C5.14931 5.49888 5.54273 5.5 6 5.5L9.86523 5.5C10.2215 5.5 10.5349 5.49153 10.8242 5.60742C11.1134 5.72335 11.3341 5.94552 11.5918 6.19141L12.7354 7.28223C13.1004 7.63062 13.413 7.92752 13.626 8.19629C13.8479 8.47633 14.0156 8.79205 14.0039 9.18164Z" fill="#3B82F6" stroke="#BFDBFE" stroke-linejoin="round"/>
</svg>
