<svg preserveAspectRatio="none" width="100%" height="100%" overflow="visible" style="display: block;" viewBox="0 0 20 20" fill="none" xmlns="http://www.w3.org/2000/svg">
<g id="IconFilePdf">
<path id="Vector" d="M4.16667 9.16667V5.83333C4.16667 4.45263 5.28596 3.33333 6.66667 3.33333H11.8097C12.2517 3.33333 12.6756 3.50893 12.9882 3.82149L15.3452 6.17851C15.6577 6.49107 15.8333 6.91499 15.8333 7.35703V9.16667M11.6667 4.16667V5.83333C11.6667 6.75381 12.4128 7.5 13.3333 7.5H15" stroke="#1A1A1A" stroke-width="1.66667" stroke-linecap="round" stroke-linejoin="round"/>
<path id="Vector_2" d="M3.33333 16.6667V12.5H4.79167C5.48203 12.5 6.04167 13.0597 6.04167 13.75C6.04167 14.4403 5.48203 15 4.79167 15H3.75" stroke="#1A1A1A" stroke-width="1.66667" stroke-linecap="round" stroke-linejoin="round"/>
<path id="Vector_3" d="M8.33333 12.5V16.6667H9.375C10.2777 16.6667 11.6667 16.25 11.6667 14.5833C11.6667 12.9167 10.2777 12.5 9.375 12.5H8.33333Z" stroke="#1A1A1A" stroke-width="1.66667" stroke-linecap="round" stroke-linejoin="round"/>
<path id="Vector_4" d="M16.6667 12.5H14.1667V16.6667" stroke="#1A1A1A" stroke-width="1.66667" stroke-linecap="round" stroke-linejoin="round"/>
<path id="Vector_5" d="M14.1667 15H15.8333" stroke="#1A1A1A" stroke-width="1.66667" stroke-linecap="round" stroke-linejoin="round"/>
</g>
</svg>
