<svg width="18" height="18" viewBox="0 0 18 18" fill="none" xmlns="http://www.w3.org/2000/svg">
<path d="M9 15.75C12.7279 15.75 15.75 12.7279 15.75 9C15.75 5.27208 12.7279 2.25 9 2.25C5.27208 2.25 2.25 5.27208 2.25 9C2.25 12.7279 5.27208 15.75 9 15.75Z" stroke="black" stroke-width="1.5"/>
<path d="M9 6C10.6568 6 12 7.34314 12 9C12 10.6568 10.6568 12 9 12V15.75C12.728 15.75 15.75 12.728 15.75 9C15.75 5.27208 12.728 2.25 9 2.25V6ZM9 6C7.34314 6 6 7.34314 6 9C6 10.6568 7.34314 12 9 12V6Z" fill="black"/>
</svg>
