<svg preserveAspectRatio="none" width="100%" height="100%" overflow="visible" style="display: block;" viewBox="0 0 15 15" fill="none" xmlns="http://www.w3.org/2000/svg">
<g id="IconMicrophoneSparkle">
<path id="Vector" d="M7.49982 13.125V11.875M7.49982 11.875C5.20095 11.875 3.84159 10.4657 3.13379 9.375M7.49982 11.875C9.7987 11.875 11.1581 10.4657 11.8659 9.375" stroke="black" stroke-width="1.25" stroke-linecap="round" stroke-linejoin="round"/>
<path id="Vector_2" d="M10.7753 3.24074L10.3398 2.10834C10.2857 1.96776 10.1506 1.875 10 1.875C9.84938 1.875 9.71431 1.96776 9.66025 2.10834L9.22469 3.24074C9.16125 3.40579 9.03081 3.53623 8.86575 3.59972L7.73331 4.03526C7.59275 4.08932 7.5 4.22438 7.5 4.375C7.5 4.52562 7.59275 4.66068 7.73331 4.71474L8.86575 5.15028C9.03081 5.21377 9.16125 5.34421 9.22469 5.50926L9.66025 6.64169C9.71431 6.78225 9.84938 6.875 10 6.875C10.1506 6.875 10.2857 6.78225 10.3398 6.64169L10.7753 5.50926C10.8387 5.34421 10.9692 5.21377 11.1343 5.15028L12.2667 4.71474C12.4072 4.66068 12.5 4.52562 12.5 4.375C12.5 4.22438 12.4072 4.08932 12.2667 4.03526L11.1343 3.59972C10.9692 3.53623 10.8387 3.40579 10.7753 3.24074Z" fill="black"/>
<path id="Vector_3" d="M9.15362 8.75C8.71294 9.13894 8.134 9.375 7.5 9.375C6.11929 9.375 5 8.25569 5 6.875V4.37498C5 3.21008 5.79673 2.23126 6.875 1.95374" stroke="black" stroke-width="1.25" stroke-linecap="round"/>
</g>
</svg>
