<svg preserveAspectRatio="none" width="100%" height="100%" overflow="visible" style="display: block;" viewBox="0 0 279 42" fill="none" xmlns="http://www.w3.org/2000/svg">
<g id="Vector 8" filter="url(#filter0_gf_0_4)">
<path d="M10.2201 37.7647L4.24185 31.0588L2 21.5588L13.9565 18.7647L29.6495 17.6471H44.5951L58.7935 13.7353L84.2011 4.23529L103.63 2.55882L113.345 4.23529L128.291 6.47059L140.995 8.14706H157.435L167.897 9.26471L185.084 8.14706H197.788H209.745L234.405 5.35294L274.011 2V9.26471V13.7353V18.7647L277 21.5588L274.011 32.1765L249.351 31.0588H234.405L222.448 34.4118L200.03 36.6471L179.106 37.7647L164.908 39.4412L140.995 36.6471L126.796 35.5294L105.872 34.4118H90.9266H79.7174L67.7609 37.7647L60.288 38.3235H49.8261L39.3641 40L31.144 38.3235L20.6821 39.4412L10.2201 37.7647Z" fill="var(--fill-0, #16A34A)" fill-opacity="1"/>
</g>
<defs>
<filter id="filter0_gf_0_4" x="0" y="0" width="279" height="42" filterUnits="userSpaceOnUse" color-interpolation-filters="sRGB">
<feFlood flood-opacity="0" result="BackgroundImageFix"/>
<feBlend mode="normal" in="SourceGraphic" in2="BackgroundImageFix" result="shape"/>
<feTurbulence type="fractalNoise" baseFrequency="0.27027025818824768 0.27027025818824768" numOctaves="3" seed="8693" />
<feDisplacementMap in="shape" scale="4" xChannelSelector="R" yChannelSelector="G" result="displacedImage" width="100%" height="100%" />
<feMerge result="effect1_texture_0_4">
<feMergeNode in="displacedImage"/>
</feMerge>
<feGaussianBlur stdDeviation="1" result="effect2_foregroundBlur_0_4"/>
</filter>
</defs>
</svg>
