<svg width="18" height="18" viewBox="0 0 18 18" fill="none" xmlns="http://www.w3.org/2000/svg">
<path d="M2.25 5.25H8.25" stroke="currentColor" stroke-width="1.5" stroke-linecap="round" stroke-linejoin="round"/>
<path d="M5.25 5.25V3.75" stroke="currentColor" stroke-width="1.5" stroke-linecap="round" stroke-linejoin="round"/>
<path d="M8.2506 11.2501C5.33555 10.5213 3.83675 8.73038 3.41016 5.53327" stroke="currentColor" stroke-width="1.5" stroke-linecap="round" stroke-linejoin="round"/>
<path d="M2.25007 11.25C5.16363 10.5216 6.66238 8.7321 7.08984 5.53802" stroke="currentColor" stroke-width="1.5" stroke-linecap="round" stroke-linejoin="round"/>
<path d="M10.125 13.5H13.875M9 15L11.3088 9.5166C11.5664 8.90468 12.4336 8.90468 12.6912 9.5166L15 15" stroke="currentColor" stroke-width="1.5" stroke-linecap="round" stroke-linejoin="round"/>
<path d="M13.9241 3.64513L13.4817 2.495C13.4249 2.34739 13.2832 2.25 13.125 2.25C12.9668 2.25 12.8251 2.34739 12.7683 2.495L12.3259 3.64513C12.2497 3.8432 12.0932 3.99973 11.8951 4.07591L10.745 4.51827C10.5974 4.57504 10.5 4.71686 10.5 4.875C10.5 5.03314 10.5974 5.17496 10.745 5.23173L11.8951 5.67409C12.0932 5.75027 12.2497 5.9068 12.3259 6.10487L12.7683 7.255C12.8251 7.40261 12.9668 7.5 13.125 7.5C13.2832 7.5 13.4249 7.40261 13.4817 7.255L13.9241 6.10487C14.0003 5.9068 14.1568 5.75027 14.3548 5.67409L15.505 5.23173C15.6526 5.17496 15.75 5.03314 15.75 4.875C15.75 4.71686 15.6526 4.57504 15.505 4.51827L14.3548 4.07591C14.1568 3.99973 14.0003 3.8432 13.9241 3.64513Z" fill="currentColor"/>
</svg>
