<svg width="20" height="20" viewBox="0 0 20 20" fill="none" xmlns="http://www.w3.org/2000/svg">
<path d="M16.6667 12.6667V8.83333C16.6667 8.36658 16.6667 8.13327 16.5758 7.95501C16.4959 7.79821 16.3685 7.67072 16.2117 7.59082C16.0334 7.5 15.8001 7.5 15.3333 7.5H4.66667C4.19996 7.5 3.9666 7.5 3.78834 7.59082C3.63154 7.67072 3.50406 7.79821 3.42416 7.95501C3.33333 8.13327 3.33333 8.36658 3.33333 8.83333V12.6667C3.33333 14.0668 3.33333 14.7668 3.60582 15.3017C3.8455 15.7721 4.22795 16.1545 4.69836 16.3942C5.23313 16.6667 5.9332 16.6667 7.33333 16.6667H12.6667C14.0668 16.6667 14.7668 16.6667 15.3017 16.3942C15.7721 16.1545 16.1545 15.7721 16.3942 15.3017C16.6667 14.7668 16.6667 14.0668 16.6667 12.6667Z" stroke="#57534E" stroke-width="1.5" stroke-linecap="square" stroke-linejoin="round"/>
<path d="M5 6.66667V3.33333C5 2.8731 5.3731 2.5 5.83333 2.5H8.40483C8.62583 2.5 8.83783 2.5878 8.99408 2.74408L10.1726 3.92259C10.3288 4.07887 10.5408 4.16667 10.7618 4.16667H14.1667C14.6269 4.16667 15 4.53977 15 5V6.66667" stroke="#57534E" stroke-width="1.5" stroke-linecap="round" stroke-linejoin="round"/>
<path d="M6.66667 10.8333H10" stroke="#57534E" stroke-width="1.5" stroke-linecap="round" stroke-linejoin="round"/>
</svg>
