<svg width="18" height="18" viewBox="0 0 18 18" fill="none" xmlns="http://www.w3.org/2000/svg">
<path d="M15 11.4V7.95C15 7.52992 15 7.31994 14.9182 7.15951C14.8463 7.01839 14.7317 6.90365 14.5905 6.83174C14.4301 6.75 14.2201 6.75 13.8 6.75H4.2C3.77996 6.75 3.56994 6.75 3.40951 6.83174C3.26839 6.90365 3.15365 7.01839 3.08174 7.15951C3 7.31994 3 7.52992 3 7.95V11.4C3 12.6601 3 13.2901 3.24524 13.7715C3.46095 14.1949 3.80516 14.5391 4.22852 14.7548C4.70982 15 5.33988 15 6.6 15H11.4C12.6601 15 13.2901 15 13.7715 14.7548C14.1949 14.5391 14.5391 14.1949 14.7548 13.7715C15 13.2901 15 12.6601 15 11.4Z" stroke="currentColor" stroke-width="1.5" stroke-linecap="square" stroke-linejoin="round"/>
<path d="M4.5 6V3C4.5 2.58579 4.8358 2.25 5.25 2.25H7.56435C7.76325 2.25 7.95405 2.32902 8.09467 2.46967L9.15534 3.53033C9.29596 3.67098 9.48675 3.75 9.68565 3.75H12.75C13.1642 3.75 13.5 4.08579 13.5 4.5V6" stroke="currentColor" stroke-width="1.5" stroke-linecap="round" stroke-linejoin="round"/>
<path d="M6 9.75H9" stroke="currentColor" stroke-width="1.5" stroke-linecap="round" stroke-linejoin="round"/>
</svg>
