<svg width="15" height="15" viewBox="0 0 15 15" fill="none" xmlns="http://www.w3.org/2000/svg">
<rect width="15" height="15" fill="none"/>
<path d="M5.625 2.96877V10.7812M9.375 3.90627V11.7187M1.875 10.297V4.80722C1.875 4.26918 2.21929 3.79151 2.72971 3.62136L5.22971 2.78803C5.4863 2.7025 5.7637 2.7025 6.02029 2.78803L8.97969 3.77451C9.23631 3.86004 9.51369 3.86004 9.77031 3.77451L11.4797 3.2047C12.2891 2.93489 13.125 3.53736 13.125 4.39055V9.88031C13.125 10.4184 12.7807 10.8961 12.2703 11.0662L9.77031 11.8995C9.51369 11.9851 9.23631 11.9851 8.97969 11.8995L6.02029 10.913C5.7637 10.8275 5.4863 10.8275 5.22971 10.913L3.52029 11.4828C2.71087 11.7526 1.875 11.1502 1.875 10.297Z" stroke="currentColor" stroke-width="1.25" stroke-linecap="round" stroke-linejoin="round"/>
</svg>
