<svg viewBox="0 0 18 18" fill="none" xmlns="http://www.w3.org/2000/svg">
<path d="M9 15.75C12.7279 15.75 15.75 12.7279 15.75 9C15.75 5.27208 12.7279 2.25 9 2.25C5.27208 2.25 2.25 5.27208 2.25 9C2.25 12.7279 5.27208 15.75 9 15.75Z" stroke="black" stroke-width="1.5"/>
<path d="M8.36775 9.19185L8.01457 6.36632C7.94047 5.77357 8.40262 5.25 9 5.25C9.59737 5.25 10.0595 5.77355 9.9855 6.3663L9.63232 9.19185C9.59242 9.51068 9.32137 9.75 9.00007 9.75C8.6787 9.75 8.40765 9.51075 8.36775 9.19185Z" fill="black"/>
<path d="M9 12.7497C9.49706 12.7497 9.9 12.3468 9.9 11.8497C9.9 11.3526 9.49706 10.9497 9 10.9497C8.50294 10.9497 8.1 11.3526 8.1 11.8497C8.1 12.3468 8.50294 12.7497 9 12.7497Z" fill="black"/>
</svg>
