<svg width="18" height="18" viewBox="0 0 18 18" fill="none" xmlns="http://www.w3.org/2000/svg">
<g id="IconTrashRounded">
<path id="Vector" d="M15 4.31208C15 5.34761 12.3137 6.18708 8.99999 6.18708C5.68628 6.18708 2.99999 5.34761 2.99999 4.31208C2.99999 3.27655 5.68628 2.43708 8.99999 2.43708C12.3137 2.43708 15 3.27655 15 4.31208Z" stroke="currentColor" stroke-width="1.5"/>
<path id="Vector_2" d="M2.99999 4.31292L3.90526 11.1024C4.05676 12.2387 4.13252 12.8068 4.32785 13.27C4.77517 14.3308 5.68494 15.1273 6.79552 15.4305C7.28048 15.5629 7.85362 15.5629 8.99999 15.5629C10.1464 15.5629 10.7195 15.5629 11.2045 15.4305C12.3151 15.1273 13.2248 14.3308 13.6721 13.27C13.8675 12.8068 13.9432 12.2387 14.0947 11.1024L15 4.31292" stroke="currentColor" stroke-width="1.5"/>
</g>
</svg>