<svg viewBox="0 0 15 15" fill="none" xmlns="http://www.w3.org/2000/svg">
<g id="IconEditSmall2">
<path id="Vector" d="M6.875 2.5H5.5C4.4499 2.5 3.92485 2.5 3.52377 2.70436C3.17096 2.88413 2.88413 3.17096 2.70436 3.52377C2.5 3.92485 2.5 4.4499 2.5 5.5V9.5C2.5 10.5501 2.5 11.0751 2.70436 11.4762C2.88413 11.8291 3.17096 12.1159 3.52377 12.2956C3.92485 12.5 4.4499 12.5 5.5 12.5H9.5C10.5501 12.5 11.0751 12.5 11.4762 12.2956C11.8291 12.1159 12.1159 11.8291 12.2956 11.4762C12.5 11.0751 12.5 10.5501 12.5 9.5V8.125" stroke="black" stroke-width="1.25" stroke-linecap="round" stroke-linejoin="round"/>
<path id="Vector_2" d="M8.125 6.875V4.99999L10.9375 2.18749C11.4553 1.66972 12.2947 1.66972 12.8125 2.18749C13.3303 2.70526 13.3303 3.54472 12.8125 4.06249L10 6.875H8.125Z" stroke="black" stroke-width="1.25" stroke-linecap="round" stroke-linejoin="round"/>
</g>
</svg>
