<svg width="18" height="18" viewBox="0 0 18 18" fill="none" xmlns="http://www.w3.org/2000/svg">
<path d="M13.5 12.75L15.75 15" stroke="currentColor" stroke-width="1.5" stroke-linecap="round"/>
<path d="M3.04651 7.5C3.41558 4.54027 5.94038 2.25 9.00008 2.25C12.3138 2.25 15.0001 4.93629 15.0001 8.25C15.0001 11.3098 12.7098 13.8346 9.75 14.2036" stroke="currentColor" stroke-width="1.5" stroke-linecap="round"/>
<path d="M2.78061 12.131L5.93851 8.44672C6.18044 8.1645 6.64145 8.36843 6.59534 8.73728L6.375 10.5H8.18467C8.50507 10.5 8.67787 10.8758 8.46937 11.1191L5.31149 14.8033C5.06956 15.0855 4.60856 14.8816 4.65467 14.5127L4.875 12.75H3.06533C2.74495 12.75 2.57211 12.3742 2.78061 12.131Z" fill="currentColor"/>
</svg>
