<svg viewBox="0 0 16 16" fill="none" xmlns="http://www.w3.org/2000/svg">
<path d="M1.83919 6.7758L2.41802 10.0585C2.60983 11.1463 3.64715 11.8726 4.73493 11.6808L6.73147 11.3287M1.83919 6.7758L1.72343 6.11925C1.53162 5.03147 2.25796 3.99415 3.34575 3.80234L7.94153 2.99198C9.02933 2.80017 10.0666 3.52651 10.2584 4.6143C10.3223 4.9769 10.0803 5.32267 9.71767 5.38661L1.83919 6.7758Z" stroke="currentColor" stroke-width="1.333" stroke-linecap="round" stroke-linejoin="round"/>
<path d="M10.6667 13.3333C12.8758 13.3333 14.6667 11.5425 14.6667 9.33333C14.6667 7.1242 12.8758 5.33333 10.6667 5.33333C8.45753 5.33333 6.66667 7.1242 6.66667 9.33333C6.66667 11.5425 8.45753 13.3333 10.6667 13.3333Z" stroke="currentColor" stroke-width="1.333" stroke-linecap="round" stroke-linejoin="round"/>
<path d="M10.6667 8V9.33333L11.7778 10.4445" stroke="currentColor" stroke-width="1.333" stroke-linecap="round" stroke-linejoin="round"/>
</svg>
