<svg width="18" height="18" viewBox="0 0 18 18" fill="none" xmlns="http://www.w3.org/2000/svg">
<path d="M15 13.125C15 13.8403 14.714 14.4886 14.25 14.9621C13.7735 15.4483 13.1095 15.75 12.375 15.75C10.9253 15.75 9.75 14.5747 9.75 13.125C9.75 11.6753 10.9253 10.5 12.375 10.5C13.8247 10.5 15 11.6753 15 13.125Z" stroke="#57534E" stroke-width="1.5" stroke-linecap="round" stroke-linejoin="round"/>
<path d="M7.125 15.75H6C4.75736 15.75 3.75 14.7427 3.75 13.5V4.5C3.75 3.25736 4.75736 2.25 6 2.25H12C13.2427 2.25 14.25 3.25736 14.25 4.5V7.5" stroke="#57534E" stroke-width="1.5" stroke-linecap="round"/>
<path d="M14.25 14.9623L15.375 16.1252" stroke="#57534E" stroke-width="1.5" stroke-linecap="round"/>
<path d="M6.75 5.25H11.25" stroke="#57534E" stroke-width="1.5" stroke-linecap="round"/>
<path d="M6.75 8.25H9" stroke="#57534E" stroke-width="1.5" stroke-linecap="round"/>
</svg>
