<svg width="18" height="18" viewBox="0 0 18 18" fill="none" xmlns="http://www.w3.org/2000/svg">
<path d="M15 4.3125C15 5.34804 12.3137 6.1875 9 6.1875C5.68629 6.1875 3 5.34804 3 4.3125C3 3.27696 5.68629 2.4375 9 2.4375C12.3137 2.4375 15 3.27696 15 4.3125Z" stroke="currentColor" stroke-width="1.5"/>
<path d="M3 4.3125L3.90526 11.102C4.05677 12.2383 4.13252 12.8065 4.32786 13.2696C4.77518 14.3304 5.68495 15.1269 6.79552 15.4301C7.28048 15.5625 7.85362 15.5625 9 15.5625C10.1464 15.5625 10.7195 15.5625 11.2045 15.4301C12.3151 15.1269 13.2248 14.3304 13.6722 13.2696C13.8675 12.8065 13.9432 12.2383 14.0947 11.102L15 4.3125" stroke="currentColor" stroke-width="1.5"/>
</svg>
