<svg width="20" height="20" viewBox="0 0 20 20" fill="none" xmlns="http://www.w3.org/2000/svg">
<path d="M16.6667 4.79167C16.6667 5.94226 13.6819 6.875 10 6.875C6.31812 6.875 3.33333 5.94226 3.33333 4.79167C3.33333 3.64107 6.31812 2.70833 10 2.70833C13.6819 2.70833 16.6667 3.64107 16.6667 4.79167Z" stroke="#57534E" stroke-width="1.5"/>
<path d="M3.33333 4.79167L4.33918 12.3355C4.50752 13.5981 4.59169 14.2294 4.80873 14.7440C5.30575 15.9227 6.31661 16.8077 7.55058 17.1446C8.08942 17.2917 8.72625 17.2917 10 17.2917C11.2738 17.2917 11.9106 17.2917 12.4494 17.1446C13.6834 16.8077 14.6943 15.9227 15.1913 14.7440C15.4083 14.2294 15.4925 13.5981 15.6608 12.3355L16.6667 4.79167" stroke="#57534E" stroke-width="1.5"/>
</svg>
