<svg preserveAspectRatio="none" width="100%" height="100%" overflow="visible" style="display: block;" viewBox="0 0 16 16" fill="none" xmlns="http://www.w3.org/2000/svg">
<g id="IconLayoutAlignLeft">
<path id="Vector" d="M4.66667 10.6667C4.66667 11.0349 4.96515 11.3333 5.33333 11.3333C5.70152 11.3333 6 11.0349 6 10.6667H4.66667ZM6 5.33333C6 4.96515 5.70152 4.66667 5.33333 4.66667C4.96515 4.66667 4.66667 4.96515 4.66667 5.33333H6ZM12.6667 5.86667V10.1333H14V5.86667H12.6667ZM10.1333 12.6667H5.86667V14H10.1333V12.6667ZM3.33333 10.1333V5.86667H2V10.1333H3.33333ZM5.86667 3.33333H10.1333V2H5.86667V3.33333ZM5.86667 12.6667C5.29561 12.6667 4.90742 12.6661 4.60736 12.6416C4.31508 12.6177 4.16561 12.5745 4.06135 12.5213L3.45603 13.7093C3.77958 13.8742 4.12405 13.9399 4.49878 13.9705C4.86573 14.0005 5.31761 14 5.86667 14V12.6667ZM2 10.1333C2 10.6824 1.99948 11.1343 2.02946 11.5012C2.06008 11.8759 2.12579 12.2204 2.29065 12.544L3.47866 11.9387C3.42553 11.8344 3.38225 11.6849 3.35837 11.3927C3.33385 11.0926 3.33333 10.7044 3.33333 10.1333H2ZM4.06135 12.5213C3.81047 12.3935 3.60649 12.1895 3.47866 11.9387L2.29065 12.544C2.54631 13.0457 2.95426 13.4537 3.45603 13.7093L4.06135 12.5213ZM12.6667 10.1333C12.6667 10.7044 12.6661 11.0926 12.6416 11.3927C12.6177 11.6849 12.5745 11.8344 12.5213 11.9387L13.7093 12.544C13.8742 12.2204 13.9399 11.8759 13.9705 11.5012C14.0005 11.1343 14 10.6824 14 10.1333H12.6667ZM10.1333 14C10.6824 14 11.1343 14.0005 11.5012 13.9705C11.8759 13.9399 12.2204 13.8742 12.544 13.7093L11.9387 12.5213C11.8344 12.5745 11.6849 12.6177 11.3927 12.6416C11.0926 12.6661 10.7044 12.6667 10.1333 12.6667V14ZM12.5213 11.9387C12.3935 12.1895 12.1895 12.3935 11.9387 12.5213L12.544 13.7093C13.0457 13.4537 13.4537 13.0457 13.7093 12.544L12.5213 11.9387ZM14 5.86667C14 5.31761 14.0005 4.86573 13.9705 4.49878C13.9399 4.12405 13.8742 3.77958 13.7093 3.45603L12.5213 4.06135C12.5745 4.16561 12.6177 4.31508 12.6416 4.60736C12.6661 4.90742 12.6667 5.29561 12.6667 5.86667H14ZM10.1333 3.33333C10.7044 3.33333 11.0926 3.33385 11.3927 3.35837C11.6849 3.38225 11.8344 3.42553 11.9387 3.47866L12.544 2.29065C12.2204 2.12579 11.8759 2.06008 11.5012 2.02946C11.1343 1.99948 10.6824 2 10.1333 2V3.33333ZM13.7093 3.45603C13.4537 2.95426 13.0457 2.54631 12.544 2.29065L11.9387 3.47866C12.1895 3.60649 12.3935 3.81047 12.5213 4.06135L13.7093 3.45603ZM3.33333 5.86667C3.33333 5.29561 3.33385 4.90742 3.35837 4.60736C3.38225 4.31508 3.42553 4.16561 3.47866 4.06135L2.29065 3.45603C2.12579 3.77958 2.06008 4.12405 2.02946 4.49878C1.99948 4.86573 2 5.31761 2 5.86667H3.33333ZM5.86667 2C5.31761 2 4.86573 1.99948 4.49878 2.02946C4.12405 2.06008 3.77958 2.12579 3.45603 2.29065L4.06135 3.47866C4.16561 3.42553 4.31508 3.38225 4.60736 3.35837C4.90742 3.33385 5.29561 3.33333 5.86667 3.33333V2ZM3.47866 4.06135C3.60649 3.81046 3.81046 3.60649 4.06135 3.47866L3.45603 2.29065C2.95426 2.54631 2.54631 2.95426 2.29065 3.45603L3.47866 4.06135ZM6 10.6667V5.33333H4.66667V10.6667H6Z" fill="var(--fill-0, #A8A29E)"/>
</g>
</svg>
