<svg width="18" height="18" viewBox="0 0 18 18" fill="none" xmlns="http://www.w3.org/2000/svg">
<path d="M15.75 6H15V12H15.75H16.5V6H15.75ZM4.5 3.75V4.5H13.5V3.75V3H4.5V3.75ZM2.25 12H3V6H2.25H1.5V12H2.25ZM13.5 14.25V13.5H4.5V14.25V15H13.5V14.25ZM2.25 12H1.5C1.5 13.6568 2.84314 15 4.5 15V14.25V13.5C3.67157 13.5 3 12.8284 3 12H2.25ZM4.5 3.75V3C2.84314 3 1.5 4.34314 1.5 6H2.25H3C3 5.17157 3.67157 4.5 4.5 4.5V3.75ZM15.75 12H15C15 12.8284 14.3284 13.5 13.5 13.5V14.25V15C15.1569 15 16.5 13.6568 16.5 12H15.75ZM15.75 6H16.5C16.5 4.34314 15.1569 3 13.5 3V3.75V4.5C14.3284 4.5 15 5.17157 15 6H15.75Z" fill="black"/>
<path d="M15.75 6.375L10.0062 9.2469C9.37275 9.56362 8.62718 9.56362 7.99373 9.2469L2.25 6.375" stroke="black" stroke-width="1.5" stroke-linejoin="round"/>
</svg>
