<svg preserveAspectRatio="none" width="100%" height="100%" overflow="visible" style="display: block;" viewBox="0 0 15 15" fill="none" xmlns="http://www.w3.org/2000/svg">
<g id="IconBlossom">
<path id="Vector" d="M4.6875 7.5C3.1342 7.5 1.875 6.2408 1.875 4.6875C1.875 3.1342 3.1342 1.875 4.6875 1.875C6.2408 1.875 7.5 3.1342 7.5 4.6875M4.6875 7.5C3.1342 7.5 1.875 8.75919 1.875 10.3125C1.875 11.8658 3.1342 13.125 4.6875 13.125C6.2408 13.125 7.5 11.8658 7.5 10.3125M4.6875 7.5H5.625M7.5 4.6875C7.5 3.1342 8.75919 1.875 10.3125 1.875C11.8658 1.875 13.125 3.1342 13.125 4.6875C13.125 6.2408 11.8658 7.5 10.3125 7.5M7.5 4.6875V5.625M7.5 10.3125C7.5 11.8658 8.75919 13.125 10.3125 13.125C11.8658 13.125 13.125 11.8658 13.125 10.3125C13.125 8.75919 11.8658 7.5 10.3125 7.5M7.5 10.3125V9.375M10.3125 7.5H9.375" stroke="black" stroke-width="1.25" stroke-linecap="round" stroke-linejoin="round"/>
<path id="Vector_2" d="M7.5 9.375C8.53556 9.375 9.375 8.53556 9.375 7.5C9.375 6.46444 8.53556 5.625 7.5 5.625C6.46444 5.625 5.625 6.46444 5.625 7.5C5.625 8.53556 6.46444 9.375 7.5 9.375Z" stroke="black" stroke-width="1.25" stroke-linecap="round" stroke-linejoin="round"/>
<path id="Vector_3" d="M5.9375 5.9375L5 5M9.0625 5.9375L10 5M9.0625 9.0625L10 10M5.9375 9.0625L5 10" stroke="black" stroke-width="1.25" stroke-linecap="round" stroke-linejoin="round"/>
</g>
</svg>
