<svg viewBox="0 0 16 16" fill="none" xmlns="http://www.w3.org/2000/svg">
<path d="M5.33333 5C5.33333 5.18409 5.18409 5.33333 5 5.33333C4.81591 5.33333 4.66667 5.18409 4.66667 5C4.66667 4.81591 4.81591 4.66667 5 4.66667C5.18409 4.66667 5.33333 4.81591 5.33333 5Z" stroke="currentColor" stroke-width="1.333" stroke-linecap="square"/>
<path d="M2 7.1716V4C2 2.89543 2.89543 2 4 2H7.1716C7.702 2 8.21073 2.21071 8.5858 2.58579L13.4191 7.41913C14.2002 8.2002 14.2002 9.46647 13.4191 10.2475L10.2475 13.4191C9.46647 14.2002 8.2002 14.2002 7.41913 13.4191L2.58579 8.5858C2.21071 8.21073 2 7.702 2 7.1716Z" stroke="currentColor" stroke-width="1.333" stroke-linecap="square" stroke-linejoin="round"/>
<path d="M4.93229 5H5.06563" stroke="currentColor" stroke-width="1.333" stroke-linecap="square" stroke-linejoin="round"/>
</svg>
