<svg width="18" height="18" viewBox="0 0 18 18" fill="none" xmlns="http://www.w3.org/2000/svg">
<path d="M6.56802 3H4.5C3.25736 3 2.25 4.00736 2.25 5.25V12C2.25 13.2427 3.25736 14.25 4.5 14.25H13.5C14.7427 14.25 15.75 13.2427 15.75 12V6.75C15.75 5.50736 14.7427 4.5 13.5 4.5H9.93195C9.33525 4.5 8.76292 4.26295 8.34097 3.84099L8.15903 3.65901C7.73708 3.23705 7.16476 3 6.56802 3Z" stroke="currentColor" stroke-width="1.5" stroke-linecap="round" stroke-linejoin="round"/>
<path d="M15.75 9.75C15.75 8.50732 14.7427 7.5 13.5 7.5H4.5C3.25736 7.5 2.25 8.50732 2.25 9.75" stroke="currentColor" stroke-width="1.5" stroke-linecap="round" stroke-linejoin="round"/>
</svg>
