<svg width="16" height="16" viewBox="0 0 16 16" fill="none" xmlns="http://www.w3.org/2000/svg">
<path d="M5.83824 2.66663H4C2.89543 2.66663 2 3.56206 2 4.66663V10.6666C2 11.7712 2.89543 12.6666 4 12.6666H12C13.1046 12.6666 14 11.7712 14 10.6666V5.99996C14 4.89539 13.1046 3.99996 12 3.99996H8.8284C8.298 3.99996 7.78927 3.78925 7.4142 3.41417L7.25247 3.25241C6.8774 2.87734 6.36867 2.66663 5.83824 2.66663Z" stroke="#57534E" stroke-width="1.33333" stroke-linecap="round" stroke-linejoin="round"/>
<path d="M14 8.66663C14 7.56203 13.1046 6.66663 12 6.66663H4C2.89543 6.66663 2 7.56203 2 8.66663" stroke="#57534E" stroke-width="1.33333" stroke-linecap="round" stroke-linejoin="round"/>
</svg>
