<svg viewBox="0 0 15 15" fill="none" xmlns="http://www.w3.org/2000/svg">
<g id="IconFolder2">
<path id="Vector" d="M5.47335 2.5H3.75C2.71447 2.5 1.875 3.33947 1.875 4.375V10C1.875 11.0356 2.71447 11.875 3.75 11.875H11.25C12.2856 11.875 13.125 11.0356 13.125 10V5.625C13.125 4.58947 12.2856 3.75 11.25 3.75H8.27663C7.77938 3.75 7.30244 3.55246 6.95081 3.20082L6.79919 3.04918C6.44756 2.69754 5.97063 2.5 5.47335 2.5Z" stroke="black" stroke-width="1.25" stroke-linecap="round" stroke-linejoin="round"/>
<path id="Vector_2" d="M13.125 8.125C13.125 7.08944 12.2856 6.25 11.25 6.25H3.75C2.71447 6.25 1.875 7.08944 1.875 8.125" stroke="black" stroke-width="1.25" stroke-linecap="round" stroke-linejoin="round"/>
</g>
</svg>
