<svg width="16" height="16" viewBox="0 0 16 16" fill="none" xmlns="http://www.w3.org/2000/svg">
<path d="M9.95947 3.93079C9.65647 4.01915 9.3404 4.1342 9.01607 4.2747C8.36913 4.55492 7.6304 4.55492 6.98347 4.2747C6.65911 4.1342 6.34308 4.01915 6.04009 3.93079M9.95947 3.93079C11.1915 3.5715 12.2078 3.65338 12.6909 4.25918C13.1739 4.86497 13.0276 5.874 12.4031 6.99513M9.95947 3.93079C9.47227 2.74353 8.7746 2 7.9998 2C7.22493 2 6.5273 2.74353 6.04009 3.93079M9.95947 3.93079C10.0793 4.22278 10.1864 4.5416 10.2787 4.88279C10.463 5.56331 10.9236 6.14087 11.546 6.47197C11.8581 6.63798 12.1451 6.81333 12.4031 6.99513M6.04009 3.93079C4.80807 3.5715 3.79178 3.65338 3.30869 4.25918C2.82561 4.86498 2.97198 5.874 3.59647 6.99513M6.04009 3.93079C5.92027 4.22278 5.81317 4.5416 5.72079 4.8828C5.53653 5.56331 5.07596 6.14087 4.45353 6.47197C4.14145 6.63798 3.85446 6.81333 3.59647 6.99513M12.4031 6.99513C13.4521 7.7344 14.0217 8.58 13.8493 9.3354C13.6768 10.0908 12.7967 10.6055 11.5307 10.8162M12.4031 6.99513C12.2495 7.27087 12.067 7.5534 11.8578 7.83833C11.4407 8.40667 11.2763 9.12687 11.4055 9.81993C11.4702 10.1675 11.5121 10.5011 11.5307 10.8162M3.59647 6.99513C2.54743 7.7344 1.97782 8.58 2.15027 9.3354C2.32273 10.0908 3.20289 10.6055 4.46881 10.8162M3.59647 6.99513C3.75005 7.27087 3.93255 7.5534 4.14172 7.83833C4.5589 8.40667 4.72331 9.12687 4.59411 9.81993C4.52933 10.1675 4.48751 10.5011 4.46881 10.8162M11.5307 10.8162C11.6068 12.0973 11.3008 13.0699 10.6027 13.406C9.90467 13.7421 8.95367 13.375 7.9998 12.5169M11.5307 10.8162C11.2195 10.868 10.8851 10.9015 10.5321 10.9156C9.82753 10.9438 9.16187 11.2644 8.70053 11.7976C8.46927 12.065 8.2344 12.3058 7.9998 12.5169M7.9998 12.5169C7.04587 13.375 6.09491 13.7421 5.39688 13.406C4.69875 13.0699 4.39273 12.0973 4.46881 10.8162M7.9998 12.5169C7.76513 12.3058 7.53027 12.065 7.299 11.7976C6.83767 11.2644 6.17205 10.9438 5.46751 10.9156C5.11449 10.9015 4.77999 10.868 4.46881 10.8162" stroke="currentColor" stroke-width="1.33333" stroke-linejoin="round"/>
</svg>
