<svg width="18" height="18" viewBox="0 0 18 18" fill="none" xmlns="http://www.w3.org/2000/svg">
<path d="M9.75 4.125H15" stroke="#57534E" stroke-width="1.5" stroke-linecap="round" stroke-linejoin="round"/>
<path d="M9.75 6.375H12.75" stroke="#57534E" stroke-width="1.5" stroke-linecap="round" stroke-linejoin="round"/>
<path d="M9.75 11.625H15" stroke="#57534E" stroke-width="1.5" stroke-linecap="round" stroke-linejoin="round"/>
<path d="M9.75 13.875H12.75" stroke="#57534E" stroke-width="1.5" stroke-linecap="round" stroke-linejoin="round"/>
<path d="M3 12.75C3 11.9216 3.67157 11.25 4.5 11.25C5.32843 11.25 6 11.9216 6 12.75C6 13.5784 5.32843 14.25 4.5 14.25C3.67157 14.25 3 13.5784 3 12.75Z" stroke="#57534E" stroke-width="1.5" stroke-linecap="round" stroke-linejoin="round"/>
<path d="M3 5.25C3 4.42157 3.67157 3.75 4.5 3.75C5.32843 3.75 6 4.42157 6 5.25C6 6.07843 5.32843 6.75 4.5 6.75C3.67157 6.75 3 6.07843 3 5.25Z" stroke="#57534E" stroke-width="1.5" stroke-linecap="round" stroke-linejoin="round"/>
</svg>
