<svg width="18" height="18" viewBox="0 0 18 18" fill="none" xmlns="http://www.w3.org/2000/svg">
<path d="M3.75 14.625V4.5C3.75 3.25736 4.75736 2.25 6 2.25H13.5C13.9142 2.25 14.25 2.58579 14.25 3V13.5H4.875C4.25368 13.5 3.75 14.0037 3.75 14.625ZM3.75 14.625C3.75 15.2463 4.25368 15.75 4.875 15.75H14.25" stroke="black" stroke-width="1.5" stroke-linecap="round" stroke-linejoin="round"/>
<path d="M9.00112 9C7.86495 9 7.587 9.47678 7.521 9.67005C7.5066 9.71205 7.5396 9.75 7.584 9.75H10.4182C10.4626 9.75 10.4956 9.71205 10.4812 9.67005C10.4152 9.47678 10.1373 9 9.00112 9Z" stroke="black" stroke-width="1.5" stroke-linecap="round" stroke-linejoin="round"/>
<path d="M9.5625 6.5625C9.5625 6.87316 9.31065 7.125 9 7.125C8.68935 7.125 8.4375 6.87316 8.4375 6.5625M9.5625 6.5625C9.5625 6.25184 9.31065 6 9 6C8.68935 6 8.4375 6.25184 8.4375 6.5625M9.5625 6.5625H8.4375" stroke="black" stroke-width="1.5" stroke-linecap="round" stroke-linejoin="round"/>
</svg>
