<svg width="18" height="18" viewBox="0 0 18 18" fill="none" xmlns="http://www.w3.org/2000/svg">
<path d="M3 5.25C3 4.00736 4.00736 3 5.25 3H12.75C13.9927 3 15 4.00736 15 5.25V12.75C15 13.9927 13.9927 15 12.75 15H5.25C4.00736 15 3 13.9927 3 12.75V5.25Z" stroke="currentColor" stroke-width="1.5"/>
<path d="M12 15L7.59098 10.591C6.71231 9.71237 5.28769 9.71237 4.40901 10.591L3 12" stroke="currentColor" stroke-width="1.5"/>
<path d="M10.875 8.625C11.7034 8.625 12.375 7.95343 12.375 7.125C12.375 6.29657 11.7034 5.625 10.875 5.625C10.0466 5.625 9.375 6.29657 9.375 7.125C9.375 7.95343 10.0466 8.625 10.875 8.625Z" stroke="currentColor" stroke-width="1.5"/>
</svg>
