<svg width="29" height="4" viewBox="0 0 28.4908 3.48498" fill="none" xmlns="http://www.w3.org/2000/svg">
<path d="M0.240781 1.49328L0.481562 1.23927L0.380303 1.14328H0.240781V1.49328ZM3.54901 2.96004L3.4983 2.61373L3.54901 2.96004ZM9.19801 2.97497L9.17218 2.62592L9.19801 2.97497ZM9.91355 2.93399L9.89938 2.58427L9.91355 2.93399ZM13.6796 1.60464L13.5097 1.2986V1.2986L13.6796 1.60464ZM22.379 0.607957L22.1596 0.335263L22.379 0.607957ZM23.0946 0.353514L23.062 0.701997L23.0946 0.353514ZM24.262 0.462548L24.2295 0.811031L24.262 0.462548ZM24.9776 0.501641L24.9831 0.151685L24.9776 0.501641ZM26.145 0.520173L26.1395 0.870129L26.145 0.520173ZM28.1408 1.51038H28.4908V1.21516L28.1998 1.16539L28.1408 1.51038ZM28.0408 1.49328V1.14328L27.9818 1.83828L28.0408 1.49328ZM0.140781 1.49328V1.84328H0.240781V1.49328V1.14328H0.140781V1.49328ZM0.240781 1.49328L0 1.7473L1.10546 2.79516L1.34624 2.54114L1.58702 2.28713L0.481562 1.23927L0.240781 1.49328ZM1.34624 2.54114L1.10546 2.79516C1.3416 3.019 1.56388 3.19607 1.77058 3.31383C1.9706 3.42779 2.19974 3.51135 2.43226 3.4773L2.38155 3.13099L2.33084 2.78469C2.32484 2.78556 2.26218 2.78828 2.1171 2.70562C1.97869 2.62676 1.80258 2.49145 1.58702 2.28713L1.34624 2.54114ZM2.38155 3.13099L2.43226 3.4773L3.01599 3.39182L2.96528 3.04552L2.91457 2.69921L2.33084 2.78469L2.38155 3.13099ZM2.96528 3.04552L3.01599 3.39182L3.59972 3.30635L3.54901 2.96004L3.4983 2.61373L2.91457 2.69921L2.96528 3.04552ZM3.54901 2.96004L3.59972 3.30635C3.97177 3.25187 4.2826 2.9917 4.54312 2.64921L4.26455 2.43731L3.98598 2.22542C3.76948 2.51004 3.60328 2.59836 3.4983 2.61373L3.54901 2.96004ZM4.26455 2.43731L4.54312 2.64921L5.12685 1.88182L4.84828 1.66992L4.56971 1.45802L3.98598 2.22542L4.26455 2.43731ZM4.84828 1.66992L5.12685 1.88182L5.71058 1.11442L5.43201 0.902526L5.15344 0.69063L4.56971 1.45802L4.84828 1.66992ZM5.43201 0.902526L5.71058 1.11442C5.75422 1.05705 5.78462 1.03255 5.79818 1.02397C5.80834 1.01753 5.79773 1.0267 5.77305 1.02552C5.74978 1.0244 5.74501 1.01549 5.76247 1.02822C5.782 1.04246 5.81631 1.07472 5.86204 1.13921L6.14755 0.936766L6.43306 0.734324C6.29536 0.540111 6.09109 0.339935 5.80651 0.326318C5.51301 0.312273 5.29664 0.502374 5.15344 0.69063L5.43201 0.902526ZM6.14755 0.936766L5.86204 1.13921L6.44577 1.96247L6.73128 1.76002L7.01679 1.55758L6.43306 0.734324L6.14755 0.936766ZM6.73128 1.76002L6.44577 1.96247L7.0295 2.78573L7.31501 2.58328L7.60052 2.38084L7.01679 1.55758L6.73128 1.76002ZM7.31501 2.58328L7.0295 2.78573C7.28686 3.14869 7.62674 3.44223 8.05639 3.41043L8.03055 3.06138L8.00472 2.71234C7.95734 2.71584 7.82019 2.69065 7.60052 2.38084L7.31501 2.58328ZM8.03055 3.06138L8.05639 3.41043L8.64012 3.36722L8.61428 3.01817L8.58845 2.66913L8.00472 2.71234L8.03055 3.06138ZM8.61428 3.01817L8.64012 3.36722L9.22385 3.32401L9.19801 2.97497L9.17218 2.62592L8.58845 2.66913L8.61428 3.01817ZM9.19801 2.97497L9.22385 3.32401C9.45848 3.30665 9.69311 3.29321 9.92773 3.2837L9.91355 2.93399L9.89938 2.58427C9.65697 2.5941 9.41456 2.60798 9.17218 2.62592L9.19801 2.97497ZM9.91355 2.93399L9.92773 3.2837L10.5115 3.26004L10.4973 2.91033L10.4831 2.56061L9.89938 2.58427L9.91355 2.93399ZM10.4973 2.91033L10.5115 3.26004L11.0952 3.23638L11.081 2.88667L11.0668 2.53696L10.4831 2.56061L10.4973 2.91033ZM11.081 2.88667L11.0952 3.23638C11.3972 3.22414 11.6896 3.13225 11.9693 2.97343L11.7966 2.66906L11.6238 2.36468C11.4265 2.47668 11.2418 2.52986 11.0668 2.53696L11.081 2.88667ZM11.7966 2.66906L11.9693 2.97343L12.5531 2.64203L12.3803 2.33766L12.2075 2.03329L11.6238 2.36468L11.7966 2.66906ZM12.3803 2.33766L12.5531 2.64203L13.1368 2.31064L12.964 2.00627L12.7912 1.7019L12.2075 2.03329L12.3803 2.33766ZM12.964 2.00627L13.1368 2.31064C13.3743 2.17579 13.6119 2.04247 13.8494 1.91068L13.6796 1.60464L13.5097 1.2986C13.2702 1.4315 13.0307 1.56593 12.7912 1.7019L12.964 2.00627ZM13.6796 1.60464L13.8494 1.91068L14.4331 1.58678L14.2633 1.28074L14.0935 0.974694L13.5097 1.2986L13.6796 1.60464ZM14.2633 1.28074L14.4331 1.58678L15.0168 1.26288L14.847 0.956834L14.6772 0.650791L14.0935 0.974694L14.2633 1.28074ZM14.847 0.956834L15.0168 1.26288C15.0728 1.2318 15.108 1.23106 15.1359 1.23665C15.1707 1.24365 15.2327 1.2694 15.3206 1.35347L15.5626 1.10055L15.8045 0.847634C15.6539 0.703545 15.4773 0.591258 15.2737 0.550355C15.063 0.508042 14.8597 0.549518 14.6772 0.650791L14.847 0.956834ZM15.5626 1.10055L15.3206 1.35347L15.9043 1.91186L16.1463 1.65894L16.3882 1.40602L15.8045 0.847634L15.5626 1.10055ZM16.1463 1.65894L15.9043 1.91186L16.4881 2.47024L16.73 2.21733L16.9719 1.96441L16.3882 1.40602L16.1463 1.65894ZM16.73 2.21733L16.4881 2.47024C16.6467 2.62194 16.8466 2.73779 17.084 2.74037C17.3222 2.74295 17.5242 2.63071 17.6846 2.48077L17.4456 2.22509L17.2065 1.96942C17.1284 2.04246 17.0919 2.04041 17.0916 2.04041C17.0904 2.0404 17.0519 2.04087 16.9719 1.96441L16.73 2.21733ZM17.4456 2.22509L17.6846 2.48077L18.2683 1.93505L18.0293 1.67938L17.7903 1.4237L17.2065 1.96942L17.4456 2.22509ZM18.0293 1.67938L18.2683 1.93505L18.852 1.38933L18.613 1.13366L18.374 0.877989L17.7903 1.4237L18.0293 1.67938ZM18.613 1.13366L18.852 1.38933C18.9392 1.30782 19.0011 1.28259 19.0369 1.27571C19.0662 1.27007 19.1029 1.27137 19.1598 1.30267L19.3286 0.996019L19.4973 0.689364C19.3156 0.589445 19.1139 0.548076 18.9047 0.588316C18.7019 0.627316 18.5253 0.736519 18.374 0.877989L18.613 1.13366ZM19.3286 0.996019L19.1598 1.30267L19.7436 1.62382L19.9123 1.31716L20.081 1.01051L19.4973 0.689364L19.3286 0.996019ZM19.9123 1.31716L19.7436 1.62382L20.3273 1.94496L20.496 1.63831L20.6647 1.33165L20.081 1.01051L19.9123 1.31716ZM20.496 1.63831L20.3273 1.94496C20.5025 2.04134 20.6957 2.08689 20.8979 2.06117C21.0967 2.03588 21.2749 1.94553 21.431 1.81997L21.2116 1.54728L20.9921 1.27459C20.9097 1.34093 20.8493 1.36171 20.8096 1.36676C20.7733 1.37138 20.728 1.36649 20.6647 1.33165L20.496 1.63831ZM21.2116 1.54728L21.431 1.81997L22.0147 1.35031L21.7953 1.07762L21.5759 0.804924L20.9921 1.27459L21.2116 1.54728ZM21.7953 1.07762L22.0147 1.35031L22.5984 0.88065L22.379 0.607957L22.1596 0.335263L21.5759 0.804924L21.7953 1.07762ZM22.379 0.607957L22.5984 0.88065C22.7866 0.72926 22.9374 0.690361 23.062 0.701997L23.0946 0.353514L23.1271 0.00503016C22.7747 -0.0278848 22.4485 0.102844 22.1596 0.335263L22.379 0.607957ZM23.0946 0.353514L23.062 0.701997L23.6457 0.756514L23.6783 0.408031L23.7108 0.0595472L23.1271 0.00503016L23.0946 0.353514ZM23.6783 0.408031L23.6457 0.756514L24.2295 0.811031L24.262 0.462548L24.2946 0.114064L23.7108 0.0595472L23.6783 0.408031ZM24.262 0.462548L24.2295 0.811031C24.4769 0.834141 24.7244 0.847667 24.972 0.851596L24.9776 0.501641L24.9831 0.151685C24.7536 0.148042 24.5241 0.135505 24.2946 0.114064L24.262 0.462548ZM24.9776 0.501641L24.972 0.851596L25.5557 0.860863L25.5613 0.510907L25.5668 0.160951L24.9831 0.151685L24.9776 0.501641ZM25.5613 0.510907L25.5557 0.860863L26.1395 0.870129L26.145 0.520173L26.1506 0.170217L25.5668 0.160951L25.5613 0.510907ZM26.145 0.520173L26.1395 0.870129C26.3142 0.872902 26.4762 0.919849 26.6314 1.01476L26.814 0.716163L26.9966 0.417565C26.7368 0.258729 26.4529 0.175016 26.1506 0.170217L26.145 0.520173ZM26.814 0.716163L26.6314 1.01476L27.1392 1.32527L27.3218 1.02667L27.5044 0.728072L26.9966 0.417565L26.814 0.716163ZM27.3218 1.02667L27.1392 1.32527L27.647 1.63577L27.8296 1.33718L28.0122 1.03858L27.5044 0.728072L27.3218 1.02667ZM27.8296 1.33718L27.647 1.63577C27.751 1.69941 27.8307 1.74759 27.885 1.77965C27.9116 1.79534 27.9349 1.80887 27.9529 1.81876C27.9606 1.823 27.9739 1.8302 27.9883 1.83686C27.9922 1.83872 28.0128 1.84846 28.0395 1.85643C28.0457 1.85826 28.0923 1.87315 28.153 1.87098C28.1819 1.86994 28.2616 1.86407 28.3422 1.80734C28.445 1.73495 28.4908 1.62258 28.4908 1.52099H28.1408H27.7908C27.7908 1.41953 27.8365 1.30727 27.9392 1.23494C28.0197 1.17829 28.0992 1.17245 28.128 1.17143C28.1883 1.16927 28.2343 1.18404 28.2396 1.18563C28.2647 1.19312 28.2828 1.20186 28.2836 1.20221C28.2914 1.20585 28.295 1.20799 28.2897 1.20511C28.2818 1.20077 28.2663 1.19186 28.241 1.17692C28.1915 1.14771 28.1156 1.10182 28.0122 1.03858L27.8296 1.33718ZM28.1408 1.52099H28.4908V1.51038H28.1408H27.7908V1.52099H28.1408ZM28.1408 1.51038L28.1998 1.16539L28.0998 1.14829L28.0408 1.49328L27.9818 1.83828L28.0818 1.85538L28.1408 1.51038ZM28.0408 1.49328V1.84328H28.1408V1.49328V1.14328H28.0408V1.49328Z" fill="currentColor"/>
</svg>
