<svg width="18" height="18" viewBox="0 0 18 18" fill="none" xmlns="http://www.w3.org/2000/svg">
<path d="M7.96875 5.38323L8.06287 4.48765C8.19277 3.25182 9.29992 2.35527 10.5358 2.48516L13.5193 2.79875C14.7551 2.92864 15.6517 4.03578 15.5218 5.27161L14.973 10.4929C14.8431 11.7287 13.736 12.6252 12.5002 12.4953L10.5008 12.2852" stroke="currentColor" stroke-width="1.5" stroke-linecap="round" stroke-linejoin="round"/>
<path d="M2.45001 8.2716C2.32012 7.03578 3.21666 5.92864 4.45249 5.79875L7.43605 5.48516C8.67187 5.35527 9.77903 6.25181 9.90893 7.48765L10.4577 12.7089C10.5876 13.9447 9.69105 15.0518 8.4552 15.1817L5.47165 15.4953C4.23581 15.6252 3.12867 14.7286 2.99878 13.4929L2.45001 8.2716Z" stroke="currentColor" stroke-width="1.5" stroke-linecap="round" stroke-linejoin="round"/>
</svg>
