<svg width="16" height="16" viewBox="0 0 16 16" fill="none" xmlns="http://www.w3.org/2000/svg">
<path d="M4 2.66663H5.5963C6.26501 2.66663 6.88947 3.00083 7.2604 3.55723L7.6042 4.07289C7.85147 4.44383 8.2678 4.66663 8.7136 4.66663H12C12.7364 4.66663 13.3333 5.26358 13.3333 5.99996V7.33329H13.7599C14.2096 7.33329 14.5303 7.76949 14.3962 8.19883L13.2924 11.731C13.1185 12.2876 12.6029 12.6666 12.0197 12.6666H2.96051C2.43003 12.6666 2 12.2366 2 11.7061V4.66663C2 3.56206 2.89543 2.66663 4 2.66663Z" stroke="#57534E" stroke-width="1.33333" stroke-linecap="round" stroke-linejoin="round"/>
<path d="M2.96094 12.6667C3.38104 12.6667 3.75241 12.3937 3.87772 11.9927L5.04138 8.26897C5.21532 7.71237 5.73083 7.33337 6.31401 7.33337H13.3337" stroke="#57534E" stroke-width="1.33333" stroke-linecap="round" stroke-linejoin="round"/>
</svg>
