<svg width="18" height="18" viewBox="0 0 18 18" fill="none" xmlns="http://www.w3.org/2000/svg">
<path d="M4.5 3H6.29584C7.04813 3 7.75065 3.37597 8.16795 4.00192L8.55472 4.58205C8.8329 4.99935 9.30128 5.25 9.8028 5.25H13.5C14.3284 5.25 15 5.92157 15 6.75V8.25H15.4798C15.9858 8.25 16.3466 8.74072 16.1957 9.22372L14.954 13.1974C14.7583 13.8236 14.1783 14.25 13.5222 14.25H3.33057C2.73379 14.25 2.25 13.7662 2.25 13.1694V5.25C2.25 4.00736 3.25736 3 4.5 3Z" stroke="currentColor" stroke-width="1.5" stroke-linecap="round" stroke-linejoin="round"/>
<path d="M3.33106 14.25C3.80368 14.25 4.22146 13.9429 4.36244 13.4918L5.67155 9.30255C5.86724 8.67638 6.44719 8.25 7.10327 8.25H15.0005" stroke="currentColor" stroke-width="1.5" stroke-linecap="round" stroke-linejoin="round"/>
</svg>
