<svg width="18" height="18" viewBox="0 0 18 18" fill="none" xmlns="http://www.w3.org/2000/svg">
<path d="M11.3726 12.8384L4.33576 15.6104C3.11569 16.091 1.90973 14.885 2.39041 13.6649L5.16271 6.62837C5.55868 5.62333 6.85513 5.35371 7.61895 6.11754L11.8835 10.3821C12.6474 11.146 12.3778 12.4425 11.3726 12.8384Z" stroke="black" stroke-width="1.5" stroke-linecap="round" stroke-linejoin="round"/>
<path d="M10.5 1.5C10.5 1.5 10.6333 2.28001 10.5 3C10.3564 3.77545 9.75 4.5 9.75 4.5" stroke="black" stroke-width="1.5" stroke-linecap="round" stroke-linejoin="round"/>
<path d="M11.625 6.375L12.375 5.625" stroke="black" stroke-width="1.5" stroke-linecap="round" stroke-linejoin="round"/>
<path d="M13.7256 3.5625L14.0631 2.625" stroke="black" stroke-width="1.5" stroke-linecap="round" stroke-linejoin="round"/>
<path d="M15 6L15.75 5.625" stroke="black" stroke-width="1.5" stroke-linecap="round" stroke-linejoin="round"/>
<path d="M13.5 8.25C13.5 8.25 14.0671 8.274 14.625 8.4525C15.1279 8.61345 15.75 9 15.75 9" stroke="black" stroke-width="1.5" stroke-linecap="round" stroke-linejoin="round"/>
</svg>
