<svg width="18" height="18" viewBox="0 0 18 18" fill="none" xmlns="http://www.w3.org/2000/svg">
<path d="M7.8975 2.87047C8.5824 2.48521 9.4188 2.48521 10.1036 2.87047L13.8537 4.97982C14.5621 5.37834 14.9006 6.12799 14.9006 6.94088V11.0591C14.9006 11.872 14.5621 12.6217 13.8536 13.0201L10.1036 15.1295C9.4188 15.5147 8.5824 15.5147 7.8975 15.1295L4.14756 13.0203C3.43905 12.6218 3.10058 11.8721 3.10058 11.0592V6.94086C3.10058 6.12799 3.43903 5.37832 4.1475 4.9798L7.8975 2.87047Z" stroke="currentColor" stroke-width="1.5" stroke-linecap="square" stroke-linejoin="round"/>
<path d="M13.8531 4.97981L10.1031 2.87046C9.4188 2.48521 8.58187 2.48521 7.8969 2.87046L4.14693 4.9798C3.43844 5.37831 3.1 6.12798 3.1 6.94086V11.0592C3.1 11.8721 3.43847 12.6218 4.14699 13.0203L7.89697 15.1295C8.58187 15.5147 9.4188 15.5147 10.1055 15.1295L13.8531 13.0201C14.5616 12.6216 14.9 11.872 14.9 11.0591V6.94087C14.9 6.12799 14.5616 5.37833 13.8531 4.97981Z" stroke="currentColor" stroke-width="1.5" stroke-linecap="square" stroke-linejoin="round"/>
<path d="M9 11.25C10.2427 11.25 11.25 10.2427 11.25 9C11.25 7.75733 10.2427 6.75 9 6.75C7.75733 6.75 6.75 7.75733 6.75 9C6.75 10.2427 7.75733 11.25 9 11.25Z" stroke="currentColor" stroke-width="1.5" stroke-linecap="square" stroke-linejoin="round"/>
</svg>
