<svg width="14" height="14" viewBox="0 0 14 14" fill="none" xmlns="http://www.w3.org/2000/svg">
<g id="IconTitleCase">
<path id="Vector" d="M1.3564 10.7477C1.76062 10.7477 1.98799 10.5456 2.12946 10.0606L2.51347 8.92372H5.14593L5.52994 10.0757C5.66636 10.5507 5.89371 10.7477 6.32322 10.7477C6.76783 10.7477 7.08616 10.4496 7.08616 10.0302C7.08616 9.87863 7.0609 9.74225 6.9902 9.5452L4.9893 4.11857C4.77203 3.52234 4.41834 3.2596 3.82212 3.2596C3.24611 3.2596 2.88737 3.53245 2.67515 4.12362L0.68439 9.5452C0.618701 9.7321 0.583333 9.90389 0.583333 10.0302C0.583333 10.4698 0.881446 10.7477 1.3564 10.7477ZM2.84695 7.74136L3.79181 4.75521H3.82717L4.79224 7.74136H2.84695Z" fill="currentColor"/>
<path id="Vector_2" d="M9.72087 10.7376C10.3979 10.7376 11.075 10.3991 11.3782 9.82308H11.4085V10.101C11.4388 10.5355 11.7167 10.7578 12.1159 10.7578C12.5353 10.7578 12.8334 10.5052 12.8334 10.0151V6.92788C12.8334 5.83646 11.9289 5.11898 10.5394 5.11898C9.41771 5.11898 8.54866 5.51814 8.29602 6.16488C8.2455 6.27606 8.22025 6.38217 8.22025 6.49837C8.22025 6.83186 8.4779 7.06426 8.83665 7.06426C9.07413 7.06426 9.26109 6.97332 9.42279 6.79144C9.7512 6.367 10.024 6.22047 10.4737 6.22047C11.0295 6.22047 11.3833 6.51354 11.3833 7.01882V7.37757L10.019 7.45836C8.66486 7.53921 7.907 8.11018 7.907 9.09549C7.907 10.0706 8.69012 10.7376 9.72087 10.7376ZM10.206 9.67147C9.71078 9.67147 9.37729 9.41883 9.37729 9.01464C9.37729 8.63063 9.6906 8.383 10.2413 8.34264L11.3833 8.27188V8.66598C11.3833 9.25211 10.8527 9.67147 10.206 9.67147Z" fill="currentColor"/>
</g>
</svg>
