<svg viewBox="0 0 16 16" fill="none" xmlns="http://www.w3.org/2000/svg">
<path d="M6.66626 12.6669L6.55188 12.7813C5.51049 13.8227 3.82205 13.8227 2.78065 12.7813L2.55188 12.5525C1.51049 11.5111 1.51048 9.82267 2.55188 8.78127L4.78065 6.55253C5.82205 5.51113 7.51046 5.51113 8.55186 6.55253L8.78066 6.78127C9.21639 7.21707 9.46979 7.76607 9.54093 8.3336" stroke="currentColor" stroke-width="1.333" stroke-linecap="round" stroke-linejoin="round"/>
<path d="M6.45833 8.3336C6.52943 8.90107 6.78287 9.45013 7.21861 9.88587L7.44734 10.1146C8.48874 11.156 10.1772 11.156 11.2186 10.1146L13.4473 7.88587C14.4887 6.84447 14.4887 5.15603 13.4473 4.11463L13.2186 3.88587C12.1772 2.84447 10.4887 2.84447 9.44734 3.88587L9.33301 4.00025" stroke="currentColor" stroke-width="1.333" stroke-linecap="round" stroke-linejoin="round"/>
</svg>
