<svg viewBox="0 0 30.0613 35.0012" fill="none" xmlns="http://www.w3.org/2000/svg">
<path d="M10.5653 9.87913C10.6209 9.95856 10.8286 11.042 10.9029 11.7211C10.9327 11.993 11.0294 12.3101 11.0964 12.5707C11.1389 12.7366 11.1918 12.9333 11.164 13.1641M11.164 13.1641C11.1522 13.2625 11.1258 13.367 11.0776 13.478C11.0178 13.6159 10.5142 14.0376 9.80083 14.7843C9.29025 15.3188 9.23647 15.9525 9.14677 16.3845C9.04079 16.8949 9.00634 17.1861 9.00015 18.3081C8.99826 18.6501 9.03165 18.8318 9.08165 19.0983C9.16216 19.5276 9.25515 20.0938 9.3791 20.5965C9.5018 21.094 9.65277 21.4159 9.86919 21.9526C10.0103 22.3024 10.2011 22.5046 10.3081 22.6743C10.355 22.7487 10.7075 23.0358 11.326 23.5369C11.9167 24.0154 12.5261 24.2425 13.1131 24.4832C13.9211 24.8145 14.521 24.9373 14.9085 24.9752C15.1983 25.0036 15.6807 25.0088 16.1101 24.9846C16.5395 24.9605 16.9023 24.8963 17.1868 24.8296C17.4714 24.7629 17.6669 24.6955 18.2781 24.3589C18.8892 24.0223 19.91 23.4184 20.5172 23.0048C21.3315 22.4501 21.5028 22.075 21.5906 21.9037C21.6504 21.7871 21.769 21.5323 21.9054 21.1172C22.0218 20.7629 22.0098 20.1786 21.9795 19.5093C21.9502 18.8643 21.6805 18.4105 21.3994 18.0733C21.1929 17.8254 20.9613 17.6723 20.7286 17.5767C20.2231 17.369 19.7592 17.4938 19.2264 17.4967C18.9748 17.4981 18.5679 17.68 17.9553 17.9166C17.9118 17.9334 17.8693 17.95 17.8279 17.9664M11.164 13.1641C11.0863 12.9678 11.007 12.6994 10.9283 12.3256C10.8422 11.9168 10.6955 11.17 10.6152 10.7639C10.5223 10.2943 10.2778 9.60634 10.5618 9.27558C10.6243 9.20267 10.8167 9.02384 11.4781 9.01149C11.9261 9.00312 12.7345 8.98613 13.2883 9.02153C14.1353 9.07567 14.5111 9.12596 14.6515 9.17618C14.8609 9.25104 15.0683 9.28655 15.6227 9.70675C15.9435 9.9499 16.1745 10.1982 16.3433 10.0923C16.5956 9.93398 16.8391 9.77431 17.2918 9.66603C17.7827 9.54862 18.3359 9.3599 18.8022 9.31223C19.1301 9.27871 19.3341 9.26683 19.431 9.35507C19.7269 9.62459 20.0589 10.0895 20.0191 10.4363C19.9819 10.7604 19.7965 11.1924 19.2232 11.7168C18.9188 11.9952 18.5959 12.2376 18.2791 12.5145C17.9242 12.8247 17.6724 13.0862 17.412 13.298C16.9815 13.6482 16.6901 13.9037 16.5244 14.0272C16.2093 14.262 15.9625 14.4768 15.7312 14.6627C15.3049 15.0053 14.5622 15.6928 14.7492 15.6059C15.2395 15.3782 15.7349 15.132 16.0043 14.9692C16.2632 14.8126 16.486 14.6408 17.1916 14.3447C17.5175 14.2079 18.317 13.9121 18.8498 14.2303C19.1114 14.3865 19.3608 14.5492 19.3562 14.8686C19.3504 15.2618 19.2639 15.7612 19.1623 15.973C19.0708 16.1639 18.9783 16.6161 18.4317 17.3797C18.2599 17.6198 18.1242 17.7893 17.8279 17.9664M11.164 13.1641C11.214 13.2902 11.2632 13.3866 11.3112 13.462C11.3928 13.59 11.5867 13.4888 11.7045 13.4403C11.8047 13.3991 12.1587 13.0523 12.8016 12.4321C13.1248 12.1204 13.4758 11.8537 13.8203 11.6131C14.4841 11.1494 14.9057 10.9498 15.1156 10.8564C15.509 10.6713 15.802 10.5315 15.8881 10.4858C15.9306 10.4611 15.9707 10.4333 16.0327 10.3832M17.8279 17.9664C16.6962 18.4155 16.3268 18.7295 16.2494 18.7743C16.1619 18.825 16.7073 18.5407 17.6509 18.0634C17.7159 18.0305 17.7745 17.9984 17.8279 17.9664ZM1.00007 1.70643C2.60066 1.86574 7.1405 2.24119 9.3866 2.37813C10.6131 2.45291 12.0467 1.98022 12.976 1.71255C13.9037 1.44534 14.9131 1.24645 17.5874 1.06872C18.5955 1.00172 19.6878 0.965988 20.9063 1.04538C22.3014 1.13629 22.7197 2.56567 23.4488 3.35742C24.2496 4.13137 24.8613 4.63494 25.229 4.90397C25.4186 5.03067 25.6144 5.13743 26.0859 5.35524M26.3019 5.40913C26.3019 6.79197 26.3896 10.2078 26.6558 11.8054C27.0003 13.8731 27.1305 15.24 27.4519 16.6308C27.791 18.0978 27.9605 19.6232 28.1362 20.9646C28.3873 22.8811 28.5617 23.8189 28.6879 24.8878C28.8612 26.3544 28.9642 27.238 28.9919 29.3256C28.9828 29.8142 28.9648 30.0811 28.9643 30.3372C28.9639 30.5934 28.9817 30.8307 29.0001 31.0752C27.2336 31.4874 23.3281 32.4667 21.1698 32.7933C19.6069 33.0297 16.0738 33.6523 12.0585 33.9451C10.5299 34.0566 9.34336 33.9303 7.92806 33.8103C6.89916 33.723 6.0204 33.8808 5.4266 33.9874L5.38386 33.9951C4.27666 34.1936 4.47487 28.3436 4.16473 25.2372C3.98709 23.4579 3.13727 20.8538 2.54755 17.9422C2.25694 16.5073 2.21709 15.1678 2.14379 14.1923C2.05423 13.0004 1.98587 9.459 1.71189 7.1671C1.56609 5.94748 1.30017 5.10208 1.17254 4.22401C1.09969 3.76211 1.06244 3.29846 1.0534 2.84344C1.04437 2.61123 1.02629 2.37638 1.00767 2.1344M20.725 1.20908C21.2581 2.6882 21.311 3.71227 21.2062 4.76478C21.0907 5.92587 21.598 6.53789 21.7659 6.90723C21.8505 7.09329 22.1261 7.15476 22.3451 7.14862C23.3055 7.12171 25.1769 6.03595 25.9914 5.46989" stroke="black" stroke-width="2" stroke-linecap="round"/>
</svg>
