<svg width="18" height="18" viewBox="0 0 18 18" fill="none" xmlns="http://www.w3.org/2000/svg">
<path d="M4.5 14.9998L4.77925 12.7659C4.84131 12.2694 5.06708 11.8078 5.42088 11.4539L12.1875 4.68733C12.9124 3.96246 14.0876 3.96246 14.8125 4.68733C15.5374 5.4122 15.5374 6.58746 14.8125 7.31233L8.04585 14.0789C7.69208 14.4328 7.23045 14.6585 6.73397 14.7205L4.5 14.9998Z" stroke="currentColor" stroke-width="1.5" stroke-linecap="round" stroke-linejoin="round"/>
<path d="M5.43034 3.13889L4.90769 1.78C4.84281 1.61131 4.68074 1.5 4.5 1.5C4.31926 1.5 4.15719 1.61131 4.09231 1.78L3.56966 3.13889C3.49348 3.33695 3.33695 3.49348 3.13889 3.56966L1.78 4.09231C1.61131 4.15719 1.5 4.31926 1.5 4.5C1.5 4.68074 1.61131 4.84281 1.78 4.90769L3.13889 5.43034C3.33695 5.50652 3.49348 5.66305 3.56966 5.86111L4.09231 7.22C4.15719 7.38869 4.31926 7.5 4.5 7.5C4.68074 7.5 4.84281 7.38869 4.90769 7.22L5.43034 5.86111C5.50652 5.66305 5.66305 5.50652 5.86111 5.43034L7.22 4.90769C7.38869 4.84281 7.5 4.68074 7.5 4.5C7.5 4.31926 7.38869 4.15719 7.22 4.09231L5.86111 3.56966C5.66305 3.49348 5.50652 3.33695 5.43034 3.13889Z" fill="currentColor"/>
<path d="M11.25 6L13.5 8.25" stroke="currentColor" stroke-width="1.5" stroke-linejoin="round"/>
</svg>
