<svg viewBox="0 0 18 18" fill="none" xmlns="http://www.w3.org/2000/svg">
<path d="M7.89756 2.87051C8.58246 2.48525 9.41879 2.48525 10.1037 2.87051L13.8538 4.97987C14.5622 5.37838 15.0007 6.12805 15.0007 6.94092V11.0591C15.0007 11.8719 14.5622 12.6216 13.8537 13.0201L10.1037 15.1295C9.41879 15.5148 8.58246 15.5148 7.89756 15.1295L4.14762 13.0203C3.43911 12.6219 3.00064 11.8722 3.00064 11.0592V6.94091C3.00064 6.12803 3.43908 5.37836 4.14756 4.97985L7.89756 2.87051Z" stroke="black" stroke-width="1.5" stroke-linecap="square" stroke-linejoin="round"/>
<path d="M9 11.25C10.2427 11.25 11.25 10.2427 11.25 9C11.25 7.75732 10.2427 6.75 9 6.75C7.75732 6.75 6.75 7.75732 6.75 9C6.75 10.2427 7.75732 11.25 9 11.25Z" stroke="black" stroke-width="1.5" stroke-linecap="square" stroke-linejoin="round"/>
</svg>
