<svg width="14" height="14" viewBox="0 0 14 14" fill="none" xmlns="http://www.w3.org/2000/svg">
<g id="IconBulletList">
<path id="Vector" d="M4.66667 4.08333C4.66667 4.72767 4.14433 5.25 3.5 5.25C2.85567 5.25 2.33333 4.72767 2.33333 4.08333C2.33333 3.439 2.85567 2.91667 3.5 2.91667C4.14433 2.91667 4.66667 3.439 4.66667 4.08333Z" stroke="currentColor" stroke-width="1.16667" stroke-linecap="round"/>
<path id="Vector_2" d="M4.66667 9.91667C4.66667 10.561 4.14433 11.0833 3.5 11.0833C2.85567 11.0833 2.33333 10.561 2.33333 9.91667C2.33333 9.27232 2.85567 8.75 3.5 8.75C4.14433 8.75 4.66667 9.27232 4.66667 9.91667Z" stroke="currentColor" stroke-width="1.16667" stroke-linecap="round"/>
<path id="Vector_3" d="M7.58333 9.91667H11.6667" stroke="currentColor" stroke-width="1.16667" stroke-linecap="round"/>
<path id="Vector_4" d="M7.58333 4.08333H11.6667" stroke="currentColor" stroke-width="1.16667" stroke-linecap="round"/>
</g>
</svg>
