<svg width="14" height="14" viewBox="0 0 14 14" fill="none" xmlns="http://www.w3.org/2000/svg">
<g id="IconNumber2Circle">
<path id="Vector" d="M7 12.25C9.8995 12.25 12.25 9.8995 12.25 7C12.25 4.1005 9.8995 1.75 7 1.75C4.1005 1.75 1.75 4.1005 1.75 7C1.75 9.8995 4.1005 12.25 7 12.25Z" stroke="currentColor" stroke-width="1.16667"/>
<path id="Vector_2" d="M5.72396 9.26497C5.32063 9.26497 5.13607 9.03939 5.13607 8.72836C5.13607 8.49251 5.23519 8.32504 5.48128 8.11311L6.88946 6.8348C7.46713 6.30846 7.62434 6.08282 7.62434 5.76155C7.62434 5.40609 7.35093 5.15315 6.95782 5.15315C6.63314 5.15315 6.41095 5.31039 6.22982 5.63851C6.07262 5.88117 5.92562 5.98033 5.67269 5.98033C5.34798 5.98033 5.15315 5.79232 5.15315 5.4847C5.15315 5.38899 5.16683 5.30013 5.20443 5.21126C5.41976 4.64388 6.076 4.2098 6.97491 4.2098C8.09946 4.2098 8.83773 4.80794 8.83773 5.67952C8.83773 6.31184 8.51643 6.67415 7.73372 7.38167L6.75278 8.27721V8.30112H8.45833C8.77619 8.30112 8.96076 8.48907 8.96076 8.78301C8.96076 9.07013 8.77619 9.26497 8.45833 9.26497H5.72396Z" fill="currentColor"/>
</g>
</svg>
