<svg width="45.092" height="52.502" viewBox="0 0 45.092 52.502" fill="none" xmlns="http://www.w3.org/2000/svg">
<path d="M1.50011 2.55965C3.90099 2.79861 10.7108 3.36178 14.0799 3.5672C15.9196 3.67937 18.0701 2.97033 19.464 2.56882C20.8555 2.16801 22.3696 1.86967 26.3811 1.60308C27.8933 1.50258 29.5317 1.44898 31.3594 1.56807C33.4521 1.70443 34.0795 3.84851 35.1731 5.03613C36.3744 6.19706 37.292 6.95241 37.8435 7.35596C38.1279 7.54601 38.4216 7.70614 39.1289 8.03287M39.4529 8.11369C39.4529 10.1879 39.5844 15.3117 39.9837 17.7081C40.5004 20.8097 40.6958 22.8599 41.1779 24.9462C41.6864 27.1466 41.9407 29.4348 42.2044 31.4469C42.581 34.3217 42.8426 35.7284 43.0319 37.3317C43.2917 39.5317 43.4463 40.8569 43.4878 43.9884C43.4742 44.7213 43.4471 45.1217 43.4465 45.5059C43.4459 45.8901 43.4726 46.246 43.5001 46.6128C40.8503 47.2311 34.9921 48.7001 31.7547 49.1899C29.4104 49.5446 24.1107 50.4784 18.0877 50.9176C15.7949 51.0848 14.015 50.8955 11.8921 50.7154C10.3487 50.5845 9.0306 50.8212 8.1399 50.9811L8.07579 50.9926C6.41499 51.2904 6.7123 42.5154 6.24709 37.8557C5.98063 35.1868 4.7059 31.2807 3.82132 26.9132C3.38541 24.761 3.32564 22.7517 3.21569 21.2885C3.08134 19.5006 2.9788 14.1885 2.56783 10.7506C2.34914 8.92122 1.95026 7.65311 1.75881 6.33601C1.64954 5.64317 1.59366 4.94769 1.58011 4.26516C1.56655 3.91684 1.53944 3.56456 1.5115 3.20161M31.0875 1.81363C31.8872 4.0323 31.9664 5.56841 31.8094 7.14717C31.6361 8.88881 32.397 9.80684 32.6489 10.3608C32.7757 10.6399 33.1891 10.7321 33.5176 10.7229C34.9582 10.6826 37.7653 9.05392 38.9871 8.20483M21.2521 17.1881C20.9984 19.3298 21.1186 21.2019 21.6756 23.8082C22.4118 27.2532 22.6828 28.297 22.8295 29.0101C22.9744 29.7483 23.1907 30.6145 23.4501 31.4369C23.5221 31.6557 23.6064 31.9135 23.7285 32.3554M14.026 25.7983C14.8282 25.56 15.6303 25.3217 17.3726 24.9523C19.1149 24.5829 21.773 24.0898 23.2999 23.8162C25.7858 23.3709 26.8555 23.2321 28.2649 23.1494C28.6204 23.1246 28.8951 23.0872 29.1345 23.0508C29.3739 23.0143 29.5696 22.98 29.7713 22.9446" stroke="currentColor" stroke-width="3" stroke-linecap="round"/>
</svg>
