<svg width="18" height="18" viewBox="0 0 18 18" fill="none" xmlns="http://www.w3.org/2000/svg">
<path d="M4.5 9.75V11.25C4.5 13.7353 6.51472 15.75 9 15.75C11.4853 15.75 13.5 13.7353 13.5 11.25V9.75M4.5 9.75H2.25M4.5 9.75V8.25C4.5 7.00736 5.50736 6 6.75 6H11.25C12.4927 6 13.5 7.00736 13.5 8.25V9.75M13.5 9.75H15.75M4.5 12.75L2.4375 13.5M13.5 12.75L15.5625 13.5M9 9.75V15M6 5.625V5.25C6 3.59314 7.34314 2.25 9 2.25C10.6568 2.25 12 3.59314 12 5.25V5.625M4.7025 6.75L2.4375 6M13.125 6.75L15.5625 6" stroke="black" stroke-width="1.5" stroke-linecap="round" stroke-linejoin="round"/>
</svg>
