<svg width="20" height="20" viewBox="0 0 20 20" fill="none" xmlns="http://www.w3.org/2000/svg">
<path d="M15.0715 9.76125L12.5228 15.1394C12.1597 15.906 11.4327 16.4359 10.5918 16.5473L2.5 17.6187L3.51801 9.49742C3.62545 8.64025 4.16779 7.89930 4.95235 7.53779L10.3574 5.04718L10.2206 4.91033C9.64533 4.33503 9.64533 3.40229 10.2206 2.82700C10.7959 2.25170 11.7287 2.25170 12.3039 2.82700L17.2917 7.81474C17.8670 8.39004 17.8670 9.32277 17.2917 9.89807C16.7164 10.4734 15.7836 10.4734 15.2083 9.89807L15.0715 9.76125Z" stroke="#57534E" stroke-width="1.66667" stroke-linejoin="round"/>
<path d="M9.16667 11.7667C9.16667 12.2269 8.79357 12.6 8.33333 12.6C7.8731 12.6 7.5 12.2269 7.5 11.7667C7.5 11.3064 7.8731 10.9333 8.33333 10.9333C8.79357 10.9333 9.16667 11.3064 9.16667 11.7667Z" stroke="#57534E" stroke-width="1.66667"/>
<path d="M10.3581 5.04718L15.0721 9.76125" stroke="#57534E" stroke-width="1.66667" stroke-linecap="round"/>
<path d="M8.33333 11.7854L2.5 17.6187" stroke="#57534E" stroke-width="1.66667" stroke-linecap="round"/>
</svg>
