<svg width="18" height="18" viewBox="0 0 18 18" fill="none" xmlns="http://www.w3.org/2000/svg">
<path d="M5.25 12C5.25 12.4143 5.58579 12.75 6 12.75C6.41421 12.75 6.75 12.4143 6.75 12H5.25ZM6.75 6C6.75 5.58579 6.41421 5.25 6 5.25C5.58579 5.25 5.25 5.58579 5.25 6H6.75ZM14.25 6.6V11.4H15.75V6.6H14.25ZM11.4 14.25H6.6V15.75H11.4V14.25ZM3.75 11.4V6.6H2.25V11.4H3.75ZM6.6 3.75H11.4V2.25H6.6V3.75ZM6.6 14.25C5.95756 14.25 5.52085 14.2493 5.18328 14.2218C4.85447 14.1949 4.68631 14.1463 4.56902 14.0865L3.88803 15.4230C4.25203 15.6085 4.63956 15.6824 5.06113 15.7168C5.47395 15.7506 5.98231 15.75 6.6 15.75V14.25ZM2.25 11.4C2.25 12.0177 2.24942 12.526 2.28314 12.9389C2.31759 13.3604 2.39151 13.748 2.57698 14.112L3.91349 13.431C3.87372 13.3537 3.82503 13.1955 3.80567 12.8668C3.78558 12.5292 3.75 12.0924 3.75 11.4H2.25ZM4.56902 14.0865C4.28678 13.9427 4.05731 13.7132 3.91349 13.431L2.57698 14.112C2.8471 14.6389 3.26605 15.0579 3.88803 15.4230L4.56902 14.0865ZM14.25 11.4C14.25 12.0924 14.2493 12.5292 14.2218 12.8668C14.1949 13.1955 14.1463 13.3537 14.0865 13.431L15.4230 14.112C15.6085 13.748 15.6824 13.3604 15.7168 12.9389C15.7506 12.526 15.75 12.0177 15.75 11.4H14.25ZM11.4 15.75C12.0177 15.75 12.526 15.7506 12.9389 15.7168C13.3604 15.6824 13.748 15.6085 14.112 15.4230L13.431 14.0865C13.3537 14.1463 13.1955 14.1949 12.8668 14.2218C12.5292 14.2493 12.0924 14.25 11.4 14.25V15.75ZM14.0865 13.431C13.9427 13.7132 13.7132 13.9427 13.431 14.0865L14.112 15.4230C14.6389 15.0579 15.0579 14.6389 15.4230 14.112L14.0865 13.431ZM15.75 6.6C15.75 5.98231 15.7506 5.47395 15.7168 5.06113C15.6824 4.63956 15.6085 4.25203 15.4230 3.88803L14.0865 4.56902C14.1463 4.68631 14.1949 4.85447 14.2218 5.18328C14.2493 5.52085 14.25 5.95756 14.25 6.6H15.75ZM11.4 3.75C12.0924 3.75 12.5292 3.75058 12.8668 3.78567C13.1955 3.82003 13.3537 3.87372 13.431 3.91349L14.112 2.57698C13.748 2.39151 13.3604 2.31759 12.9389 2.28314C12.526 2.24942 12.0177 2.25 11.4 2.25V3.75ZM15.4230 3.88803C15.0579 3.26605 14.6389 2.8471 14.112 2.57698L13.431 3.91349C13.7132 4.05731 13.9427 4.28678 14.0865 4.56902L15.4230 3.88803ZM3.75 6.6C3.75 5.95756 3.75058 5.52085 3.78567 5.18328C3.82003 4.85447 3.87372 4.68631 3.91349 4.56902L2.57698 3.88803C2.39151 4.25203 2.31759 4.63956 2.28314 5.06113C2.24942 5.47395 2.25 5.98231 2.25 6.6H3.75ZM6.6 2.25C5.98231 2.25 5.47395 2.24942 5.06113 2.28314C4.63956 2.31759 4.25203 2.39151 3.88803 2.57698L4.56902 3.91349C4.68631 3.87372 4.85447 3.82003 5.18328 3.78567C5.52085 3.75058 5.95756 3.75 6.6 3.75V2.25ZM3.91349 4.56902C4.05731 4.28677 4.28677 4.05731 4.56902 3.91349L3.88803 2.57698C3.26605 2.8471 2.8471 3.26605 2.57698 3.88803L3.91349 4.56902ZM6.75 12V6H5.25V12H6.75Z" fill="currentColor"/>
</svg>
